Domine-Bold.ufo
<glyph name="exclam" format="2">
  <advance width="291"/>
  <unicode hex="0021"/>
  <outline>
    <contour>
      <point x="189" y="205" type="line"/>
      <point x="189" y="308"/>
      <point x="205" y="452"/>
      <point x="205" y="500" type="curve" smooth="yes"/>
      <point x="211" y="549"/>
      <point x="218" y="595"/>
      <point x="218" y="651" type="curve" smooth="yes"/>
      <point x="218" y="694"/>
      <point x="200" y="730"/>
      <point x="148" y="730" type="curve" smooth="yes"/>
      <point x="98" y="730"/>
      <point x="74" y="697"/>
      <point x="74" y="650" type="curve" smooth="yes"/>
      <point x="74" y="595"/>
      <point x="83" y="549"/>
      <point x="87" y="500" type="curve" smooth="yes"/>
      <point x="91" y="452"/>
      <point x="103" y="308"/>
      <point x="103" y="205" type="curve"/>
    </contour>
    <contour>
      <point x="224" y="53" type="curve" smooth="yes"/>
      <point x="224" y="101"/>
      <point x="193" y="133"/>
      <point x="145" y="133" type="curve" smooth="yes"/>
      <point x="97" y="133"/>
      <point x="67" y="102"/>
      <point x="67" y="52" type="curve" smooth="yes"/>
      <point x="67" y="3"/>
      <point x="96" y="-25"/>
      <point x="144" y="-25" type="curve" smooth="yes"/>
      <point x="194" y="-25"/>
      <point x="224" y="5"/>
    </contour>
  </outline>
</glyph>
<glyph name="quotedbl" format="1">
  <advance width="424"/>
  <unicode hex="0022"/>
  <outline>
    <contour>
      <point x="351" y="470" type="line"/>
      <point x="351" y="559"/>
      <point x="377" y="651"/>
      <point x="377" y="689" type="curve" smooth="yes"/>
      <point x="377" y="732"/>
      <point x="361" y="760"/>
      <point x="313" y="760" type="curve" smooth="yes"/>
      <point x="264" y="760"/>
      <point x="248" y="731"/>
      <point x="248" y="689" type="curve" smooth="yes"/>
      <point x="248" y="651"/>
      <point x="274" y="559"/>
      <point x="274" y="470" type="curve"/>
    </contour>
    <contour>
      <point x="150" y="470" type="line"/>
      <point x="150" y="559"/>
      <point x="176" y="651"/>
      <point x="176" y="689" type="curve" smooth="yes"/>
      <point x="176" y="732"/>
      <point x="160" y="760"/>
      <point x="112" y="760" type="curve" smooth="yes"/>
      <point x="63" y="760"/>
      <point x="47" y="731"/>
      <point x="47" y="689" type="curve" smooth="yes"/>
      <point x="47" y="651"/>
      <point x="73" y="559"/>
      <point x="73" y="470" type="curve"/>
    </contour>
  </outline>
</glyph>
<glyph name="numbersign" format="1">
  <advance width="761"/>
  <unicode hex="0023"/>
  <outline>
    <contour>
      <point x="395" y="-10" type="line"/>
      <point x="482" y="-10" type="line"/>
      <point x="522" y="187" type="line"/>
      <point x="679" y="187" type="line"/>
      <point x="679" y="255" type="line"/>
      <point x="534" y="255" type="line"/>
      <point x="573" y="446" type="line"/>
      <point x="728" y="446" type="line"/>
      <point x="728" y="514" type="line"/>
      <point x="585" y="514" type="line"/>
      <point x="628" y="730" type="line"/>
      <point x="541" y="730" type="line"/>
      <point x="498" y="514" type="line"/>
      <point x="325" y="514" type="line"/>
      <point x="368" y="730" type="line"/>
      <point x="281" y="730" type="line"/>
      <point x="238" y="514" type="line"/>
      <point x="81" y="514" type="line"/>
      <point x="81" y="446" type="line"/>
      <point x="226" y="446" type="line"/>
      <point x="187" y="255" type="line"/>
      <point x="32" y="255" type="line"/>
      <point x="32" y="187" type="line"/>
      <point x="175" y="187" type="line"/>
      <point x="135" y="-10" type="line"/>
      <point x="222" y="-10" type="line"/>
      <point x="262" y="187" type="line"/>
      <point x="435" y="187" type="line"/>
    </contour>
    <contour>
      <point x="313" y="446" type="line"/>
      <point x="486" y="446" type="line"/>
      <point x="447" y="255" type="line"/>
      <point x="274" y="255" type="line"/>
    </contour>
  </outline>
</glyph>
<glyph name="dollar" format="1">
  <advance width="588"/>
  <unicode hex="0024"/>
  <outline>
    <contour>
      <point x="257" y="-130" type="line"/>
      <point x="334" y="-130" type="line"/>
      <point x="334" y="-10" type="line"/>
      <point x="473" y="-4"/>
      <point x="555" y="69"/>
      <point x="555" y="184" type="curve" smooth="yes"/>
      <point x="555" y="293"/>
      <point x="482" y="347"/>
      <point x="334" y="417" type="curve"/>
      <point x="334" y="660" type="line"/>
      <point x="372" y="656"/>
      <point x="400" y="639"/>
      <point x="418" y="606" type="curve"/>
      <point x="395" y="592"/>
      <point x="382" y="561"/>
      <point x="382" y="536" type="curve" smooth="yes"/>
      <point x="382" y="497"/>
      <point x="415" y="478"/>
      <point x="451" y="478" type="curve" smooth="yes"/>
      <point x="500" y="478"/>
      <point x="529" y="512"/>
      <point x="529" y="561" type="curve" smooth="yes"/>
      <point x="529" y="640"/>
      <point x="456" y="715"/>
      <point x="334" y="729" type="curve"/>
      <point x="334" y="851" type="line"/>
      <point x="257" y="851" type="line"/>
      <point x="257" y="731" type="line"/>
      <point x="130" y="726"/>
      <point x="47" y="651"/>
      <point x="47" y="530" type="curve" smooth="yes"/>
      <point x="47" y="393"/>
      <point x="155" y="343"/>
      <point x="257" y="303" type="curve"/>
      <point x="257" y="59" type="line"/>
      <point x="203" y="62"/>
      <point x="167" y="85"/>
      <point x="145" y="115" type="curve"/>
      <point x="166" y="126"/>
      <point x="187" y="148"/>
      <point x="187" y="181" type="curve" smooth="yes"/>
      <point x="187" y="219"/>
      <point x="159" y="248"/>
      <point x="114" y="248" type="curve" smooth="yes"/>
      <point x="64" y="248"/>
      <point x="35" y="211"/>
      <point x="35" y="162" type="curve" smooth="yes"/>
      <point x="35" y="80"/>
      <point x="118" y="0"/>
      <point x="257" y="-10" type="curve"/>
    </contour>
    <contour>
      <point x="417" y="156" type="curve" smooth="yes"/>
      <point x="417" y="100"/>
      <point x="384" y="67"/>
      <point x="334" y="60" type="curve"/>
      <point x="334" y="275" type="line"/>
      <point x="380" y="247"/>
      <point x="417" y="216"/>
    </contour>
    <contour>
      <point x="178" y="558" type="curve" smooth="yes"/>
      <point x="178" y="615"/>
      <point x="202" y="654"/>
      <point x="257" y="660" type="curve"/>
      <point x="257" y="449" type="line"/>
      <point x="201" y="483"/>
      <point x="178" y="503"/>
    </contour>
  </outline>
</glyph>
<glyph name="ampersand" format="1">
  <advance width="756"/>
  <unicode hex="0026"/>
  <outline>
    <contour>
      <point x="721" y="329" type="line"/>
      <point x="721" y="385" type="line"/>
      <point x="482" y="385" type="line"/>
      <point x="482" y="329" type="line"/>
      <point x="559" y="310" type="line"/>
      <point x="557" y="246"/>
      <point x="535" y="194"/>
      <point x="519" y="163" type="curve"/>
      <point x="354" y="376" type="line"/>
      <point x="466" y="435"/>
      <point x="517" y="512"/>
      <point x="517" y="587" type="curve" smooth="yes"/>
      <point x="517" y="669"/>
      <point x="451" y="728"/>
      <point x="340" y="728" type="curve" smooth="yes"/>
      <point x="221" y="728"/>
      <point x="150" y="657"/>
      <point x="150" y="553" type="curve" smooth="yes"/>
      <point x="150" y="500"/>
      <point x="168" y="445"/>
      <point x="205" y="386" type="curve"/>
      <point x="94" y="325"/>
      <point x="52" y="270"/>
      <point x="52" y="188" type="curve" smooth="yes"/>
      <point x="52" y="65"/>
      <point x="150" y="-10"/>
      <point x="312" y="-10" type="curve" smooth="yes"/>
      <point x="386" y="-10"/>
      <point x="446" y="2"/>
      <point x="495" y="36" type="curve"/>
      <point x="534" y="7"/>
      <point x="574" y="-10"/>
      <point x="621" y="-10" type="curve" smooth="yes"/>
      <point x="674" y="-10"/>
      <point x="718" y="11"/>
      <point x="746" y="51" type="curve"/>
      <point x="709" y="105" type="line"/>
      <point x="691" y="79"/>
      <point x="666" y="64"/>
      <point x="636" y="64" type="curve" smooth="yes"/>
      <point x="617" y="64"/>
      <point x="591" y="77"/>
      <point x="578" y="96" type="curve"/>
      <point x="618" y="154"/>
      <point x="644" y="234"/>
      <point x="645" y="310" type="curve"/>
    </contour>
    <contour>
      <point x="324" y="63" type="curve" smooth="yes"/>
      <point x="233" y="63"/>
      <point x="182" y="109"/>
      <point x="182" y="189" type="curve" smooth="yes"/>
      <point x="182" y="249"/>
      <point x="207" y="301"/>
      <point x="254" y="328" type="curve"/>
      <point x="439" y="91" type="line"/>
      <point x="422" y="76"/>
      <point x="374" y="63"/>
    </contour>
    <contour>
      <point x="265" y="576" type="curve" smooth="yes"/>
      <point x="265" y="631"/>
      <point x="296" y="658"/>
      <point x="339" y="658" type="curve" smooth="yes"/>
      <point x="391" y="658"/>
      <point x="418" y="628"/>
      <point x="418" y="582" type="curve" smooth="yes"/>
      <point x="418" y="527"/>
      <point x="379" y="492"/>
      <point x="308" y="444" type="curve"/>
      <point x="274" y="497"/>
      <point x="265" y="529"/>
    </contour>
  </outline>
</glyph>
<glyph name="quotesingle" format="2">
  <advance width="223"/>
  <unicode hex="0027"/>
  <outline>
    <contour>
      <point x="150" y="470" type="line"/>
      <point x="150" y="559"/>
      <point x="176" y="651"/>
      <point x="176" y="689" type="curve" smooth="yes"/>
      <point x="176" y="732"/>
      <point x="160" y="760"/>
      <point x="112" y="760" type="curve" smooth="yes"/>
      <point x="63" y="760"/>
      <point x="47" y="731"/>
      <point x="47" y="689" type="curve" smooth="yes"/>
      <point x="47" y="651"/>
      <point x="73" y="559"/>
      <point x="73" y="470" type="curve"/>
    </contour>
  </outline>
</glyph>
<glyph name="parenleft" format="2">
  <advance width="382"/>
  <unicode hex="0028"/>
  <outline>
    <contour>
      <point x="33" y="353" type="curve" smooth="yes"/>
      <point x="33" y="619"/>
      <point x="172" y="842"/>
      <point x="349" y="886" type="curve"/>
      <point x="379" y="816" type="line"/>
      <point x="250" y="786"/>
      <point x="164" y="600"/>
      <point x="164" y="351" type="curve" smooth="yes"/>
      <point x="164" y="98"/>
      <point x="248" y="-78"/>
      <point x="374" y="-104" type="curve"/>
      <point x="334" y="-182" type="line"/>
      <point x="167" y="-148"/>
      <point x="33" y="75"/>
    </contour>
  </outline>
</glyph>
<glyph name="parenright" format="2">
  <advance width="382"/>
  <unicode hex="0029"/>
  <outline>
    <contour>
      <point x="349" y="353" type="curve" smooth="yes"/>
      <point x="349" y="75"/>
      <point x="215" y="-148"/>
      <point x="48" y="-182" type="curve"/>
      <point x="8" y="-104" type="line"/>
      <point x="134" y="-78"/>
      <point x="218" y="98"/>
      <point x="218" y="351" type="curve" smooth="yes"/>
      <point x="218" y="600"/>
      <point x="132" y="786"/>
      <point x="3" y="816" type="curve"/>
      <point x="33" y="886" type="line"/>
      <point x="210" y="842"/>
      <point x="349" y="619"/>
    </contour>
  </outline>
</glyph>
<glyph name="asterisk" format="2">
  <advance width="482"/>
  <unicode hex="002A"/>
  <guideline x="0.0" y="594.0" angle="0.0" identifier="iQLv7oe3eA"/>
  <outline>
    <contour>
      <point x="293" y="756" type="curve" smooth="yes"/>
      <point x="293" y="788"/>
      <point x="268" y="808"/>
      <point x="240" y="808" type="curve" smooth="yes"/>
      <point x="210" y="808"/>
      <point x="187" y="787"/>
      <point x="187" y="756" type="curve" smooth="yes"/>
      <point x="187" y="723"/>
      <point x="202" y="676"/>
      <point x="218" y="632" type="curve"/>
      <point x="180" y="660"/>
      <point x="128" y="695"/>
      <point x="88" y="695" type="curve" smooth="yes"/>
      <point x="59" y="695"/>
      <point x="39" y="669"/>
      <point x="39" y="642" type="curve" smooth="yes"/>
      <point x="39" y="589"/>
      <point x="99" y="589"/>
      <point x="140" y="589" type="curve" smooth="yes"/>
      <point x="162" y="589"/>
      <point x="184" y="590"/>
      <point x="206" y="593" type="curve"/>
      <point x="155" y="561"/>
      <point x="95" y="517"/>
      <point x="95" y="480" type="curve" smooth="yes"/>
      <point x="95" y="452"/>
      <point x="122" y="426"/>
      <point x="150" y="426" type="curve" smooth="yes"/>
      <point x="193" y="426"/>
      <point x="215" y="488"/>
      <point x="241" y="565" type="curve"/>
      <point x="259" y="508"/>
      <point x="286" y="427"/>
      <point x="335" y="427" type="curve" smooth="yes"/>
      <point x="364" y="427"/>
      <point x="388" y="453"/>
      <point x="388" y="478" type="curve" smooth="yes"/>
      <point x="388" y="525"/>
      <point x="308" y="571"/>
      <point x="271" y="592" type="curve"/>
      <point x="295" y="589.0"/>
      <point x="319" y="588"/>
      <point x="342" y="588" type="curve" smooth="yes"/>
      <point x="383" y="588"/>
      <point x="443" y="588"/>
      <point x="443" y="641" type="curve" smooth="yes"/>
      <point x="443" y="668"/>
      <point x="423" y="694"/>
      <point x="394" y="694" type="curve" smooth="yes"/>
      <point x="354" y="694"/>
      <point x="303" y="659"/>
      <point x="262" y="630" type="curve"/>
      <point x="276" y="667"/>
      <point x="293" y="721"/>
    </contour>
  </outline>
</glyph>
<glyph name="plus" format="1">
  <advance width="500"/>
  <unicode hex="002B"/>
  <outline>
    <contour>
      <point x="36" y="321" type="line"/>
      <point x="201" y="321" type="line"/>
      <point x="201" y="163" type="line"/>
      <point x="299" y="163" type="line"/>
      <point x="299" y="321" type="line"/>
      <point x="464" y="321" type="line"/>
      <point x="464" y="403" type="line"/>
      <point x="299" y="403" type="line"/>
      <point x="299" y="561" type="line"/>
      <point x="201" y="561" type="line"/>
      <point x="201" y="403" type="line"/>
      <point x="36" y="403" type="line"/>
    </contour>
  </outline>
</glyph>
<glyph name="comma" format="2">
  <advance width="254"/>
  <unicode hex="002C"/>
  <outline>
    <contour>
      <point x="125" y="133" type="curve" smooth="yes"/>
      <point x="77" y="133"/>
      <point x="45" y="100"/>
      <point x="45" y="53" type="curve" smooth="yes"/>
      <point x="45" y="8"/>
      <point x="69" y="-21"/>
      <point x="100" y="-21" type="curve" smooth="yes"/>
      <point x="111" y="-21"/>
      <point x="117" y="-19"/>
      <point x="122" y="-15" type="curve"/>
      <point x="126" y="-18" type="line"/>
      <point x="123" y="-46"/>
      <point x="85" y="-82"/>
      <point x="37" y="-122" type="curve"/>
      <point x="68" y="-158" type="line"/>
      <point x="163" y="-104"/>
      <point x="209" y="-37"/>
      <point x="209" y="35" type="curve" smooth="yes"/>
      <point x="209" y="95"/>
      <point x="176" y="133"/>
    </contour>
  </outline>
</glyph>
<glyph name="hyphen" format="1">
  <advance width="371"/>
  <unicode hex="002D"/>
  <outline>
    <contour>
      <point x="60" y="229" type="line"/>
      <point x="311" y="229" type="line"/>
      <point x="311" y="326" type="line"/>
      <point x="60" y="326" type="line"/>
    </contour>
  </outline>
</glyph>
<glyph name="period" format="2">
  <advance width="247"/>
  <unicode hex="002E"/>
  <outline>
    <contour>
      <point x="45" y="52" type="curve" smooth="yes"/>
      <point x="45" y="3"/>
      <point x="74" y="-25"/>
      <point x="122" y="-25" type="curve" smooth="yes"/>
      <point x="172" y="-25"/>
      <point x="202" y="5"/>
      <point x="202" y="53" type="curve" smooth="yes"/>
      <point x="202" y="101"/>
      <point x="171" y="133"/>
      <point x="123" y="133" type="curve" smooth="yes"/>
      <point x="75" y="133"/>
      <point x="45" y="102"/>
    </contour>
  </outline>
</glyph>
<glyph name="zero" format="1">
  <advance width="684"/>
  <unicode hex="0030"/>
  <outline>
    <contour>
      <point x="47" y="360" type="curve" smooth="yes"/>
      <point x="47" y="232"/>
      <point x="76" y="133"/>
      <point x="130" y="68" type="curve" smooth="yes"/>
      <point x="178" y="10"/>
      <point x="248" y="-10"/>
      <point x="342" y="-10" type="curve" smooth="yes"/>
      <point x="446" y="-10"/>
      <point x="499" y="10"/>
      <point x="554" y="68" type="curve" smooth="yes"/>
      <point x="607" y="133"/>
      <point x="637" y="232"/>
      <point x="637" y="360" type="curve" smooth="yes"/>
      <point x="637" y="488"/>
      <point x="608" y="587"/>
      <point x="554" y="652" type="curve" smooth="yes"/>
      <point x="499" y="710"/>
      <point x="446" y="730"/>
      <point x="342" y="730" type="curve" smooth="yes"/>
      <point x="248" y="730"/>
      <point x="178" y="710"/>
      <point x="130" y="652" type="curve" smooth="yes"/>
      <point x="76" y="587"/>
      <point x="47" y="488"/>
    </contour>
    <contour>
      <point x="495" y="360" type="curve" smooth="yes"/>
      <point x="495" y="251"/>
      <point x="480" y="171"/>
      <point x="450" y="122" type="curve" smooth="yes"/>
      <point x="424" y="80"/>
      <point x="400" y="59"/>
      <point x="342" y="59" type="curve" smooth="yes"/>
      <point x="294" y="59"/>
      <point x="253" y="80"/>
      <point x="234" y="122" type="curve" smooth="yes"/>
      <point x="203" y="171"/>
      <point x="189" y="251"/>
      <point x="189" y="360" type="curve" smooth="yes"/>
      <point x="189" y="469"/>
      <point x="204" y="549"/>
      <point x="234" y="598" type="curve" smooth="yes"/>
      <point x="253" y="640"/>
      <point x="297" y="661"/>
      <point x="342" y="661" type="curve" smooth="yes"/>
      <point x="400" y="661"/>
      <point x="424" y="640"/>
      <point x="450" y="598" type="curve" smooth="yes"/>
      <point x="480" y="549"/>
      <point x="495" y="469"/>
    </contour>
  </outline>
</glyph>
<glyph name="one" format="2">
  <advance width="416"/>
  <unicode hex="0031"/>
  <outline>
    <contour>
      <point x="165" y="75" type="line"/>
      <point x="38" y="56" type="line"/>
      <point x="38" y="0" type="line"/>
      <point x="399" y="0" type="line"/>
      <point x="399" y="56" type="line"/>
      <point x="292" y="75" type="line"/>
      <point x="292" y="730" type="line"/>
      <point x="194" y="730" type="line"/>
      <point x="171" y="700"/>
      <point x="86" y="684"/>
      <point x="38" y="684" type="curve"/>
      <point x="38" y="618" type="line"/>
      <point x="165" y="618" type="line"/>
    </contour>
  </outline>
</glyph>
<glyph name="two" format="2">
  <advance width="600"/>
  <unicode hex="0032"/>
  <outline>
    <contour>
      <point x="152" y="110" type="line"/>
      <point x="152" y="211"/>
      <point x="537" y="302"/>
      <point x="537" y="535" type="curve" smooth="yes"/>
      <point x="537" y="655"/>
      <point x="434" y="731"/>
      <point x="289" y="731" type="curve" smooth="yes"/>
      <point x="142" y="731"/>
      <point x="54" y="653"/>
      <point x="54" y="545" type="curve" smooth="yes"/>
      <point x="54" y="471"/>
      <point x="95" y="444"/>
      <point x="143" y="444" type="curve" smooth="yes"/>
      <point x="187" y="444"/>
      <point x="216" y="466"/>
      <point x="216" y="505" type="curve" smooth="yes"/>
      <point x="216" y="541"/>
      <point x="192" y="565"/>
      <point x="150" y="565" type="curve"/>
      <point x="162" y="630"/>
      <point x="201" y="662"/>
      <point x="275" y="662" type="curve" smooth="yes"/>
      <point x="357" y="662"/>
      <point x="406" y="622"/>
      <point x="406" y="554" type="curve" smooth="yes"/>
      <point x="406" y="369"/>
      <point x="41" y="274"/>
      <point x="41" y="66" type="curve" smooth="yes"/>
      <point x="41" y="0" type="line"/>
      <point x="546" y="0" type="line"/>
      <point x="546" y="238" type="line"/>
      <point x="461" y="238" type="line"/>
      <point x="437" y="110" type="line"/>
    </contour>
  </outline>
</glyph>
<glyph name="three" format="1">
  <advance width="590"/>
  <unicode hex="0033"/>
  <outline>
    <contour>
      <point x="531" y="541" type="curve" smooth="yes"/>
      <point x="531" y="655"/>
      <point x="427" y="731"/>
      <point x="283" y="731" type="curve" smooth="yes"/>
      <point x="143" y="731"/>
      <point x="51" y="660"/>
      <point x="51" y="559" type="curve" smooth="yes"/>
      <point x="51" y="500"/>
      <point x="83" y="455"/>
      <point x="147" y="455" type="curve" smooth="yes"/>
      <point x="198" y="455"/>
      <point x="219" y="484"/>
      <point x="219" y="517" type="curve" smooth="yes"/>
      <point x="219" y="552"/>
      <point x="194" y="575"/>
      <point x="153" y="575" type="curve"/>
      <point x="162" y="633"/>
      <point x="203" y="662"/>
      <point x="273" y="662" type="curve" smooth="yes"/>
      <point x="351" y="662"/>
      <point x="401" y="626"/>
      <point x="401" y="552" type="curve" smooth="yes"/>
      <point x="401" y="464"/>
      <point x="330" y="404"/>
      <point x="222" y="404" type="curve"/>
      <point x="222" y="341" type="line"/>
      <point x="335" y="341"/>
      <point x="404" y="282"/>
      <point x="404" y="186" type="curve" smooth="yes"/>
      <point x="404" y="102"/>
      <point x="351" y="59"/>
      <point x="265" y="59" type="curve" smooth="yes"/>
      <point x="189" y="59"/>
      <point x="150" y="92"/>
      <point x="139" y="156" type="curve"/>
      <point x="179" y="156"/>
      <point x="205" y="181"/>
      <point x="205" y="216" type="curve" smooth="yes"/>
      <point x="205" y="251"/>
      <point x="179" y="278"/>
      <point x="131" y="278" type="curve" smooth="yes"/>
      <point x="71" y="278"/>
      <point x="43" y="236"/>
      <point x="43" y="175" type="curve" smooth="yes"/>
      <point x="43" y="69"/>
      <point x="129" y="-10"/>
      <point x="277" y="-10" type="curve" smooth="yes"/>
      <point x="421" y="-10"/>
      <point x="542" y="65"/>
      <point x="542" y="200" type="curve" smooth="yes"/>
      <point x="542" y="284"/>
      <point x="496" y="350"/>
      <point x="389" y="372" type="curve"/>
      <point x="389" y="376" type="line"/>
      <point x="478" y="391"/>
      <point x="531" y="459"/>
    </contour>
  </outline>
</glyph>
<glyph name="four" format="1">
  <advance width="573"/>
  <unicode hex="0034"/>
  <outline>
    <contour>
      <point x="312" y="75" type="line"/>
      <point x="215" y="56" type="line"/>
      <point x="215" y="0" type="line"/>
      <point x="516" y="0" type="line"/>
      <point x="516" y="56" type="line"/>
      <point x="439" y="75" type="line"/>
      <point x="439" y="198" type="line"/>
      <point x="538" y="198" type="line"/>
      <point x="548" y="270" type="line"/>
      <point x="439" y="270" type="line"/>
      <point x="439" y="730" type="line"/>
      <point x="330" y="730" type="line"/>
      <point x="9" y="257" type="line"/>
      <point x="24" y="198" type="line"/>
      <point x="312" y="198" type="line"/>
    </contour>
    <contour>
      <point x="312" y="588" type="line"/>
      <point x="312" y="270" type="line"/>
      <point x="108" y="270" type="line"/>
    </contour>
  </outline>
</glyph>
<glyph name="five" format="2">
  <advance width="566"/>
  <unicode hex="0035"/>
  <outline>
    <contour>
      <point x="462" y="610" type="line"/>
      <point x="190" y="610" type="line"/>
      <point x="159" y="407" type="line"/>
      <point x="198" y="436"/>
      <point x="242" y="451"/>
      <point x="300" y="451" type="curve" smooth="yes"/>
      <point x="439" y="451"/>
      <point x="531" y="364"/>
      <point x="531" y="227" type="curve" smooth="yes"/>
      <point x="531" y="85"/>
      <point x="434" y="-10"/>
      <point x="274" y="-10" type="curve" smooth="yes"/>
      <point x="128" y="-10"/>
      <point x="41" y="66"/>
      <point x="41" y="153" type="curve" smooth="yes"/>
      <point x="41" y="222"/>
      <point x="86" y="264"/>
      <point x="134" y="264" type="curve" smooth="yes"/>
      <point x="188" y="264"/>
      <point x="205" y="236"/>
      <point x="205" y="204" type="curve" smooth="yes"/>
      <point x="205" y="172"/>
      <point x="180" y="142"/>
      <point x="138" y="142" type="curve"/>
      <point x="147" y="95"/>
      <point x="184" y="57"/>
      <point x="261" y="57" type="curve" smooth="yes"/>
      <point x="344" y="57"/>
      <point x="393" y="123"/>
      <point x="393" y="222" type="curve" smooth="yes"/>
      <point x="393" y="319"/>
      <point x="353" y="381"/>
      <point x="271" y="381" type="curve" smooth="yes"/>
      <point x="218" y="381"/>
      <point x="176" y="364"/>
      <point x="150" y="331" type="curve"/>
      <point x="76" y="361" type="line"/>
      <point x="129" y="720" type="line"/>
      <point x="417" y="720" type="line"/>
      <point x="435" y="752" type="line"/>
      <point x="507" y="752" type="line"/>
    </contour>
  </outline>
</glyph>
<glyph name="six" format="2">
  <advance width="612"/>
  <unicode hex="0036"/>
  <outline>
    <contour>
      <point x="173" y="351" type="line"/>
      <point x="171" y="368"/>
      <point x="171" y="379"/>
      <point x="171" y="398" type="curve" smooth="yes"/>
      <point x="171" y="582"/>
      <point x="223" y="661"/>
      <point x="344" y="661" type="curve" smooth="yes"/>
      <point x="397" y="661"/>
      <point x="437" y="638"/>
      <point x="445" y="601" type="curve"/>
      <point x="405" y="601"/>
      <point x="379" y="577"/>
      <point x="379" y="540" type="curve" smooth="yes"/>
      <point x="379" y="502"/>
      <point x="406" y="473"/>
      <point x="460" y="473" type="curve" smooth="yes"/>
      <point x="518" y="473"/>
      <point x="541" y="508"/>
      <point x="541" y="563" type="curve" smooth="yes"/>
      <point x="541" y="663"/>
      <point x="457" y="731"/>
      <point x="335" y="731" type="curve" smooth="yes"/>
      <point x="143" y="731"/>
      <point x="48" y="595"/>
      <point x="48" y="340" type="curve" smooth="yes"/>
      <point x="48" y="102"/>
      <point x="138" y="-10"/>
      <point x="328" y="-10" type="curve" smooth="yes"/>
      <point x="475" y="-10"/>
      <point x="567" y="74"/>
      <point x="567" y="210" type="curve" smooth="yes"/>
      <point x="567" y="342"/>
      <point x="481" y="430"/>
      <point x="354" y="430" type="curve" smooth="yes"/>
      <point x="281" y="430"/>
      <point x="214" y="400"/>
      <point x="177" y="351" type="curve"/>
    </contour>
    <contour>
      <point x="430" y="210" type="curve" smooth="yes"/>
      <point x="430" y="111"/>
      <point x="390" y="60"/>
      <point x="312" y="60" type="curve" smooth="yes"/>
      <point x="239" y="60"/>
      <point x="194" y="111"/>
      <point x="194" y="210" type="curve" smooth="yes"/>
      <point x="194" y="308"/>
      <point x="239" y="358"/>
      <point x="312" y="358" type="curve" smooth="yes"/>
      <point x="390" y="358"/>
      <point x="430" y="308"/>
    </contour>
  </outline>
</glyph>
<glyph name="seven" format="1">
  <advance width="528"/>
  <unicode hex="0037"/>
  <outline>
    <contour>
      <point x="284" y="59" type="curve" smooth="yes"/>
      <point x="284" y="257"/>
      <point x="387" y="487"/>
      <point x="521" y="644" type="curve"/>
      <point x="521" y="720" type="line"/>
      <point x="32" y="720" type="line"/>
      <point x="32" y="493" type="line"/>
      <point x="114" y="493" type="line"/>
      <point x="133" y="610" type="line"/>
      <point x="388" y="610" type="line"/>
      <point x="257" y="457"/>
      <point x="151" y="200"/>
      <point x="151" y="60" type="curve" smooth="yes"/>
      <point x="151" y="18"/>
      <point x="166" y="-10"/>
      <point x="213" y="-10" type="curve" smooth="yes"/>
      <point x="270" y="-10"/>
      <point x="284" y="13"/>
    </contour>
  </outline>
</glyph>
<glyph name="eight" format="1">
  <advance width="581"/>
  <unicode hex="0038"/>
  <outline>
    <contour>
      <point x="506" y="569" type="curve" smooth="yes"/>
      <point x="506" y="674"/>
      <point x="420" y="731"/>
      <point x="292" y="731" type="curve" smooth="yes"/>
      <point x="150" y="731"/>
      <point x="76" y="661"/>
      <point x="76" y="547" type="curve" smooth="yes"/>
      <point x="76" y="477"/>
      <point x="104" y="431"/>
      <point x="178" y="378" type="curve"/>
      <point x="85" y="325"/>
      <point x="43" y="263"/>
      <point x="43" y="179" type="curve" smooth="yes"/>
      <point x="43" y="60"/>
      <point x="129" y="-10"/>
      <point x="276" y="-10" type="curve" smooth="yes"/>
      <point x="433" y="-10"/>
      <point x="539" y="70"/>
      <point x="539" y="197" type="curve" smooth="yes"/>
      <point x="539" y="278"/>
      <point x="496" y="335"/>
      <point x="397" y="389" type="curve"/>
      <point x="466" y="430"/>
      <point x="506" y="497"/>
    </contour>
    <contour>
      <point x="247" y="335" type="curve"/>
      <point x="372" y="259"/>
      <point x="411" y="227"/>
      <point x="411" y="168" type="curve" smooth="yes"/>
      <point x="411" y="100"/>
      <point x="358" y="59"/>
      <point x="277" y="59" type="curve" smooth="yes"/>
      <point x="196" y="59"/>
      <point x="143" y="100"/>
      <point x="143" y="183" type="curve" smooth="yes"/>
      <point x="143" y="253"/>
      <point x="180" y="298"/>
    </contour>
    <contour>
      <point x="345" y="427" type="curve"/>
      <point x="225" y="478"/>
      <point x="191" y="523"/>
      <point x="191" y="574" type="curve" smooth="yes"/>
      <point x="191" y="631"/>
      <point x="235" y="662"/>
      <point x="301" y="662" type="curve" smooth="yes"/>
      <point x="370" y="662"/>
      <point x="416" y="628"/>
      <point x="416" y="563" type="curve" smooth="yes"/>
      <point x="416" y="510"/>
      <point x="385" y="455"/>
    </contour>
  </outline>
</glyph>
<glyph name="nine" format="2">
  <advance width="611"/>
  <unicode hex="0039"/>
  <outline>
    <contour>
      <point x="438" y="370" type="line"/>
      <point x="440" y="353"/>
      <point x="440" y="342"/>
      <point x="440" y="323" type="curve" smooth="yes"/>
      <point x="440" y="139"/>
      <point x="388" y="60"/>
      <point x="267" y="60" type="curve" smooth="yes"/>
      <point x="214" y="60"/>
      <point x="174" y="83"/>
      <point x="166" y="120" type="curve"/>
      <point x="206" y="120"/>
      <point x="232" y="144"/>
      <point x="232" y="181" type="curve" smooth="yes"/>
      <point x="232" y="219"/>
      <point x="205" y="248"/>
      <point x="151" y="248" type="curve" smooth="yes"/>
      <point x="97" y="248"/>
      <point x="70" y="210"/>
      <point x="70" y="158" type="curve" smooth="yes"/>
      <point x="70" y="58"/>
      <point x="154" y="-10"/>
      <point x="276" y="-10" type="curve" smooth="yes"/>
      <point x="468" y="-10"/>
      <point x="563" y="126"/>
      <point x="563" y="381" type="curve" smooth="yes"/>
      <point x="563" y="619"/>
      <point x="477" y="731"/>
      <point x="287" y="731" type="curve" smooth="yes"/>
      <point x="140" y="731"/>
      <point x="44" y="647"/>
      <point x="44" y="511" type="curve" smooth="yes"/>
      <point x="44" y="379"/>
      <point x="130" y="291"/>
      <point x="257" y="291" type="curve" smooth="yes"/>
      <point x="330" y="291"/>
      <point x="397" y="321"/>
      <point x="434" y="370" type="curve"/>
    </contour>
    <contour>
      <point x="181" y="511" type="curve" smooth="yes"/>
      <point x="181" y="610"/>
      <point x="221" y="661"/>
      <point x="299" y="661" type="curve" smooth="yes"/>
      <point x="372" y="661"/>
      <point x="417" y="610"/>
      <point x="417" y="511" type="curve" smooth="yes"/>
      <point x="417" y="413"/>
      <point x="372" y="363"/>
      <point x="299" y="363" type="curve" smooth="yes"/>
      <point x="221" y="363"/>
      <point x="181" y="413"/>
    </contour>
  </outline>
</glyph>
<glyph name="less" format="2">
  <advance width="491"/>
  <unicode hex="003C"/>
  <outline>
    <contour>
      <point x="429" y="135" type="line"/>
      <point x="429" y="229" type="line"/>
      <point x="131" y="360" type="line"/>
      <point x="429" y="491" type="line"/>
      <point x="429" y="584" type="line"/>
      <point x="30" y="389" type="line"/>
      <point x="30" y="331" type="line"/>
    </contour>
  </outline>
</glyph>
<glyph name="equal" format="1">
  <advance width="556"/>
  <unicode hex="003D"/>
  <outline>
    <contour>
      <point x="64" y="408" type="line"/>
      <point x="492" y="408" type="line"/>
      <point x="492" y="496" type="line"/>
      <point x="64" y="496" type="line"/>
    </contour>
    <contour>
      <point x="64" y="220" type="line"/>
      <point x="492" y="220" type="line"/>
      <point x="492" y="309" type="line"/>
      <point x="64" y="309" type="line"/>
    </contour>
  </outline>
</glyph>
<glyph name="greater" format="2">
  <advance width="491"/>
  <unicode hex="003E"/>
  <outline>
    <contour>
      <point x="461" y="331" type="line"/>
      <point x="461" y="389" type="line"/>
      <point x="62" y="584" type="line"/>
      <point x="62" y="491" type="line"/>
      <point x="360" y="360" type="line"/>
      <point x="62" y="229" type="line"/>
      <point x="62" y="135" type="line"/>
    </contour>
  </outline>
</glyph>
<glyph name="question" format="1">
  <advance width="506"/>
  <unicode hex="003F"/>
  <outline>
    <contour>
      <point x="266" y="205" type="line"/>
      <point x="266" y="264"/>
      <point x="291" y="298"/>
      <point x="368" y="370" type="curve" smooth="yes"/>
      <point x="449" y="446"/>
      <point x="479" y="497"/>
      <point x="479" y="557" type="curve" smooth="yes"/>
      <point x="479" y="659"/>
      <point x="381" y="731"/>
      <point x="240" y="731" type="curve" smooth="yes"/>
      <point x="123" y="731"/>
      <point x="32" y="664"/>
      <point x="32" y="578" type="curve" smooth="yes"/>
      <point x="32" y="519"/>
      <point x="67" y="469"/>
      <point x="118" y="469" type="curve" smooth="yes"/>
      <point x="169" y="469"/>
      <point x="201" y="503"/>
      <point x="201" y="540" type="curve" smooth="yes"/>
      <point x="201" y="569"/>
      <point x="184" y="597"/>
      <point x="158" y="612" type="curve"/>
      <point x="158" y="638"/>
      <point x="193" y="661"/>
      <point x="231" y="661" type="curve" smooth="yes"/>
      <point x="306" y="661"/>
      <point x="348" y="621"/>
      <point x="348" y="551" type="curve" smooth="yes"/>
      <point x="348" y="498"/>
      <point x="330" y="459"/>
      <point x="283" y="412" type="curve" smooth="yes"/>
      <point x="203" y="332"/>
      <point x="180" y="286"/>
      <point x="180" y="205" type="curve"/>
    </contour>
    <contour>
      <point x="146" y="52" type="curve" smooth="yes"/>
      <point x="146" y="3"/>
      <point x="175" y="-25"/>
      <point x="223" y="-25" type="curve" smooth="yes"/>
      <point x="273" y="-25"/>
      <point x="303" y="5"/>
      <point x="303" y="53" type="curve" smooth="yes"/>
      <point x="303" y="101"/>
      <point x="272" y="133"/>
      <point x="224" y="133" type="curve" smooth="yes"/>
      <point x="176" y="133"/>
      <point x="146" y="102"/>
    </contour>
  </outline>
</glyph>
<glyph name="at" format="1">
  <advance width="817"/>
  <unicode hex="0040"/>
  <outline>
    <contour>
      <point x="399" y="449" type="curve" smooth="yes"/>
      <point x="277" y="449"/>
      <point x="184" y="340"/>
      <point x="184" y="196" type="curve" smooth="yes"/>
      <point x="184" y="92"/>
      <point x="233" y="34"/>
      <point x="341" y="34" type="curve" smooth="yes"/>
      <point x="399" y="34"/>
      <point x="453" y="66"/>
      <point x="484" y="107" type="curve"/>
      <point x="495" y="65"/>
      <point x="514" y="39"/>
      <point x="578" y="39" type="curve" smooth="yes"/>
      <point x="693" y="39"/>
      <point x="775" y="144"/>
      <point x="775" y="284" type="curve" smooth="yes"/>
      <point x="775" y="469"/>
      <point x="631" y="594"/>
      <point x="416" y="594" type="curve" smooth="yes"/>
      <point x="202" y="594"/>
      <point x="36" y="421"/>
      <point x="36" y="198" type="curve" smooth="yes"/>
      <point x="36" y="-9"/>
      <point x="169" y="-136"/>
      <point x="385" y="-136" type="curve" smooth="yes"/>
      <point x="484" y="-136"/>
      <point x="579" y="-110"/>
      <point x="652" y="-61" type="curve"/>
      <point x="633" y="-15" type="line"/>
      <point x="563" y="-60"/>
      <point x="478" y="-84"/>
      <point x="387" y="-84" type="curve" smooth="yes"/>
      <point x="211" y="-84"/>
      <point x="108" y="20"/>
      <point x="108" y="199" type="curve" smooth="yes"/>
      <point x="108" y="394"/>
      <point x="240" y="543"/>
      <point x="413" y="543" type="curve" smooth="yes"/>
      <point x="588" y="543"/>
      <point x="701" y="440"/>
      <point x="701" y="281" type="curve" smooth="yes"/>
      <point x="701" y="175"/>
      <point x="652" y="91"/>
      <point x="600" y="91" type="curve" smooth="yes"/>
      <point x="580" y="91"/>
      <point x="561" y="108"/>
      <point x="561" y="143" type="curve" smooth="yes"/>
      <point x="561" y="155"/>
      <point x="562" y="169"/>
      <point x="565" y="185" type="curve" smooth="yes"/>
      <point x="602" y="431" type="line"/>
      <point x="532" y="431" type="line"/>
      <point x="500" y="394" type="line"/>
      <point x="484" y="430"/>
      <point x="450" y="449"/>
    </contour>
    <contour>
      <point x="407" y="395" type="curve" smooth="yes"/>
      <point x="453" y="395"/>
      <point x="477" y="366"/>
      <point x="477" y="296" type="curve" smooth="yes"/>
      <point x="477" y="165"/>
      <point x="424" y="88"/>
      <point x="353" y="88" type="curve" smooth="yes"/>
      <point x="313" y="88"/>
      <point x="292" y="117"/>
      <point x="292" y="186" type="curve" smooth="yes"/>
      <point x="292" y="313"/>
      <point x="343" y="395"/>
    </contour>
  </outline>
</glyph>
<glyph name="A" format="1">
  <advance width="728"/>
  <unicode hex="0041"/>
  <outline>
    <contour>
      <point x="515" y="79" type="line"/>
      <point x="433" y="58" type="line"/>
      <point x="433" y="0" type="line"/>
      <point x="738" y="0" type="line"/>
      <point x="738" y="58" type="line"/>
      <point x="658" y="79" type="line"/>
      <point x="426" y="730" type="line"/>
      <point x="303" y="730" type="line"/>
      <point x="69" y="79" type="line"/>
      <point x="-13" y="58" type="line"/>
      <point x="-13" y="0" type="line"/>
      <point x="251" y="0" type="line"/>
      <point x="251" y="58" type="line"/>
      <point x="168" y="79" type="line"/>
      <point x="220" y="234" type="line"/>
      <point x="464" y="234" type="line"/>
    </contour>
    <contour>
      <point x="343" y="598" type="line"/>
      <point x="347" y="598" type="line"/>
      <point x="440" y="307" type="line"/>
      <point x="245" y="307" type="line"/>
    </contour>
    <contour>
      <point x="365" y="720" type="move" name="topcap"/>
    </contour>
    <contour>
      <point x="599" y="0" type="move" name="bottom"/>
    </contour>
  </outline>
</glyph>
<glyph name="B" format="1">
  <advance width="697"/>
  <unicode hex="0042"/>
  <outline>
    <contour>
      <point x="624" y="547" type="curve" smooth="yes"/>
      <point x="624" y="592"/>
      <point x="604" y="637"/>
      <point x="569" y="669" type="curve" smooth="yes"/>
      <point x="530" y="704"/>
      <point x="478" y="720"/>
      <point x="407" y="720" type="curve" smooth="yes"/>
      <point x="41" y="720" type="line"/>
      <point x="41" y="662" type="line"/>
      <point x="125" y="641" type="line"/>
      <point x="125" y="79" type="line"/>
      <point x="41" y="58" type="line"/>
      <point x="41" y="0" type="line"/>
      <point x="370" y="0" type="line" smooth="yes"/>
      <point x="469" y="0"/>
      <point x="517" y="8"/>
      <point x="554" y="27" type="curve" smooth="yes"/>
      <point x="614" y="57"/>
      <point x="658" y="126"/>
      <point x="658" y="201" type="curve" smooth="yes"/>
      <point x="658" y="298"/>
      <point x="594" y="368"/>
      <point x="490" y="390" type="curve"/>
      <point x="490" y="394" type="line"/>
      <point x="567" y="404"/>
      <point x="624" y="470"/>
    </contour>
    <contour>
      <point x="353" y="339" type="line" smooth="yes"/>
      <point x="411" y="339"/>
      <point x="447" y="329"/>
      <point x="471" y="310" type="curve" smooth="yes"/>
      <point x="498" y="289"/>
      <point x="517" y="257"/>
      <point x="517" y="211" type="curve" smooth="yes"/>
      <point x="517" y="158"/>
      <point x="492" y="114"/>
      <point x="456" y="96" type="curve" smooth="yes"/>
      <point x="431" y="81"/>
      <point x="396" y="75"/>
      <point x="335" y="75" type="curve" smooth="yes"/>
      <point x="255" y="75" type="line"/>
      <point x="255" y="339" type="line"/>
    </contour>
    <contour>
      <point x="255" y="647" type="line"/>
      <point x="354" y="647" type="line" smooth="yes"/>
      <point x="400" y="647"/>
      <point x="433" y="637"/>
      <point x="453" y="617" type="curve" smooth="yes"/>
      <point x="473" y="599"/>
      <point x="490" y="569"/>
      <point x="490" y="532" type="curve" smooth="yes"/>
      <point x="490" y="495"/>
      <point x="473" y="465"/>
      <point x="453" y="447" type="curve" smooth="yes"/>
      <point x="431" y="424"/>
      <point x="396" y="412"/>
      <point x="350" y="412" type="curve" smooth="yes"/>
      <point x="255" y="412" type="line"/>
    </contour>
  </outline>
</glyph>
<glyph name="C" format="1">
  <advance width="698"/>
  <unicode hex="0043"/>
  <outline>
    <contour>
      <point x="377" y="661" type="curve" smooth="yes"/>
      <point x="475" y="661"/>
      <point x="543" y="601"/>
      <point x="562" y="484" type="curve"/>
      <point x="653" y="484" type="line"/>
      <point x="653" y="720" type="line"/>
      <point x="568" y="720" type="line"/>
      <point x="548" y="657" type="line"/>
      <point x="497" y="712"/>
      <point x="453" y="730"/>
      <point x="370" y="730" type="curve" smooth="yes"/>
      <point x="285" y="730"/>
      <point x="221" y="710"/>
      <point x="169" y="667" type="curve" smooth="yes"/>
      <point x="89" y="601"/>
      <point x="43" y="487"/>
      <point x="43" y="353" type="curve" smooth="yes"/>
      <point x="43" y="234"/>
      <point x="79" y="134"/>
      <point x="144" y="70" type="curve" smooth="yes"/>
      <point x="198" y="17"/>
      <point x="272" y="-10"/>
      <point x="364" y="-10" type="curve" smooth="yes"/>
      <point x="536" y="-10"/>
      <point x="635" y="71"/>
      <point x="668" y="238" type="curve"/>
      <point x="583" y="238" type="line"/>
      <point x="564" y="127"/>
      <point x="498" y="69"/>
      <point x="386" y="69" type="curve" smooth="yes"/>
      <point x="323" y="69"/>
      <point x="271" y="89"/>
      <point x="242" y="135" type="curve" smooth="yes"/>
      <point x="206" y="191"/>
      <point x="185" y="277"/>
      <point x="185" y="372" type="curve" smooth="yes"/>
      <point x="185" y="467"/>
      <point x="213" y="547"/>
      <point x="249" y="599" type="curve" smooth="yes"/>
      <point x="277" y="639"/>
      <point x="326" y="661"/>
    </contour>
    <contour>
      <point x="387" y="720" type="move" name="topcap"/>
    </contour>
    <contour>
      <point x="382" y="0" type="move" name="bottom"/>
    </contour>
  </outline>
</glyph>
<glyph name="D" format="1">
  <advance width="779"/>
  <unicode hex="0044"/>
  <outline>
    <contour>
      <point x="255" y="75" type="line"/>
      <point x="255" y="645" type="line"/>
      <point x="370" y="645" type="line" smooth="yes"/>
      <point x="447" y="645"/>
      <point x="500" y="620"/>
      <point x="536" y="571" type="curve" smooth="yes"/>
      <point x="572" y="522"/>
      <point x="591" y="450"/>
      <point x="591" y="354" type="curve" smooth="yes"/>
      <point x="591" y="256"/>
      <point x="572" y="186"/>
      <point x="536" y="141" type="curve" smooth="yes"/>
      <point x="501" y="97"/>
      <point x="452" y="75"/>
      <point x="380" y="75" type="curve" smooth="yes"/>
    </contour>
    <contour>
      <point x="41" y="720" type="line"/>
      <point x="41" y="662" type="line"/>
      <point x="125" y="641" type="line"/>
      <point x="125" y="79" type="line"/>
      <point x="41" y="58" type="line"/>
      <point x="41" y="0" type="line"/>
      <point x="398" y="0" type="line" smooth="yes"/>
      <point x="504" y="0"/>
      <point x="580" y="28"/>
      <point x="636" y="87" type="curve" smooth="yes"/>
      <point x="699" y="153"/>
      <point x="736" y="256"/>
      <point x="736" y="368" type="curve" smooth="yes"/>
      <point x="736" y="474"/>
      <point x="701" y="572"/>
      <point x="639" y="636" type="curve" smooth="yes"/>
      <point x="583" y="693"/>
      <point x="508" y="720"/>
      <point x="407" y="720" type="curve" smooth="yes"/>
    </contour>
    <contour>
      <point x="335" y="720" type="move" name="topcap"/>
    </contour>
    <contour>
      <point x="335" y="0" type="move" name="bottom"/>
    </contour>
  </outline>
</glyph>
<glyph name="E" format="2">
  <advance width="698"/>
  <unicode hex="0045"/>
  <anchor x="354" y="720" name="topcap"/>
  <anchor x="361" y="0" name="bottom"/>
  <outline>
    <contour>
      <point x="495" y="238" type="line"/>
      <point x="495" y="502" type="line"/>
      <point x="414" y="502" type="line"/>
      <point x="397" y="407" type="line"/>
      <point x="260" y="407" type="line"/>
      <point x="260" y="647" type="line"/>
      <point x="518" y="647" type="line"/>
      <point x="547" y="508" type="line"/>
      <point x="629" y="508" type="line"/>
      <point x="629" y="720" type="line"/>
      <point x="36" y="720" type="line"/>
      <point x="36" y="662" type="line"/>
      <point x="130" y="641" type="line"/>
      <point x="130" y="79" type="line"/>
      <point x="36" y="58" type="line"/>
      <point x="36" y="0" type="line"/>
      <point x="651" y="0" type="line"/>
      <point x="651" y="223" type="line"/>
      <point x="563" y="223" type="line"/>
      <point x="535" y="75" type="line"/>
      <point x="260" y="75" type="line"/>
      <point x="260" y="332" type="line"/>
      <point x="397" y="332" type="line"/>
      <point x="414" y="238" type="line"/>
    </contour>
  </outline>
</glyph>
<glyph name="F" format="2">
  <advance width="650"/>
  <unicode hex="0046"/>
  <outline>
    <contour>
      <point x="496" y="227" type="line"/>
      <point x="496" y="491" type="line"/>
      <point x="415" y="491" type="line"/>
      <point x="398" y="396" type="line"/>
      <point x="261" y="396" type="line"/>
      <point x="261" y="647" type="line"/>
      <point x="514" y="647" type="line"/>
      <point x="546" y="506" type="line"/>
      <point x="630" y="506" type="line"/>
      <point x="630" y="720" type="line"/>
      <point x="37" y="720" type="line"/>
      <point x="37" y="662" type="line"/>
      <point x="131" y="641" type="line"/>
      <point x="131" y="82" type="line"/>
      <point x="37" y="58" type="line"/>
      <point x="37" y="0" type="line"/>
      <point x="378" y="0" type="line"/>
      <point x="378" y="63" type="line"/>
      <point x="261" y="82" type="line"/>
      <point x="261" y="321" type="line"/>
      <point x="398" y="321" type="line"/>
      <point x="415" y="227" type="line"/>
    </contour>
  </outline>
</glyph>
<glyph name="G" format="2">
  <advance width="765"/>
  <unicode hex="0047"/>
  <anchor x="379" y="720" name="topcap"/>
  <anchor x="378" y="0" name="bottom"/>
  <outline>
    <contour>
      <point x="378" y="70" type="curve" smooth="yes"/>
      <point x="325" y="70"/>
      <point x="278" y="86"/>
      <point x="251" y="122" type="curve" smooth="yes"/>
      <point x="208" y="180"/>
      <point x="184" y="272"/>
      <point x="184" y="366" type="curve" smooth="yes"/>
      <point x="184" y="462"/>
      <point x="213" y="547"/>
      <point x="250" y="603" type="curve" smooth="yes"/>
      <point x="279" y="640"/>
      <point x="317" y="661"/>
      <point x="377" y="661" type="curve" smooth="yes"/>
      <point x="484" y="661"/>
      <point x="544" y="591"/>
      <point x="562" y="484" type="curve"/>
      <point x="653" y="484" type="line"/>
      <point x="653" y="720" type="line"/>
      <point x="568" y="720" type="line"/>
      <point x="548" y="658" type="line"/>
      <point x="498" y="711"/>
      <point x="453" y="730"/>
      <point x="373" y="730" type="curve" smooth="yes"/>
      <point x="271" y="730"/>
      <point x="198" y="701"/>
      <point x="144" y="644" type="curve" smooth="yes"/>
      <point x="80" y="577"/>
      <point x="43" y="470"/>
      <point x="43" y="352" type="curve" smooth="yes"/>
      <point x="43" y="236"/>
      <point x="78" y="137"/>
      <point x="140" y="74" type="curve" smooth="yes"/>
      <point x="194" y="19"/>
      <point x="269" y="-10"/>
      <point x="359" y="-10" type="curve" smooth="yes"/>
      <point x="443" y="-10"/>
      <point x="500" y="15"/>
      <point x="558" y="79" type="curve"/>
      <point x="583" y="0" type="line"/>
      <point x="665" y="0" type="line"/>
      <point x="665" y="278" type="line"/>
      <point x="749" y="299" type="line"/>
      <point x="749" y="359" type="line"/>
      <point x="451" y="359" type="line"/>
      <point x="451" y="299" type="line"/>
      <point x="535" y="278" type="line"/>
      <point x="535" y="238" type="line" smooth="yes"/>
      <point x="535" y="127"/>
      <point x="491" y="70"/>
    </contour>
  </outline>
</glyph>
<glyph name="H" format="1">
  <advance width="819"/>
  <unicode hex="0048"/>
  <outline>
    <contour>
      <point x="694" y="641" type="line"/>
      <point x="778" y="662" type="line"/>
      <point x="778" y="720" type="line"/>
      <point x="480" y="720" type="line"/>
      <point x="480" y="662" type="line"/>
      <point x="564" y="641" type="line"/>
      <point x="564" y="406" type="line"/>
      <point x="255" y="406" type="line"/>
      <point x="255" y="641" type="line"/>
      <point x="339" y="662" type="line"/>
      <point x="339" y="720" type="line"/>
      <point x="41" y="720" type="line"/>
      <point x="41" y="662" type="line"/>
      <point x="125" y="641" type="line"/>
      <point x="125" y="79" type="line"/>
      <point x="41" y="58" type="line"/>
      <point x="41" y="0" type="line"/>
      <point x="339" y="0" type="line"/>
      <point x="339" y="58" type="line"/>
      <point x="255" y="79" type="line"/>
      <point x="255" y="333" type="line"/>
      <point x="564" y="333" type="line"/>
      <point x="564" y="79" type="line"/>
      <point x="480" y="58" type="line"/>
      <point x="480" y="0" type="line"/>
      <point x="778" y="0" type="line"/>
      <point x="778" y="58" type="line"/>
      <point x="694" y="79" type="line"/>
    </contour>
    <contour>
      <point x="413" y="720" type="move" name="topcap"/>
    </contour>
    <contour>
      <point x="412" y="0" type="move" name="bottom"/>
    </contour>
  </outline>
</glyph>
<glyph name="I" format="1">
  <advance width="390"/>
  <unicode hex="0049"/>
  <outline>
    <contour>
      <point x="260" y="641" type="line"/>
      <point x="354" y="662" type="line"/>
      <point x="354" y="720" type="line"/>
      <point x="36" y="720" type="line"/>
      <point x="36" y="662" type="line"/>
      <point x="130" y="641" type="line"/>
      <point x="130" y="79" type="line"/>
      <point x="36" y="58" type="line"/>
      <point x="36" y="0" type="line"/>
      <point x="354" y="0" type="line"/>
      <point x="354" y="58" type="line"/>
      <point x="260" y="79" type="line"/>
    </contour>
    <contour>
      <point x="195" y="720" type="move" name="topcap"/>
    </contour>
    <contour>
      <point x="196" y="0" type="move" name="bottom"/>
    </contour>
  </outline>
</glyph>
<glyph name="J" format="2">
  <advance width="597"/>
  <unicode hex="004A"/>
  <anchor x="422" y="720" name="topcap"/>
  <outline>
    <contour>
      <point x="355" y="207" type="line" smooth="yes"/>
      <point x="355" y="110"/>
      <point x="313" y="62"/>
      <point x="240" y="62" type="curve" smooth="yes"/>
      <point x="169" y="62"/>
      <point x="131" y="88"/>
      <point x="124" y="123" type="curve"/>
      <point x="147" y="134"/>
      <point x="167" y="170"/>
      <point x="167" y="201" type="curve" smooth="yes"/>
      <point x="167" y="245"/>
      <point x="135" y="274"/>
      <point x="88" y="274" type="curve" smooth="yes"/>
      <point x="35" y="274"/>
      <point x="8" y="231"/>
      <point x="8" y="170" type="curve" smooth="yes"/>
      <point x="8" y="62"/>
      <point x="106" y="-11"/>
      <point x="249" y="-11" type="curve" smooth="yes"/>
      <point x="391" y="-11"/>
      <point x="485" y="80"/>
      <point x="485" y="218" type="curve" smooth="yes"/>
      <point x="485" y="641" type="line"/>
      <point x="564" y="662" type="line"/>
      <point x="564" y="720" type="line"/>
      <point x="256" y="720" type="line"/>
      <point x="256" y="662" type="line"/>
      <point x="355" y="641" type="line"/>
    </contour>
  </outline>
</glyph>
<glyph name="K" format="1">
  <advance width="747"/>
  <unicode hex="004B"/>
  <outline>
    <contour>
      <point x="260" y="641" type="line"/>
      <point x="344" y="662" type="line"/>
      <point x="344" y="720" type="line"/>
      <point x="36" y="720" type="line"/>
      <point x="36" y="662" type="line"/>
      <point x="130" y="641" type="line"/>
      <point x="130" y="79" type="line"/>
      <point x="36" y="58" type="line"/>
      <point x="36" y="0" type="line"/>
      <point x="344" y="0" type="line"/>
      <point x="344" y="58" type="line"/>
      <point x="260" y="79" type="line"/>
      <point x="260" y="296" type="line"/>
      <point x="306" y="340" type="line"/>
      <point x="518" y="78" type="line"/>
      <point x="452" y="58" type="line"/>
      <point x="452" y="0" type="line"/>
      <point x="761" y="0" type="line"/>
      <point x="761" y="58" type="line"/>
      <point x="677" y="77" type="line"/>
      <point x="390" y="424" type="line"/>
      <point x="609" y="641" type="line"/>
      <point x="697" y="662" type="line"/>
      <point x="697" y="720" type="line"/>
      <point x="404" y="720" type="line"/>
      <point x="404" y="662" type="line"/>
      <point x="495" y="641" type="line"/>
      <point x="260" y="397" type="line"/>
    </contour>
    <contour>
      <point x="393" y="0" type="move" name="bottom"/>
    </contour>
  </outline>
</glyph>
<glyph name="L" format="2">
  <advance width="645"/>
  <unicode hex="004C"/>
  <anchor x="194" y="720" name="topcap"/>
  <anchor x="342" y="0" name="bottom"/>
  <outline>
    <contour>
      <point x="260" y="641" type="line"/>
      <point x="364" y="662" type="line"/>
      <point x="364" y="720" type="line"/>
      <point x="36" y="720" type="line"/>
      <point x="36" y="662" type="line"/>
      <point x="130" y="641" type="line"/>
      <point x="130" y="79" type="line"/>
      <point x="36" y="58" type="line"/>
      <point x="36" y="0" type="line"/>
      <point x="621" y="0" type="line"/>
      <point x="621" y="248" type="line"/>
      <point x="536" y="248" type="line"/>
      <point x="502" y="75" type="line"/>
      <point x="260" y="75" type="line"/>
    </contour>
  </outline>
</glyph>
<glyph name="M" format="2">
  <advance width="977"/>
  <unicode hex="004D"/>
  <outline>
    <contour>
      <point x="486" y="106" type="line"/>
      <point x="482" y="106" type="line"/>
      <point x="309" y="720" type="line"/>
      <point x="41" y="720" type="line"/>
      <point x="41" y="662" type="line"/>
      <point x="125" y="641" type="line"/>
      <point x="125" y="79" type="line"/>
      <point x="41" y="58" type="line"/>
      <point x="41" y="0" type="line"/>
      <point x="293" y="0" type="line"/>
      <point x="293" y="58" type="line"/>
      <point x="220" y="79" type="line"/>
      <point x="220" y="640" type="line"/>
      <point x="398" y="0" type="line"/>
      <point x="540" y="0" type="line"/>
      <point x="722" y="640" type="line"/>
      <point x="722" y="79" type="line"/>
      <point x="649" y="58" type="line"/>
      <point x="649" y="0" type="line"/>
      <point x="936" y="0" type="line"/>
      <point x="936" y="58" type="line"/>
      <point x="852" y="79" type="line"/>
      <point x="852" y="641" type="line"/>
      <point x="936" y="662" type="line"/>
      <point x="936" y="720" type="line"/>
      <point x="672" y="720" type="line"/>
    </contour>
  </outline>
</glyph>
<glyph name="N" format="1">
  <advance width="817"/>
  <unicode hex="004E"/>
  <outline>
    <contour>
      <point x="125" y="79" type="line"/>
      <point x="41" y="58" type="line"/>
      <point x="41" y="0" type="line"/>
      <point x="304" y="0" type="line"/>
      <point x="304" y="58" type="line"/>
      <point x="220" y="79" type="line"/>
      <point x="220" y="574" type="line"/>
      <point x="590" y="0" type="line"/>
      <point x="701" y="0" type="line"/>
      <point x="701" y="641" type="line"/>
      <point x="785" y="662" type="line"/>
      <point x="785" y="720" type="line"/>
      <point x="522" y="720" type="line"/>
      <point x="522" y="662" type="line"/>
      <point x="606" y="641" type="line"/>
      <point x="606" y="192" type="line"/>
      <point x="272" y="720" type="line"/>
      <point x="41" y="720" type="line"/>
      <point x="41" y="662" type="line"/>
      <point x="125" y="641" type="line"/>
    </contour>
    <contour>
      <point x="408" y="720" type="move" name="topcap"/>
    </contour>
    <contour>
      <point x="408" y="0" type="move" name="bottom"/>
    </contour>
  </outline>
</glyph>
<glyph name="O" format="1">
  <advance width="774"/>
  <unicode hex="004F"/>
  <outline>
    <contour>
      <point x="731" y="368" type="curve" smooth="yes"/>
      <point x="731" y="473"/>
      <point x="703" y="577"/>
      <point x="634" y="646" type="curve" smooth="yes"/>
      <point x="574" y="705"/>
      <point x="494" y="730"/>
      <point x="387" y="730" type="curve" smooth="yes"/>
      <point x="275" y="730"/>
      <point x="199" y="703"/>
      <point x="143" y="643" type="curve" smooth="yes"/>
      <point x="80" y="575"/>
      <point x="43" y="468"/>
      <point x="43" y="352" type="curve" smooth="yes"/>
      <point x="43" y="235"/>
      <point x="81" y="134"/>
      <point x="139" y="74" type="curve" smooth="yes"/>
      <point x="193" y="18"/>
      <point x="272" y="-10"/>
      <point x="384" y="-10" type="curve" smooth="yes"/>
      <point x="496" y="-10"/>
      <point x="574" y="18"/>
      <point x="631" y="77" type="curve" smooth="yes"/>
      <point x="700" y="149"/>
      <point x="731" y="257"/>
    </contour>
    <contour>
      <point x="188" y="371" type="curve" smooth="yes"/>
      <point x="188" y="470"/>
      <point x="207" y="546"/>
      <point x="244" y="595" type="curve" smooth="yes"/>
      <point x="275" y="636"/>
      <point x="320" y="661"/>
      <point x="383" y="661" type="curve" smooth="yes"/>
      <point x="445" y="661"/>
      <point x="496" y="637"/>
      <point x="531" y="587" type="curve" smooth="yes"/>
      <point x="566" y="537"/>
      <point x="586" y="459"/>
      <point x="586" y="354" type="curve" smooth="yes"/>
      <point x="586" y="248"/>
      <point x="566" y="173"/>
      <point x="532" y="126" type="curve" smooth="yes"/>
      <point x="500" y="82"/>
      <point x="454" y="60"/>
      <point x="390" y="60" type="curve" smooth="yes"/>
      <point x="320" y="60"/>
      <point x="274" y="86"/>
      <point x="242" y="135" type="curve" smooth="yes"/>
      <point x="209" y="186"/>
      <point x="188" y="267"/>
    </contour>
    <contour>
      <point x="387" y="720" type="move" name="topcap"/>
    </contour>
    <contour>
      <point x="385" y="0" type="move" name="bottom"/>
    </contour>
  </outline>
</glyph>
<glyph name="P" format="1">
  <advance width="645"/>
  <unicode hex="0050"/>
  <outline>
    <contour>
      <point x="255" y="348" type="line"/>
      <point x="255" y="647" type="line"/>
      <point x="345" y="647" type="line" smooth="yes"/>
      <point x="383" y="647"/>
      <point x="418" y="633"/>
      <point x="440" y="611" type="curve" smooth="yes"/>
      <point x="468" y="582"/>
      <point x="488" y="537"/>
      <point x="488" y="493" type="curve" smooth="yes"/>
      <point x="488" y="444"/>
      <point x="467" y="405"/>
      <point x="440" y="379" type="curve" smooth="yes"/>
      <point x="421" y="360"/>
      <point x="386" y="348"/>
      <point x="349" y="348" type="curve" smooth="yes"/>
    </contour>
    <contour>
      <point x="401" y="275" type="line" smooth="yes"/>
      <point x="461" y="275"/>
      <point x="515" y="289"/>
      <point x="550" y="325" type="curve" smooth="yes"/>
      <point x="596" y="366"/>
      <point x="628" y="440"/>
      <point x="628" y="506" type="curve" smooth="yes"/>
      <point x="628" y="570"/>
      <point x="598" y="630"/>
      <point x="552" y="672" type="curve" smooth="yes"/>
      <point x="518" y="703"/>
      <point x="464" y="720"/>
      <point x="402" y="720" type="curve" smooth="yes"/>
      <point x="41" y="720" type="line"/>
      <point x="41" y="662" type="line"/>
      <point x="125" y="641" type="line"/>
      <point x="125" y="79" type="line"/>
      <point x="41" y="58" type="line"/>
      <point x="41" y="0" type="line"/>
      <point x="350" y="0" type="line"/>
      <point x="350" y="58" type="line"/>
      <point x="255" y="79" type="line"/>
      <point x="255" y="275" type="line"/>
    </contour>
  </outline>
</glyph>
<glyph name="Q" format="1">
  <advance width="774"/>
  <unicode hex="0051"/>
  <outline>
    <contour>
      <point x="731" y="368" type="curve" smooth="yes"/>
      <point x="731" y="480"/>
      <point x="697" y="583"/>
      <point x="634" y="646" type="curve" smooth="yes"/>
      <point x="576" y="704"/>
      <point x="495" y="730"/>
      <point x="387" y="730" type="curve" smooth="yes"/>
      <point x="278" y="730"/>
      <point x="202" y="704"/>
      <point x="143" y="643" type="curve" smooth="yes"/>
      <point x="79" y="576"/>
      <point x="43" y="468"/>
      <point x="43" y="352" type="curve" smooth="yes"/>
      <point x="43" y="239"/>
      <point x="78" y="138"/>
      <point x="139" y="74" type="curve" smooth="yes"/>
      <point x="186" y="25"/>
      <point x="250" y="-2"/>
      <point x="331" y="-8" type="curve"/>
      <point x="391" y="-109" type="line" smooth="yes"/>
      <point x="421" y="-160"/>
      <point x="480" y="-185"/>
      <point x="554" y="-185" type="curve" smooth="yes"/>
      <point x="618" y="-185"/>
      <point x="665" y="-165"/>
      <point x="693" y="-114" type="curve"/>
      <point x="671" y="-74" type="line"/>
      <point x="648" y="-96"/>
      <point x="636" y="-103"/>
      <point x="611" y="-103" type="curve" smooth="yes"/>
      <point x="583" y="-103"/>
      <point x="554" y="-95"/>
      <point x="530" y="-79" type="curve" smooth="yes"/>
      <point x="433" y="-13" type="line"/>
      <point x="433" y="-9" type="line"/>
      <point x="515" y="-3"/>
      <point x="581" y="24"/>
      <point x="631" y="77" type="curve" smooth="yes"/>
      <point x="695" y="145"/>
      <point x="731" y="252"/>
    </contour>
    <contour>
      <point x="188" y="374" type="curve" smooth="yes"/>
      <point x="188" y="476"/>
      <point x="206" y="550"/>
      <point x="243" y="595" type="curve" smooth="yes"/>
      <point x="274" y="639"/>
      <point x="320" y="661"/>
      <point x="384" y="661" type="curve" smooth="yes"/>
      <point x="451" y="661"/>
      <point x="499" y="637"/>
      <point x="531" y="587" type="curve" smooth="yes"/>
      <point x="567" y="538"/>
      <point x="586" y="457"/>
      <point x="586" y="354" type="curve" smooth="yes"/>
      <point x="586" y="250"/>
      <point x="567" y="172"/>
      <point x="531" y="126" type="curve" smooth="yes"/>
      <point x="501" y="82"/>
      <point x="454" y="60"/>
      <point x="389" y="60" type="curve" smooth="yes"/>
      <point x="320" y="60"/>
      <point x="272" y="84"/>
      <point x="242" y="134" type="curve" smooth="yes"/>
      <point x="207" y="183"/>
      <point x="188" y="268"/>
    </contour>
  </outline>
</glyph>
<glyph name="R" format="2">
  <advance width="717"/>
  <unicode hex="0052"/>
  <anchor x="317" y="720" name="topcap"/>
  <anchor x="389" y="0" name="bottom"/>
  <outline>
    <contour>
      <point x="566" y="382" type="curve" smooth="yes"/>
      <point x="612" y="418"/>
      <point x="642" y="476"/>
      <point x="642" y="532" type="curve" smooth="yes"/>
      <point x="642" y="588"/>
      <point x="612" y="648"/>
      <point x="564" y="682" type="curve" smooth="yes"/>
      <point x="526" y="709"/>
      <point x="479" y="720"/>
      <point x="415" y="720" type="curve" smooth="yes"/>
      <point x="41" y="720" type="line"/>
      <point x="41" y="662" type="line"/>
      <point x="125" y="641" type="line"/>
      <point x="125" y="79" type="line"/>
      <point x="41" y="58" type="line"/>
      <point x="41" y="0" type="line"/>
      <point x="350" y="0" type="line"/>
      <point x="350" y="58" type="line"/>
      <point x="255" y="79" type="line"/>
      <point x="255" y="315" type="line"/>
      <point x="351" y="315" type="line"/>
      <point x="482" y="58" type="line"/>
      <point x="482" y="0" type="line"/>
      <point x="718" y="0" type="line"/>
      <point x="718" y="58" type="line"/>
      <point x="629" y="77" type="line"/>
      <point x="505" y="287" type="line" smooth="yes"/>
      <point x="491" y="310"/>
      <point x="475" y="327"/>
      <point x="468" y="334" type="curve"/>
      <point x="514" y="345"/>
      <point x="542" y="363"/>
    </contour>
    <contour>
      <point x="255" y="388" type="line"/>
      <point x="255" y="647" type="line"/>
      <point x="364" y="647" type="line" smooth="yes"/>
      <point x="406" y="647"/>
      <point x="435" y="639"/>
      <point x="458" y="621" type="curve" smooth="yes"/>
      <point x="485" y="599"/>
      <point x="502" y="566"/>
      <point x="502" y="526" type="curve" smooth="yes"/>
      <point x="502" y="482"/>
      <point x="486" y="442"/>
      <point x="459" y="419" type="curve" smooth="yes"/>
      <point x="436" y="399"/>
      <point x="404" y="388"/>
      <point x="368" y="388" type="curve" smooth="yes"/>
    </contour>
  </outline>
</glyph>
<glyph name="S" format="2">
  <advance width="613"/>
  <unicode hex="0053"/>
  <anchor x="295" y="720" name="topcap"/>
  <anchor x="328" y="0" name="bottom"/>
  <outline>
    <contour>
      <point x="322" y="-11" type="curve" smooth="yes"/>
      <point x="459" y="-11"/>
      <point x="568" y="57"/>
      <point x="568" y="191" type="curve" smooth="yes"/>
      <point x="568" y="289"/>
      <point x="509" y="341"/>
      <point x="341" y="417" type="curve" smooth="yes"/>
      <point x="229" y="467"/>
      <point x="192" y="485"/>
      <point x="192" y="555" type="curve" smooth="yes"/>
      <point x="192" y="625"/>
      <point x="228" y="662"/>
      <point x="305" y="662" type="curve" smooth="yes"/>
      <point x="402" y="662"/>
      <point x="448" y="603"/>
      <point x="448" y="478" type="curve"/>
      <point x="535" y="478" type="line"/>
      <point x="535" y="720" type="line"/>
      <point x="449" y="720" type="line"/>
      <point x="441" y="675" type="line"/>
      <point x="399" y="713"/>
      <point x="345" y="731"/>
      <point x="280" y="731" type="curve" smooth="yes"/>
      <point x="147" y="731"/>
      <point x="61" y="657"/>
      <point x="61" y="528" type="curve" smooth="yes"/>
      <point x="61" y="411"/>
      <point x="132" y="366"/>
      <point x="257" y="314" type="curve" smooth="yes"/>
      <point x="364" y="270"/>
      <point x="437" y="239"/>
      <point x="437" y="157" type="curve" smooth="yes"/>
      <point x="437" y="90"/>
      <point x="388" y="59"/>
      <point x="312" y="59" type="curve" smooth="yes"/>
      <point x="217" y="59"/>
      <point x="157" y="108"/>
      <point x="149" y="242" type="curve"/>
      <point x="58" y="242" type="line"/>
      <point x="58" y="0" type="line"/>
      <point x="144" y="0" type="line"/>
      <point x="155" y="58" type="line"/>
      <point x="196" y="10"/>
      <point x="246" y="-11"/>
    </contour>
  </outline>
</glyph>
<glyph name="T" format="1">
  <advance width="674"/>
  <unicode hex="0054"/>
  <outline>
    <contour>
      <point x="24" y="720" type="line"/>
      <point x="24" y="495" type="line"/>
      <point x="88" y="495" type="line"/>
      <point x="119" y="645" type="line"/>
      <point x="272" y="645" type="line"/>
      <point x="272" y="82" type="line"/>
      <point x="166" y="58" type="line"/>
      <point x="166" y="0" type="line"/>
      <point x="508" y="0" type="line"/>
      <point x="508" y="58" type="line"/>
      <point x="402" y="82" type="line"/>
      <point x="402" y="645" type="line"/>
      <point x="554" y="645" type="line"/>
      <point x="586" y="495" type="line"/>
      <point x="650" y="495" type="line"/>
      <point x="650" y="720" type="line"/>
    </contour>
    <contour>
      <point x="335" y="0" type="move" name="bottom"/>
    </contour>
  </outline>
</glyph>
<glyph name="U" format="2">
  <advance width="784"/>
  <unicode hex="0055"/>
  <anchor x="412" y="720" name="topcap"/>
  <anchor x="412" y="0" name="bottom"/>
  <outline>
    <contour>
      <point x="584" y="274" type="line" smooth="yes"/>
      <point x="584" y="123"/>
      <point x="531" y="59"/>
      <point x="406" y="59" type="curve" smooth="yes"/>
      <point x="293" y="59"/>
      <point x="238" y="130"/>
      <point x="238" y="276" type="curve" smooth="yes"/>
      <point x="238" y="641" type="line"/>
      <point x="322" y="662" type="line"/>
      <point x="322" y="720" type="line"/>
      <point x="24" y="720" type="line"/>
      <point x="24" y="662" type="line"/>
      <point x="108" y="641" type="line"/>
      <point x="108" y="244" type="line" smooth="yes"/>
      <point x="108" y="81"/>
      <point x="207" y="-11"/>
      <point x="384" y="-11" type="curve" smooth="yes"/>
      <point x="576" y="-11"/>
      <point x="677" y="77"/>
      <point x="677" y="243" type="curve" smooth="yes"/>
      <point x="677" y="641" type="line"/>
      <point x="761" y="662" type="line"/>
      <point x="761" y="720" type="line"/>
      <point x="500" y="720" type="line"/>
      <point x="500" y="662" type="line"/>
      <point x="584" y="641" type="line"/>
    </contour>
  </outline>
</glyph>
<glyph name="V" format="1">
  <advance width="724"/>
  <unicode hex="0056"/>
  <outline>
    <contour>
      <point x="203" y="641" type="line"/>
      <point x="285" y="662" type="line"/>
      <point x="285" y="720" type="line"/>
      <point x="-15" y="720" type="line"/>
      <point x="-15" y="662" type="line"/>
      <point x="65" y="641" type="line"/>
      <point x="303" y="0" type="line"/>
      <point x="431" y="0" type="line"/>
      <point x="650" y="641" type="line"/>
      <point x="732" y="662" type="line"/>
      <point x="732" y="720" type="line"/>
      <point x="468" y="720" type="line"/>
      <point x="468" y="662" type="line"/>
      <point x="551" y="641" type="line"/>
      <point x="381" y="118" type="line"/>
      <point x="377" y="118" type="line"/>
    </contour>
  </outline>
</glyph>
<glyph name="W" format="2">
  <advance width="1051"/>
  <unicode hex="0057"/>
  <guideline x="0.0" y="127.0" angle="0.0" identifier="PqFDrwD7j7"/>
  <anchor x="529" y="720" name="topcap"/>
  <outline>
    <contour>
      <point x="737" y="127" type="line"/>
      <point x="733" y="127" type="line"/>
      <point x="594" y="641" type="line"/>
      <point x="686" y="662" type="line"/>
      <point x="686" y="720" type="line"/>
      <point x="392" y="720" type="line"/>
      <point x="392" y="662" type="line"/>
      <point x="470" y="641" type="line"/>
      <point x="479" y="596" type="line"/>
      <point x="353" y="128" type="line"/>
      <point x="349" y="128" type="line"/>
      <point x="207" y="641" type="line"/>
      <point x="303" y="662" type="line"/>
      <point x="303" y="720" type="line"/>
      <point x="-11" y="720" type="line"/>
      <point x="-11" y="662" type="line"/>
      <point x="67" y="641" type="line"/>
      <point x="272" y="0" type="line"/>
      <point x="406" y="0" type="line"/>
      <point x="525" y="431" type="line"/>
      <point x="656" y="0" type="line"/>
      <point x="790" y="0" type="line"/>
      <point x="975" y="641" type="line"/>
      <point x="1058" y="662" type="line"/>
      <point x="1058" y="720" type="line"/>
      <point x="799" y="720" type="line"/>
      <point x="799" y="662" type="line"/>
      <point x="878" y="642" type="line"/>
    </contour>
  </outline>
</glyph>
<glyph name="X" format="1">
  <advance width="742"/>
  <unicode hex="0058"/>
  <outline>
    <contour>
      <point x="356" y="662" type="line"/>
      <point x="356" y="720" type="line"/>
      <point x="9" y="720" type="line"/>
      <point x="9" y="662" type="line"/>
      <point x="115" y="641" type="line"/>
      <point x="301" y="358" type="line"/>
      <point x="101" y="79" type="line"/>
      <point x="8" y="58" type="line"/>
      <point x="8" y="0" type="line"/>
      <point x="310" y="0" type="line"/>
      <point x="310" y="58" type="line"/>
      <point x="201" y="79" type="line"/>
      <point x="351" y="293" type="line"/>
      <point x="485" y="79" type="line"/>
      <point x="382" y="58" type="line"/>
      <point x="384" y="0" type="line"/>
      <point x="741" y="0" type="line"/>
      <point x="741" y="58" type="line"/>
      <point x="635" y="79" type="line"/>
      <point x="430" y="386" type="line"/>
      <point x="626" y="641" type="line"/>
      <point x="724" y="662" type="line"/>
      <point x="724" y="720" type="line"/>
      <point x="431" y="720" type="line"/>
      <point x="431" y="662" type="line"/>
      <point x="522" y="641" type="line"/>
      <point x="379" y="452" type="line"/>
      <point x="262" y="641" type="line"/>
    </contour>
  </outline>
</glyph>
<glyph name="Y" format="1">
  <advance width="682"/>
  <unicode hex="0059"/>
  <outline>
    <contour>
      <point x="360" y="363" type="line"/>
      <point x="212" y="641" type="line"/>
      <point x="296" y="662" type="line"/>
      <point x="296" y="720" type="line"/>
      <point x="-10" y="720" type="line"/>
      <point x="-10" y="662" type="line"/>
      <point x="73" y="641" type="line"/>
      <point x="280" y="266" type="line"/>
      <point x="280" y="79" type="line"/>
      <point x="186" y="58" type="line"/>
      <point x="186" y="0" type="line"/>
      <point x="504" y="0" type="line"/>
      <point x="504" y="58" type="line"/>
      <point x="410" y="79" type="line"/>
      <point x="410" y="282" type="line"/>
      <point x="606" y="641" type="line"/>
      <point x="688" y="662" type="line"/>
      <point x="688" y="720" type="line"/>
      <point x="431" y="720" type="line"/>
      <point x="431" y="662" type="line"/>
      <point x="512" y="641" type="line"/>
    </contour>
    <contour>
      <point x="361" y="721" type="move" name="topcap"/>
    </contour>
  </outline>
</glyph>
<glyph name="Z" format="1">
  <advance width="659"/>
  <unicode hex="005A"/>
  <outline>
    <contour>
      <point x="502" y="75" type="line"/>
      <point x="183" y="75" type="line"/>
      <point x="598" y="659" type="line"/>
      <point x="598" y="720" type="line"/>
      <point x="59" y="720" type="line"/>
      <point x="59" y="493" type="line"/>
      <point x="141" y="493" type="line"/>
      <point x="173" y="645" type="line"/>
      <point x="443" y="645" type="line"/>
      <point x="28" y="61" type="line"/>
      <point x="28" y="0" type="line"/>
      <point x="621" y="0" type="line"/>
      <point x="621" y="238" type="line"/>
      <point x="534" y="238" type="line"/>
    </contour>
    <contour>
      <point x="335" y="720" type="move" name="topcap"/>
    </contour>
    <contour>
      <point x="342" y="0" type="move" name="bottom"/>
    </contour>
  </outline>
</glyph>
<glyph name="bracketleft" format="1">
  <advance width="383"/>
  <unicode hex="005B"/>
  <outline>
    <contour>
      <point x="84" y="-149" type="line"/>
      <point x="365" y="-149" type="line"/>
      <point x="365" y="-75" type="line"/>
      <point x="203" y="-75" type="line"/>
      <point x="203" y="780" type="line"/>
      <point x="365" y="780" type="line"/>
      <point x="365" y="855" type="line"/>
      <point x="84" y="855" type="line"/>
    </contour>
  </outline>
</glyph>
<glyph name="backslash" format="2">
  <advance width="321"/>
  <unicode hex="005C"/>
  <outline>
    <contour>
      <point x="131" y="730" type="line"/>
      <point x="44" y="730" type="line"/>
      <point x="190" y="-10" type="line"/>
      <point x="277" y="-10" type="line"/>
    </contour>
  </outline>
</glyph>
<glyph name="bracketright" format="2">
  <advance width="383"/>
  <unicode hex="005D"/>
  <outline>
    <contour>
      <point x="299" y="855" type="line"/>
      <point x="18" y="855" type="line"/>
      <point x="18" y="780" type="line"/>
      <point x="180" y="780" type="line"/>
      <point x="180" y="-75" type="line"/>
      <point x="18" y="-75" type="line"/>
      <point x="18" y="-149" type="line"/>
      <point x="299" y="-149" type="line"/>
    </contour>
  </outline>
</glyph>
<glyph name="asciicircum" format="1">
  <advance width="392"/>
  <unicode hex="005E"/>
  <outline>
    <contour>
      <point x="347" y="639" type="line"/>
      <point x="264" y="639" type="line"/>
      <point x="196" y="715" type="line"/>
      <point x="128" y="639" type="line"/>
      <point x="45" y="639" type="line"/>
      <point x="133" y="790" type="line"/>
      <point x="258" y="790" type="line"/>
    </contour>
    <contour>
      <point x="196" y="639" type="move" name="_top"/>
    </contour>
  </outline>
</glyph>
<glyph name="underscore" format="2">
  <advance width="614"/>
  <unicode hex="005F"/>
  <outline>
    <contour>
      <point x="60" y="-73" type="line"/>
      <point x="554" y="-73" type="line"/>
      <point x="554" y="15" type="line"/>
      <point x="60" y="15" type="line"/>
    </contour>
  </outline>
</glyph>
<glyph name="grave" format="1">
  <advance width="259"/>
  <unicode hex="0060"/>
  <outline>
    <contour>
      <point x="185" y="715" type="line"/>
      <point x="144" y="778"/>
      <point x="123" y="796"/>
      <point x="85" y="796" type="curve" smooth="yes"/>
      <point x="42" y="796"/>
      <point x="29" y="776"/>
      <point x="29" y="754" type="curve" smooth="yes"/>
      <point x="29" y="734"/>
      <point x="49" y="713"/>
      <point x="113" y="667" type="curve" smooth="yes"/>
      <point x="151" y="639" type="line"/>
      <point x="234" y="639" type="line"/>
    </contour>
    <contour>
      <point x="191" y="639" type="move" name="_top"/>
    </contour>
  </outline>
</glyph>
<glyph name="a" format="2">
  <advance width="549"/>
  <unicode hex="0061"/>
  <anchor x="251" y="639" name="top"/>
  <anchor x="429" y="0" name="bottom"/>
  <outline>
    <contour>
      <point x="30" y="118" type="curve" smooth="yes"/>
      <point x="30" y="38"/>
      <point x="81" y="-10"/>
      <point x="165" y="-10" type="curve" smooth="yes"/>
      <point x="243" y="-10"/>
      <point x="316" y="31"/>
      <point x="357" y="99" type="curve"/>
      <point x="361" y="99" type="line"/>
      <point x="361" y="12"/>
      <point x="372" y="-10"/>
      <point x="416" y="-10" type="curve" smooth="yes"/>
      <point x="446" y="-10"/>
      <point x="495" y="0"/>
      <point x="555" y="19" type="curve"/>
      <point x="555" y="64" type="line"/>
      <point x="510" y="64" type="line" smooth="yes"/>
      <point x="481" y="64"/>
      <point x="475" y="85"/>
      <point x="475" y="151" type="curve" smooth="yes"/>
      <point x="475" y="281" type="line" smooth="yes"/>
      <point x="475" y="383"/>
      <point x="449" y="456"/>
      <point x="396" y="503" type="curve" smooth="yes"/>
      <point x="365" y="530"/>
      <point x="313" y="550"/>
      <point x="251" y="550" type="curve" smooth="yes"/>
      <point x="158" y="550"/>
      <point x="57" y="503"/>
      <point x="57" y="421" type="curve" smooth="yes"/>
      <point x="57" y="380"/>
      <point x="82" y="349"/>
      <point x="124" y="349" type="curve" smooth="yes"/>
      <point x="165" y="349"/>
      <point x="199" y="380"/>
      <point x="199" y="413" type="curve" smooth="yes"/>
      <point x="199" y="427"/>
      <point x="192" y="451"/>
      <point x="174" y="461" type="curve"/>
      <point x="182" y="480"/>
      <point x="208" y="491"/>
      <point x="236" y="491" type="curve" smooth="yes"/>
      <point x="274" y="491"/>
      <point x="298" y="471"/>
      <point x="316" y="440" type="curve" smooth="yes"/>
      <point x="331" y="414"/>
      <point x="339" y="383"/>
      <point x="345" y="317" type="curve"/>
      <point x="127" y="283"/>
      <point x="30" y="228"/>
    </contour>
    <contour>
      <point x="226" y="63" type="curve" smooth="yes"/>
      <point x="195" y="63"/>
      <point x="163" y="85"/>
      <point x="163" y="143" type="curve" smooth="yes"/>
      <point x="163" y="211"/>
      <point x="206" y="243"/>
      <point x="344" y="273" type="curve"/>
      <point x="346" y="255"/>
      <point x="348" y="234"/>
      <point x="348" y="218" type="curve" smooth="yes"/>
      <point x="348" y="170"/>
      <point x="331" y="135"/>
      <point x="317" y="116" type="curve" smooth="yes"/>
      <point x="292" y="82"/>
      <point x="254" y="63"/>
    </contour>
  </outline>
</glyph>
<glyph name="b" format="2">
  <advance width="615"/>
  <unicode hex="0062"/>
  <guideline x="78.0" y="0.0" angle="90.0" identifier="XaOBz1qFcl"/>
  <outline>
    <contour>
      <point x="577" y="275" type="curve" smooth="yes"/>
      <point x="577" y="360"/>
      <point x="553" y="436"/>
      <point x="512" y="487" type="curve" smooth="yes"/>
      <point x="477" y="531"/>
      <point x="420" y="550"/>
      <point x="352" y="550" type="curve" smooth="yes"/>
      <point x="291" y="550"/>
      <point x="242" y="533"/>
      <point x="202" y="482" type="curve"/>
      <point x="202" y="780" type="line"/>
      <point x="-2" y="780" type="line"/>
      <point x="-2" y="724" type="line"/>
      <point x="75" y="705" type="line"/>
      <point x="75" y="0" type="line"/>
      <point x="152" y="0" type="line"/>
      <point x="182" y="101" type="line"/>
      <point x="223" y="16"/>
      <point x="276" y="-10"/>
      <point x="344" y="-10" type="curve" smooth="yes"/>
      <point x="414" y="-10"/>
      <point x="468" y="12"/>
      <point x="505" y="55" type="curve" smooth="yes"/>
      <point x="550" y="107"/>
      <point x="577" y="188"/>
    </contour>
    <contour>
      <point x="202" y="270" type="curve" smooth="yes"/>
      <point x="202" y="350"/>
      <point x="217" y="402"/>
      <point x="237" y="437" type="curve" smooth="yes"/>
      <point x="257" y="472"/>
      <point x="292" y="483"/>
      <point x="328" y="483" type="curve" smooth="yes"/>
      <point x="371" y="483"/>
      <point x="396" y="465"/>
      <point x="412" y="430" type="curve" smooth="yes"/>
      <point x="429" y="393"/>
      <point x="442" y="332"/>
      <point x="442" y="256" type="curve" smooth="yes"/>
      <point x="442" y="187"/>
      <point x="431" y="140"/>
      <point x="411" y="105" type="curve" smooth="yes"/>
      <point x="394" y="77"/>
      <point x="372" y="57"/>
      <point x="329" y="57" type="curve" smooth="yes"/>
      <point x="286" y="57"/>
      <point x="258" y="77"/>
      <point x="237" y="110" type="curve" smooth="yes"/>
      <point x="217" y="142"/>
      <point x="202" y="190"/>
    </contour>
  </outline>
</glyph>
<glyph name="c" format="2">
  <advance width="546"/>
  <unicode hex="0063"/>
  <anchor x="308" y="639" name="top"/>
  <anchor x="290" y="0" name="bottom"/>
  <outline>
    <contour>
      <point x="300" y="550" type="curve" smooth="yes"/>
      <point x="135" y="550"/>
      <point x="37" y="438"/>
      <point x="37" y="265" type="curve" smooth="yes"/>
      <point x="37" y="202"/>
      <point x="50" y="145"/>
      <point x="73" y="102" type="curve" smooth="yes"/>
      <point x="112" y="29"/>
      <point x="180" y="-10"/>
      <point x="279" y="-10" type="curve" smooth="yes"/>
      <point x="372" y="-10"/>
      <point x="457" y="24"/>
      <point x="519" y="110" type="curve"/>
      <point x="465" y="152" type="line"/>
      <point x="425" y="97"/>
      <point x="357" y="72"/>
      <point x="303" y="72" type="curve" smooth="yes"/>
      <point x="251" y="72"/>
      <point x="219" y="95"/>
      <point x="198" y="134" type="curve" smooth="yes"/>
      <point x="182" y="164"/>
      <point x="172" y="201"/>
      <point x="172" y="273" type="curve" smooth="yes"/>
      <point x="172" y="431"/>
      <point x="221" y="484"/>
      <point x="305" y="484" type="curve" smooth="yes"/>
      <point x="351" y="484"/>
      <point x="392" y="468"/>
      <point x="410" y="444" type="curve"/>
      <point x="377" y="434"/>
      <point x="360" y="408"/>
      <point x="360" y="375" type="curve" smooth="yes"/>
      <point x="360" y="341"/>
      <point x="378" y="302"/>
      <point x="430" y="302" type="curve" smooth="yes"/>
      <point x="477" y="302"/>
      <point x="513" y="334"/>
      <point x="513" y="394" type="curve" smooth="yes"/>
      <point x="513" y="488"/>
      <point x="423" y="550"/>
    </contour>
  </outline>
</glyph>
<glyph name="d" format="1">
  <advance width="636"/>
  <unicode hex="0064"/>
  <outline>
    <contour>
      <point x="38" y="269" type="curve" smooth="yes"/>
      <point x="38" y="178"/>
      <point x="66" y="100"/>
      <point x="107" y="53" type="curve" smooth="yes"/>
      <point x="142" y="13"/>
      <point x="190" y="-10"/>
      <point x="263" y="-10" type="curve" smooth="yes"/>
      <point x="332" y="-10"/>
      <point x="383" y="10"/>
      <point x="424" y="72" type="curve"/>
      <point x="432" y="-10" type="line"/>
      <point x="617" y="0" type="line"/>
      <point x="617" y="56" type="line"/>
      <point x="540" y="75" type="line"/>
      <point x="540" y="780" type="line"/>
      <point x="336" y="780" type="line"/>
      <point x="336" y="724" type="line"/>
      <point x="413" y="705" type="line"/>
      <point x="413" y="472" type="line"/>
      <point x="374" y="530"/>
      <point x="327" y="550"/>
      <point x="265" y="550" type="curve" smooth="yes"/>
      <point x="198" y="550"/>
      <point x="144" y="527"/>
      <point x="106" y="485" type="curve" smooth="yes"/>
      <point x="64" y="438"/>
      <point x="38" y="357"/>
    </contour>
    <contour>
      <point x="413" y="266" type="curve" smooth="yes"/>
      <point x="413" y="196"/>
      <point x="400" y="137"/>
      <point x="379" y="103" type="curve" smooth="yes"/>
      <point x="358" y="70"/>
      <point x="323" y="57"/>
      <point x="292" y="57" type="curve" smooth="yes"/>
      <point x="254" y="57"/>
      <point x="219" y="77"/>
      <point x="201" y="111" type="curve" smooth="yes"/>
      <point x="185" y="141"/>
      <point x="173" y="201"/>
      <point x="173" y="278" type="curve" smooth="yes"/>
      <point x="173" y="345"/>
      <point x="182" y="404"/>
      <point x="199" y="436" type="curve" smooth="yes"/>
      <point x="218" y="471"/>
      <point x="255" y="482"/>
      <point x="287" y="482" type="curve" smooth="yes"/>
      <point x="329" y="482"/>
      <point x="359" y="464"/>
      <point x="379" y="432" type="curve" smooth="yes"/>
      <point x="398" y="402"/>
      <point x="413" y="343"/>
    </contour>
    <contour>
      <point x="282" y="0" type="move" name="bottom"/>
    </contour>
  </outline>
</glyph>
<glyph name="e" format="2">
  <advance width="556"/>
  <unicode hex="0065"/>
  <anchor x="276" y="639" name="top"/>
  <anchor x="273" y="0" name="bottom"/>
  <outline>
    <contour>
      <point x="518" y="256" type="line"/>
      <point x="521" y="286"/>
      <point x="521" y="296"/>
      <point x="521" y="311" type="curve" smooth="yes"/>
      <point x="521" y="460"/>
      <point x="430" y="550"/>
      <point x="285" y="550" type="curve" smooth="yes"/>
      <point x="127" y="550"/>
      <point x="38" y="443"/>
      <point x="38" y="257" type="curve" smooth="yes"/>
      <point x="38" y="198"/>
      <point x="47" y="147"/>
      <point x="67" y="106" type="curve" smooth="yes"/>
      <point x="104" y="30"/>
      <point x="176" y="-10"/>
      <point x="274" y="-10" type="curve" smooth="yes"/>
      <point x="390" y="-10"/>
      <point x="468" y="43"/>
      <point x="515" y="110" type="curve"/>
      <point x="461" y="152" type="line"/>
      <point x="420" y="98"/>
      <point x="358" y="72"/>
      <point x="299" y="72" type="curve" smooth="yes"/>
      <point x="246" y="72"/>
      <point x="210" y="97"/>
      <point x="189" y="143" type="curve" smooth="yes"/>
      <point x="176" y="172"/>
      <point x="169" y="209"/>
      <point x="169" y="256" type="curve"/>
    </contour>
    <contour>
      <point x="283" y="481" type="curve" smooth="yes"/>
      <point x="350" y="481"/>
      <point x="390" y="432"/>
      <point x="390" y="346" type="curve" smooth="yes"/>
      <point x="390" y="320" type="line"/>
      <point x="170" y="320" type="line"/>
      <point x="177" y="429"/>
      <point x="213" y="481"/>
    </contour>
  </outline>
</glyph>
<glyph name="f" format="2">
  <advance width="389"/>
  <unicode hex="0066"/>
  <guideline x="0.0" y="460.0" angle="0.0" identifier="TWqPNTtkiD"/>
  <outline>
    <contour>
      <point x="17" y="460" type="line"/>
      <point x="114" y="460" type="line"/>
      <point x="114" y="75" type="line"/>
      <point x="37" y="56" type="line"/>
      <point x="37" y="0" type="line"/>
      <point x="349" y="0" type="line"/>
      <point x="349" y="56" type="line"/>
      <point x="241" y="75" type="line"/>
      <point x="241" y="460" type="line"/>
      <point x="369" y="460" type="line"/>
      <point x="369" y="540" type="line"/>
      <point x="241" y="540" type="line"/>
      <point x="241" y="590" type="line" smooth="yes"/>
      <point x="241" y="647"/>
      <point x="241" y="701"/>
      <point x="284" y="729" type="curve" smooth="yes"/>
      <point x="294" y="735"/>
      <point x="305" y="737"/>
      <point x="316" y="737" type="curve" smooth="yes"/>
      <point x="327" y="737"/>
      <point x="339" y="731"/>
      <point x="346" y="719" type="curve"/>
      <point x="335" y="708"/>
      <point x="330" y="695"/>
      <point x="330" y="682" type="curve" smooth="yes"/>
      <point x="330" y="644"/>
      <point x="354" y="622"/>
      <point x="397" y="622" type="curve" smooth="yes"/>
      <point x="435" y="622"/>
      <point x="459" y="646"/>
      <point x="459" y="689" type="curve" smooth="yes"/>
      <point x="459" y="747"/>
      <point x="408" y="790"/>
      <point x="329" y="790" type="curve" smooth="yes"/>
      <point x="198" y="790"/>
      <point x="114" y="708"/>
      <point x="114" y="565" type="curve" smooth="yes"/>
      <point x="114" y="538" type="line"/>
      <point x="17" y="524" type="line"/>
    </contour>
  </outline>
</glyph>
<glyph name="g" format="2">
  <advance width="575"/>
  <unicode hex="0067"/>
  <anchor x="267" y="639" name="top"/>
  <outline>
    <contour>
      <point x="528" y="-6" type="curve" smooth="yes"/>
      <point x="528" y="82"/>
      <point x="471" y="125"/>
      <point x="362" y="125" type="curve" smooth="yes"/>
      <point x="246" y="125" type="line" smooth="yes"/>
      <point x="179" y="125"/>
      <point x="158" y="132"/>
      <point x="158" y="156" type="curve" smooth="yes"/>
      <point x="158" y="186"/>
      <point x="192" y="202"/>
      <point x="244" y="209" type="curve"/>
      <point x="257" y="208"/>
      <point x="270" y="207"/>
      <point x="284" y="207" type="curve" smooth="yes"/>
      <point x="412" y="207"/>
      <point x="482" y="275"/>
      <point x="482" y="384" type="curve" smooth="yes"/>
      <point x="482" y="416"/>
      <point x="476" y="443"/>
      <point x="462" y="465" type="curve"/>
      <point x="487" y="465" type="line"/>
      <point x="557" y="457" type="line"/>
      <point x="574" y="457" type="line"/>
      <point x="574" y="560" type="line"/>
      <point x="557" y="560" type="line"/>
      <point x="465" y="516" type="line"/>
      <point x="431" y="504" type="line"/>
      <point x="392" y="534"/>
      <point x="348" y="550"/>
      <point x="259" y="550" type="curve" smooth="yes"/>
      <point x="124" y="550"/>
      <point x="50" y="484"/>
      <point x="50" y="378" type="curve" smooth="yes"/>
      <point x="50" y="305"/>
      <point x="92" y="246"/>
      <point x="163" y="229" type="curve"/>
      <point x="88" y="219"/>
      <point x="60" y="166"/>
      <point x="60" y="126" type="curve" smooth="yes"/>
      <point x="60" y="88"/>
      <point x="86" y="64"/>
      <point x="136" y="50" type="curve"/>
      <point x="136" y="46" type="line"/>
      <point x="60" y="43"/>
      <point x="21" y="3"/>
      <point x="21" y="-58" type="curve" smooth="yes"/>
      <point x="21" y="-152"/>
      <point x="124" y="-184"/>
      <point x="252" y="-184" type="curve" smooth="yes"/>
      <point x="444" y="-184"/>
      <point x="528" y="-129"/>
    </contour>
    <contour>
      <point x="288" y="33" type="line" smooth="yes"/>
      <point x="389" y="33"/>
      <point x="426" y="16"/>
      <point x="426" y="-31" type="curve" smooth="yes"/>
      <point x="426" y="-89"/>
      <point x="371" y="-119"/>
      <point x="269" y="-119" type="curve" smooth="yes"/>
      <point x="172" y="-119"/>
      <point x="126" y="-92"/>
      <point x="126" y="-43" type="curve" smooth="yes"/>
      <point x="126" y="2"/>
      <point x="164" y="33"/>
      <point x="253" y="33" type="curve" smooth="yes"/>
    </contour>
    <contour>
      <point x="168" y="382" type="curve" smooth="yes"/>
      <point x="168" y="452"/>
      <point x="201" y="489"/>
      <point x="261" y="489" type="curve" smooth="yes"/>
      <point x="332" y="489"/>
      <point x="364" y="452"/>
      <point x="364" y="382" type="curve" smooth="yes"/>
      <point x="364" y="307"/>
      <point x="332" y="267"/>
      <point x="261" y="267" type="curve" smooth="yes"/>
      <point x="202" y="267"/>
      <point x="168" y="307"/>
    </contour>
  </outline>
</glyph>
<glyph name="h" format="2">
  <advance width="658"/>
  <unicode hex="0068"/>
  <anchor x="371" y="639" name="top"/>
  <anchor x="332" y="0" name="bottom"/>
  <outline>
    <contour>
      <point x="442" y="75" type="line"/>
      <point x="375" y="56" type="line"/>
      <point x="375" y="0" type="line"/>
      <point x="646" y="0" type="line"/>
      <point x="646" y="56" type="line"/>
      <point x="569" y="75" type="line"/>
      <point x="569" y="281" type="line" smooth="yes"/>
      <point x="569" y="395"/>
      <point x="550" y="463"/>
      <point x="509" y="506" type="curve" smooth="yes"/>
      <point x="480" y="536"/>
      <point x="442" y="550"/>
      <point x="385" y="550" type="curve" smooth="yes"/>
      <point x="317" y="550"/>
      <point x="257" y="510"/>
      <point x="223" y="446" type="curve"/>
      <point x="223" y="780" type="line"/>
      <point x="19" y="780" type="line"/>
      <point x="19" y="724" type="line"/>
      <point x="96" y="705" type="line"/>
      <point x="96" y="75" type="line"/>
      <point x="19" y="56" type="line"/>
      <point x="19" y="0" type="line"/>
      <point x="290" y="0" type="line"/>
      <point x="290" y="56" type="line"/>
      <point x="223" y="75" type="line"/>
      <point x="223" y="316" type="line"/>
      <point x="223" y="361"/>
      <point x="232" y="392"/>
      <point x="243" y="410" type="curve" smooth="yes"/>
      <point x="263" y="444"/>
      <point x="301" y="464"/>
      <point x="338" y="464" type="curve" smooth="yes"/>
      <point x="379" y="464"/>
      <point x="410" y="447"/>
      <point x="426" y="415" type="curve" smooth="yes"/>
      <point x="438" y="390"/>
      <point x="442" y="354"/>
      <point x="442" y="268" type="curve" smooth="yes"/>
    </contour>
  </outline>
</glyph>
<glyph name="i" format="1">
  <advance width="331"/>
  <unicode hex="0069"/>
  <outline>
    <contour>
      <point x="108" y="465" type="line"/>
      <point x="108" y="75" type="line"/>
      <point x="31" y="56" type="line"/>
      <point x="31" y="0" type="line"/>
      <point x="312" y="0" type="line"/>
      <point x="312" y="56" type="line"/>
      <point x="235" y="75" type="line"/>
      <point x="235" y="540" type="line"/>
      <point x="31" y="540" type="line"/>
      <point x="31" y="484" type="line"/>
    </contour>
    <contour>
      <point x="97" y="692" type="curve" smooth="yes"/>
      <point x="97" y="649"/>
      <point x="123" y="621"/>
      <point x="171" y="621" type="curve" smooth="yes"/>
      <point x="219" y="621"/>
      <point x="246" y="650"/>
      <point x="246" y="692" type="curve" smooth="yes"/>
      <point x="246" y="734"/>
      <point x="218" y="764"/>
      <point x="171" y="764" type="curve" smooth="yes"/>
      <point x="124" y="764"/>
      <point x="97" y="735"/>
    </contour>
    <contour>
      <point x="173" y="0" type="move" name="bottom"/>
    </contour>
  </outline>
</glyph>
<glyph name="j" format="2">
  <advance width="300"/>
  <unicode hex="006A"/>
  <outline>
    <contour>
      <point x="225" y="540" type="line"/>
      <point x="21" y="540" type="line"/>
      <point x="21" y="484" type="line"/>
      <point x="98" y="465" type="line"/>
      <point x="98" y="-9" type="line" smooth="yes"/>
      <point x="98" y="-106"/>
      <point x="83" y="-138"/>
      <point x="54" y="-138" type="curve" smooth="yes"/>
      <point x="49" y="-138"/>
      <point x="29" y="-138"/>
      <point x="27" y="-123" type="curve"/>
      <point x="39" y="-115"/>
      <point x="45" y="-99"/>
      <point x="45" y="-85" type="curve" smooth="yes"/>
      <point x="45" y="-50"/>
      <point x="19" y="-23"/>
      <point x="-19" y="-23" type="curve" smooth="yes"/>
      <point x="-64" y="-23"/>
      <point x="-89" y="-56"/>
      <point x="-89" y="-95" type="curve" smooth="yes"/>
      <point x="-89" y="-157"/>
      <point x="-31" y="-190"/>
      <point x="54" y="-190" type="curve" smooth="yes"/>
      <point x="126" y="-190"/>
      <point x="173" y="-164"/>
      <point x="203" y="-101" type="curve" smooth="yes"/>
      <point x="220" y="-65"/>
      <point x="225" y="-14"/>
      <point x="225" y="85" type="curve" smooth="yes"/>
    </contour>
    <contour>
      <point x="90" y="692" type="curve" smooth="yes"/>
      <point x="90" y="649"/>
      <point x="116" y="621"/>
      <point x="164" y="621" type="curve" smooth="yes"/>
      <point x="212" y="621"/>
      <point x="239" y="650"/>
      <point x="239" y="692" type="curve" smooth="yes"/>
      <point x="239" y="734"/>
      <point x="211" y="764"/>
      <point x="164" y="764" type="curve" smooth="yes"/>
      <point x="117" y="764"/>
      <point x="90" y="735"/>
    </contour>
  </outline>
</glyph>
<glyph name="k" format="2">
  <advance width="609"/>
  <unicode hex="006B"/>
  <anchor x="324" y="0" name="bottom"/>
  <outline>
    <contour>
      <point x="352" y="56" type="line"/>
      <point x="352" y="0" type="line"/>
      <point x="601" y="0" type="line"/>
      <point x="601" y="56" type="line"/>
      <point x="548" y="73" type="line"/>
      <point x="361" y="325" type="line"/>
      <point x="498" y="465" type="line"/>
      <point x="586" y="484" type="line"/>
      <point x="586" y="540" type="line"/>
      <point x="341" y="540" type="line"/>
      <point x="341" y="484" type="line"/>
      <point x="393" y="466" type="line"/>
      <point x="223" y="282" type="line"/>
      <point x="223" y="780" type="line"/>
      <point x="19" y="780" type="line"/>
      <point x="19" y="724" type="line"/>
      <point x="96" y="705" type="line"/>
      <point x="96" y="75" type="line"/>
      <point x="19" y="56" type="line"/>
      <point x="19" y="0" type="line"/>
      <point x="300" y="0" type="line"/>
      <point x="300" y="56" type="line"/>
      <point x="223" y="75" type="line"/>
      <point x="223" y="204" type="line"/>
      <point x="279" y="251" type="line"/>
      <point x="411" y="75" type="line"/>
    </contour>
  </outline>
</glyph>
<glyph name="l" format="1">
  <advance width="326"/>
  <unicode hex="006C"/>
  <outline>
    <contour>
      <point x="99" y="76" type="line"/>
      <point x="22" y="57" type="line"/>
      <point x="22" y="0" type="line"/>
      <point x="303" y="0" type="line"/>
      <point x="303" y="57" type="line"/>
      <point x="226" y="76" type="line"/>
      <point x="226" y="780" type="line"/>
      <point x="22" y="780" type="line"/>
      <point x="22" y="723" type="line"/>
      <point x="99" y="704" type="line"/>
    </contour>
    <contour>
      <point x="160" y="0" type="move" name="bottom"/>
    </contour>
  </outline>
</glyph>
<glyph name="m" format="2">
  <advance width="995"/>
  <unicode hex="006D"/>
  <outline>
    <contour>
      <point x="108" y="75" type="line"/>
      <point x="31" y="56" type="line"/>
      <point x="31" y="0" type="line"/>
      <point x="302" y="0" type="line"/>
      <point x="302" y="56" type="line"/>
      <point x="235" y="75" type="line"/>
      <point x="235" y="312" type="line"/>
      <point x="238" y="367"/>
      <point x="251" y="400"/>
      <point x="280" y="427" type="curve" smooth="yes"/>
      <point x="305" y="450"/>
      <point x="331" y="458"/>
      <point x="365" y="458" type="curve" smooth="yes"/>
      <point x="389" y="458"/>
      <point x="413" y="447"/>
      <point x="426" y="415" type="curve" smooth="yes"/>
      <point x="436" y="390"/>
      <point x="442" y="354"/>
      <point x="442" y="268" type="curve" smooth="yes"/>
      <point x="442" y="75" type="line"/>
      <point x="375" y="56" type="line"/>
      <point x="375" y="0" type="line"/>
      <point x="636" y="0" type="line"/>
      <point x="636" y="56" type="line"/>
      <point x="569" y="75" type="line"/>
      <point x="569" y="312" type="line"/>
      <point x="572" y="367"/>
      <point x="585" y="400"/>
      <point x="614" y="427" type="curve" smooth="yes"/>
      <point x="639" y="450"/>
      <point x="665" y="458"/>
      <point x="699" y="458" type="curve" smooth="yes"/>
      <point x="723" y="458"/>
      <point x="747" y="447"/>
      <point x="760" y="415" type="curve" smooth="yes"/>
      <point x="770" y="390"/>
      <point x="776" y="354"/>
      <point x="776" y="268" type="curve" smooth="yes"/>
      <point x="776" y="75" type="line"/>
      <point x="709" y="56" type="line"/>
      <point x="709" y="0" type="line"/>
      <point x="980" y="0" type="line"/>
      <point x="980" y="56" type="line"/>
      <point x="903" y="75" type="line"/>
      <point x="903" y="245" type="line" smooth="yes"/>
      <point x="903" y="390"/>
      <point x="895" y="454"/>
      <point x="871" y="492" type="curve" smooth="yes"/>
      <point x="848" y="528"/>
      <point x="803" y="550"/>
      <point x="750" y="550" type="curve" smooth="yes"/>
      <point x="673" y="550"/>
      <point x="600" y="505"/>
      <point x="558" y="430" type="curve"/>
      <point x="552" y="456"/>
      <point x="542" y="481"/>
      <point x="532" y="496" type="curve" smooth="yes"/>
      <point x="512" y="526"/>
      <point x="467" y="550"/>
      <point x="412" y="550" type="curve" smooth="yes"/>
      <point x="339" y="550"/>
      <point x="269" y="507"/>
      <point x="231" y="440" type="curve"/>
      <point x="227" y="440" type="line"/>
      <point x="205" y="540" type="line"/>
      <point x="31" y="540" type="line"/>
      <point x="31" y="484" type="line"/>
      <point x="108" y="465" type="line"/>
    </contour>
  </outline>
</glyph>
<glyph name="n" format="2">
  <advance width="674"/>
  <unicode hex="006E"/>
  <anchor x="357" y="639" name="top"/>
  <anchor x="344" y="0" name="bottom"/>
  <outline>
    <contour>
      <point x="108" y="75" type="line"/>
      <point x="31" y="56" type="line"/>
      <point x="31" y="0" type="line"/>
      <point x="302" y="0" type="line"/>
      <point x="302" y="56" type="line"/>
      <point x="235" y="75" type="line"/>
      <point x="235" y="312" type="line"/>
      <point x="238" y="366"/>
      <point x="252" y="403"/>
      <point x="280" y="429" type="curve" smooth="yes"/>
      <point x="302" y="450"/>
      <point x="330" y="461"/>
      <point x="363" y="461" type="curve" smooth="yes"/>
      <point x="397" y="461"/>
      <point x="423" y="449"/>
      <point x="438" y="415" type="curve" smooth="yes"/>
      <point x="450" y="388"/>
      <point x="454" y="348"/>
      <point x="454" y="268" type="curve" smooth="yes"/>
      <point x="454" y="75" type="line"/>
      <point x="387" y="56" type="line"/>
      <point x="387" y="0" type="line"/>
      <point x="658" y="0" type="line"/>
      <point x="658" y="56" type="line"/>
      <point x="581" y="75" type="line"/>
      <point x="581" y="281" type="line" smooth="yes"/>
      <point x="581" y="395"/>
      <point x="570" y="459"/>
      <point x="544" y="496" type="curve" smooth="yes"/>
      <point x="519" y="530"/>
      <point x="474" y="550"/>
      <point x="421" y="550" type="curve" smooth="yes"/>
      <point x="343" y="550"/>
      <point x="271" y="508"/>
      <point x="231" y="440" type="curve"/>
      <point x="227" y="440" type="line"/>
      <point x="205" y="540" type="line"/>
      <point x="31" y="540" type="line"/>
      <point x="31" y="484" type="line"/>
      <point x="108" y="465" type="line"/>
    </contour>
  </outline>
</glyph>
<glyph name="o" format="2">
  <advance width="594"/>
  <unicode hex="006F"/>
  <anchor x="297" y="639" name="top"/>
  <anchor x="295" y="0" name="bottom"/>
  <outline>
    <contour>
      <point x="557" y="270" type="curve" smooth="yes"/>
      <point x="557" y="355"/>
      <point x="532" y="435"/>
      <point x="485" y="485" type="curve" smooth="yes"/>
      <point x="441" y="532"/>
      <point x="380" y="550"/>
      <point x="297" y="550" type="curve" smooth="yes"/>
      <point x="214" y="550"/>
      <point x="153" y="532"/>
      <point x="109" y="485" type="curve" smooth="yes"/>
      <point x="62" y="435"/>
      <point x="37" y="355"/>
      <point x="37" y="270" type="curve" smooth="yes"/>
      <point x="37" y="185"/>
      <point x="62" y="105"/>
      <point x="109" y="55" type="curve" smooth="yes"/>
      <point x="153" y="8"/>
      <point x="214" y="-10"/>
      <point x="297" y="-10" type="curve" smooth="yes"/>
      <point x="380" y="-10"/>
      <point x="441" y="8"/>
      <point x="485" y="55" type="curve" smooth="yes"/>
      <point x="532" y="105"/>
      <point x="557" y="185"/>
    </contour>
    <contour>
      <point x="206" y="97" type="curve" smooth="yes"/>
      <point x="185" y="129"/>
      <point x="174" y="186"/>
      <point x="174" y="270" type="curve" smooth="yes"/>
      <point x="174" y="354"/>
      <point x="185" y="411"/>
      <point x="206" y="443" type="curve" smooth="yes"/>
      <point x="224" y="470"/>
      <point x="254" y="483"/>
      <point x="297" y="483" type="curve" smooth="yes"/>
      <point x="340" y="483"/>
      <point x="370" y="470"/>
      <point x="388" y="443" type="curve" smooth="yes"/>
      <point x="409" y="411"/>
      <point x="420" y="354"/>
      <point x="420" y="270" type="curve" smooth="yes"/>
      <point x="420" y="186"/>
      <point x="409" y="129"/>
      <point x="388" y="97" type="curve" smooth="yes"/>
      <point x="370" y="70"/>
      <point x="340" y="57"/>
      <point x="297" y="57" type="curve" smooth="yes"/>
      <point x="254" y="57"/>
      <point x="224" y="70"/>
    </contour>
  </outline>
</glyph>
<glyph name="p" format="1">
  <advance width="635"/>
  <unicode hex="0070"/>
  <outline>
    <contour>
      <point x="223" y="-105" type="line"/>
      <point x="223" y="74" type="line"/>
      <point x="261" y="19"/>
      <point x="307" y="0"/>
      <point x="364" y="0" type="curve" smooth="yes"/>
      <point x="434" y="0"/>
      <point x="488" y="22"/>
      <point x="525" y="65" type="curve" smooth="yes"/>
      <point x="569" y="116"/>
      <point x="597" y="195"/>
      <point x="597" y="280" type="curve" smooth="yes"/>
      <point x="597" y="363"/>
      <point x="572" y="436"/>
      <point x="532" y="487" type="curve" smooth="yes"/>
      <point x="497" y="531"/>
      <point x="440" y="550"/>
      <point x="372" y="550" type="curve" smooth="yes"/>
      <point x="304" y="550"/>
      <point x="250" y="529"/>
      <point x="208" y="463" type="curve"/>
      <point x="193" y="540" type="line"/>
      <point x="19" y="540" type="line"/>
      <point x="19" y="484" type="line"/>
      <point x="96" y="465" type="line"/>
      <point x="96" y="-105" type="line"/>
      <point x="19" y="-124" type="line"/>
      <point x="19" y="-180" type="line"/>
      <point x="320" y="-180" type="line"/>
      <point x="320" y="-124" type="line"/>
    </contour>
    <contour>
      <point x="222" y="280" type="curve" smooth="yes"/>
      <point x="222" y="353"/>
      <point x="235" y="405"/>
      <point x="254" y="436" type="curve" smooth="yes"/>
      <point x="274" y="468"/>
      <point x="301" y="482"/>
      <point x="342" y="482" type="curve" smooth="yes"/>
      <point x="379" y="482"/>
      <point x="409" y="471"/>
      <point x="429" y="436" type="curve" smooth="yes"/>
      <point x="449" y="400"/>
      <point x="462" y="337"/>
      <point x="462" y="270" type="curve" smooth="yes"/>
      <point x="462" y="206"/>
      <point x="450" y="149"/>
      <point x="430" y="114" type="curve" smooth="yes"/>
      <point x="414" y="86"/>
      <point x="389" y="67"/>
      <point x="348" y="67" type="curve" smooth="yes"/>
      <point x="306" y="67"/>
      <point x="275" y="87"/>
      <point x="255" y="120" type="curve" smooth="yes"/>
      <point x="235" y="153"/>
      <point x="222" y="207"/>
    </contour>
  </outline>
</glyph>
<glyph name="q" format="2">
  <advance width="615"/>
  <unicode hex="0071"/>
  <outline>
    <contour>
      <point x="413" y="-105" type="line"/>
      <point x="316" y="-124" type="line"/>
      <point x="316" y="-180" type="line"/>
      <point x="617" y="-180" type="line"/>
      <point x="617" y="-124" type="line"/>
      <point x="540" y="-105" type="line"/>
      <point x="540" y="540" type="line"/>
      <point x="463" y="540" type="line"/>
      <point x="433" y="437" type="line"/>
      <point x="391" y="522"/>
      <point x="337" y="550"/>
      <point x="267" y="550" type="curve" smooth="yes"/>
      <point x="197" y="550"/>
      <point x="141" y="528"/>
      <point x="106" y="485" type="curve" smooth="yes"/>
      <point x="64" y="434"/>
      <point x="38" y="355"/>
      <point x="38" y="270" type="curve" smooth="yes"/>
      <point x="38" y="187"/>
      <point x="65" y="114"/>
      <point x="107" y="63" type="curve" smooth="yes"/>
      <point x="143" y="19"/>
      <point x="199" y="0"/>
      <point x="267" y="0" type="curve" smooth="yes"/>
      <point x="326" y="0"/>
      <point x="374" y="16"/>
      <point x="413" y="67" type="curve"/>
    </contour>
    <contour>
      <point x="413" y="271" type="curve" smooth="yes"/>
      <point x="413" y="199"/>
      <point x="399" y="147"/>
      <point x="378" y="113" type="curve" smooth="yes"/>
      <point x="359" y="83"/>
      <point x="332" y="67"/>
      <point x="286" y="67" type="curve" smooth="yes"/>
      <point x="251" y="67"/>
      <point x="219" y="79"/>
      <point x="199" y="120" type="curve" smooth="yes"/>
      <point x="181" y="157"/>
      <point x="173" y="207"/>
      <point x="173" y="278" type="curve" smooth="yes"/>
      <point x="173" y="349"/>
      <point x="178" y="402"/>
      <point x="199" y="436" type="curve" smooth="yes"/>
      <point x="219" y="469"/>
      <point x="255" y="482"/>
      <point x="287" y="482" type="curve" smooth="yes"/>
      <point x="328" y="482"/>
      <point x="357" y="464"/>
      <point x="378" y="430" type="curve" smooth="yes"/>
      <point x="401" y="397"/>
      <point x="413" y="343"/>
    </contour>
  </outline>
</glyph>
<glyph name="r" format="1">
  <advance width="474"/>
  <unicode hex="0072"/>
  <outline>
    <contour>
      <point x="330" y="467" type="curve"/>
      <point x="326" y="453"/>
      <point x="325" y="449"/>
      <point x="325" y="440" type="curve" smooth="yes"/>
      <point x="325" y="411"/>
      <point x="345" y="381"/>
      <point x="399" y="381" type="curve" smooth="yes"/>
      <point x="443" y="381"/>
      <point x="468" y="420"/>
      <point x="468" y="460" type="curve" smooth="yes"/>
      <point x="468" y="514"/>
      <point x="429" y="550"/>
      <point x="377" y="550" type="curve" smooth="yes"/>
      <point x="314" y="550"/>
      <point x="259" y="499"/>
      <point x="229" y="408" type="curve"/>
      <point x="225" y="408" type="line"/>
      <point x="203" y="540" type="line"/>
      <point x="29" y="540" type="line"/>
      <point x="29" y="499" type="line"/>
      <point x="106" y="480" type="line"/>
      <point x="106" y="75" type="line"/>
      <point x="29" y="56" type="line"/>
      <point x="29" y="0" type="line"/>
      <point x="341" y="0" type="line"/>
      <point x="341" y="56" type="line"/>
      <point x="233" y="75" type="line"/>
      <point x="233" y="232" type="line" smooth="yes"/>
      <point x="233" y="301"/>
      <point x="247" y="344"/>
      <point x="263" y="390" type="curve" smooth="yes"/>
      <point x="273" y="418"/>
      <point x="307" y="467"/>
    </contour>
    <contour>
      <point x="252" y="639" type="move" name="top"/>
    </contour>
    <contour>
      <point x="169" y="0" type="move" name="bottom"/>
    </contour>
  </outline>
</glyph>
<glyph name="s" format="1">
  <advance width="516"/>
  <unicode hex="0073"/>
  <outline>
    <contour>
      <point x="243" y="51" type="curve" smooth="yes"/>
      <point x="186" y="51"/>
      <point x="157" y="74"/>
      <point x="144" y="95" type="curve"/>
      <point x="162" y="106"/>
      <point x="180" y="131"/>
      <point x="180" y="155" type="curve" smooth="yes"/>
      <point x="180" y="188"/>
      <point x="147" y="207"/>
      <point x="115" y="207" type="curve" smooth="yes"/>
      <point x="72" y="207"/>
      <point x="37" y="174"/>
      <point x="37" y="120" type="curve" smooth="yes"/>
      <point x="37" y="41"/>
      <point x="113" y="-10"/>
      <point x="240" y="-10" type="curve" smooth="yes"/>
      <point x="376" y="-10"/>
      <point x="481" y="49"/>
      <point x="481" y="153" type="curve" smooth="yes"/>
      <point x="481" y="258"/>
      <point x="372" y="292"/>
      <point x="265" y="323" type="curve" smooth="yes"/>
      <point x="207" y="340"/>
      <point x="169" y="362"/>
      <point x="169" y="415" type="curve" smooth="yes"/>
      <point x="169" y="462"/>
      <point x="200" y="489"/>
      <point x="262" y="489" type="curve" smooth="yes"/>
      <point x="308" y="489"/>
      <point x="340" y="474"/>
      <point x="358" y="449" type="curve"/>
      <point x="337" y="439"/>
      <point x="322" y="415"/>
      <point x="322" y="393" type="curve" smooth="yes"/>
      <point x="322" y="365"/>
      <point x="347" y="341"/>
      <point x="390" y="341" type="curve" smooth="yes"/>
      <point x="433" y="341"/>
      <point x="459" y="366"/>
      <point x="459" y="412" type="curve" smooth="yes"/>
      <point x="459" y="493"/>
      <point x="380" y="550"/>
      <point x="258" y="550" type="curve" smooth="yes"/>
      <point x="130" y="550"/>
      <point x="57" y="487"/>
      <point x="57" y="391" type="curve" smooth="yes"/>
      <point x="57" y="289"/>
      <point x="140" y="245"/>
      <point x="222" y="220" type="curve" smooth="yes"/>
      <point x="290" y="200"/>
      <point x="364" y="177"/>
      <point x="364" y="123" type="curve" smooth="yes"/>
      <point x="364" y="77"/>
      <point x="309" y="51"/>
    </contour>
    <contour>
      <point x="270" y="639" type="move" name="top"/>
    </contour>
    <contour>
      <point x="248" y="0" type="move" name="bottom"/>
    </contour>
  </outline>
</glyph>
<glyph name="t" format="1">
  <advance width="365"/>
  <unicode hex="0074"/>
  <outline>
    <contour>
      <point x="5" y="475" type="line"/>
      <point x="102" y="475" type="line"/>
      <point x="102" y="114" type="line" smooth="yes"/>
      <point x="102" y="64"/>
      <point x="104" y="43"/>
      <point x="110" y="27" type="curve" smooth="yes"/>
      <point x="119" y="2"/>
      <point x="138" y="-10"/>
      <point x="168" y="-10" type="curve" smooth="yes"/>
      <point x="203" y="-10"/>
      <point x="264" y="1"/>
      <point x="341" y="25" type="curve"/>
      <point x="341" y="69" type="line"/>
      <point x="271" y="69" type="line" smooth="yes"/>
      <point x="247" y="69"/>
      <point x="238" y="73"/>
      <point x="234" y="81" type="curve" smooth="yes"/>
      <point x="230" y="91"/>
      <point x="229" y="103"/>
      <point x="229" y="148" type="curve" smooth="yes"/>
      <point x="229" y="475" type="line"/>
      <point x="357" y="475" type="line"/>
      <point x="357" y="540" type="line"/>
      <point x="229" y="540" type="line"/>
      <point x="229" y="680" type="line"/>
      <point x="115" y="664" type="line"/>
      <point x="103" y="540" type="line"/>
      <point x="5" y="526" type="line"/>
    </contour>
    <contour>
      <point x="174" y="0" type="move" name="bottom"/>
    </contour>
  </outline>
</glyph>
<glyph name="u" format="1">
  <advance width="652"/>
  <unicode hex="0075"/>
  <outline>
    <contour>
      <point x="218" y="540" type="line"/>
      <point x="24" y="540" type="line"/>
      <point x="24" y="484" type="line"/>
      <point x="91" y="465" type="line"/>
      <point x="91" y="259" type="line" smooth="yes"/>
      <point x="91" y="145"/>
      <point x="102" y="81"/>
      <point x="128" y="44" type="curve" smooth="yes"/>
      <point x="152" y="10"/>
      <point x="196" y="-10"/>
      <point x="247" y="-10" type="curve" smooth="yes"/>
      <point x="323" y="-10"/>
      <point x="394" y="32"/>
      <point x="433" y="100" type="curve"/>
      <point x="437" y="100" type="line"/>
      <point x="448" y="-10" type="line"/>
      <point x="633" y="0" type="line"/>
      <point x="633" y="56" type="line"/>
      <point x="556" y="75" type="line"/>
      <point x="556" y="540" type="line"/>
      <point x="342" y="540" type="line"/>
      <point x="342" y="484" type="line"/>
      <point x="429" y="465" type="line"/>
      <point x="429" y="228" type="line"/>
      <point x="426" y="173"/>
      <point x="413" y="139"/>
      <point x="384" y="113" type="curve" smooth="yes"/>
      <point x="359" y="90"/>
      <point x="330" y="76"/>
      <point x="294" y="76" type="curve" smooth="yes"/>
      <point x="269" y="76"/>
      <point x="240" y="93"/>
      <point x="230" y="125" type="curve" smooth="yes"/>
      <point x="222" y="150"/>
      <point x="218" y="186"/>
      <point x="218" y="272" type="curve" smooth="yes"/>
    </contour>
    <contour>
      <point x="321" y="639" type="move" name="top"/>
    </contour>
    <contour>
      <point x="302" y="0" type="move" name="bottom"/>
    </contour>
  </outline>
</glyph>
<glyph name="v" format="1">
  <advance width="604"/>
  <unicode hex="0076"/>
  <outline>
    <contour>
      <point x="368" y="-10" type="line"/>
      <point x="541" y="465" type="line"/>
      <point x="599" y="484" type="line"/>
      <point x="599" y="540" type="line"/>
      <point x="379" y="540" type="line"/>
      <point x="379" y="484" type="line"/>
      <point x="441" y="465" type="line"/>
      <point x="318" y="99" type="line"/>
      <point x="314" y="99" type="line"/>
      <point x="194" y="466" type="line"/>
      <point x="260" y="485" type="line"/>
      <point x="260" y="541" type="line"/>
      <point x="6" y="541" type="line"/>
      <point x="6" y="485" type="line"/>
      <point x="62" y="466" type="line"/>
      <point x="235" y="-10" type="line"/>
    </contour>
  </outline>
</glyph>
<glyph name="w" format="2">
  <advance width="888"/>
  <unicode hex="0077"/>
  <anchor x="459" y="639" name="top"/>
  <outline>
    <contour>
      <point x="193" y="464" type="line"/>
      <point x="262" y="483" type="line"/>
      <point x="262" y="539" type="line"/>
      <point x="8" y="539" type="line"/>
      <point x="8" y="483" type="line"/>
      <point x="61" y="464" type="line"/>
      <point x="210" y="-10" type="line"/>
      <point x="343" y="-10" type="line"/>
      <point x="444" y="351" type="line"/>
      <point x="548" y="-10" type="line"/>
      <point x="681" y="-10" type="line"/>
      <point x="825" y="464" type="line"/>
      <point x="879" y="483" type="line"/>
      <point x="879" y="539" type="line"/>
      <point x="659" y="539" type="line"/>
      <point x="659" y="483" type="line"/>
      <point x="724" y="464" type="line"/>
      <point x="643" y="151" type="line"/>
      <point x="631" y="92" type="line"/>
      <point x="627" y="92" type="line"/>
      <point x="617" y="151" type="line"/>
      <point x="510" y="550" type="line"/>
      <point x="408" y="550" type="line"/>
      <point x="304" y="150" type="line"/>
      <point x="293" y="91" type="line"/>
      <point x="288" y="91" type="line"/>
      <point x="278" y="150" type="line"/>
    </contour>
  </outline>
</glyph>
<glyph name="x" format="1">
  <advance width="574"/>
  <unicode hex="0078"/>
  <outline>
    <contour>
      <point x="208" y="465" type="line"/>
      <point x="252" y="484" type="line"/>
      <point x="252" y="540" type="line"/>
      <point x="15" y="540" type="line"/>
      <point x="15" y="484" type="line"/>
      <point x="71" y="465" type="line"/>
      <point x="230" y="260" type="line"/>
      <point x="72" y="75" type="line"/>
      <point x="16" y="56" type="line"/>
      <point x="16" y="0" type="line"/>
      <point x="234" y="0" type="line"/>
      <point x="234" y="56" type="line"/>
      <point x="174" y="75" type="line"/>
      <point x="271" y="206" type="line"/>
      <point x="373" y="75" type="line"/>
      <point x="316" y="56" type="line"/>
      <point x="316" y="0" type="line"/>
      <point x="565" y="0" type="line"/>
      <point x="565" y="56" type="line"/>
      <point x="510" y="74" type="line"/>
      <point x="345" y="287" type="line"/>
      <point x="495" y="465" type="line"/>
      <point x="552" y="484" type="line"/>
      <point x="552" y="540" type="line"/>
      <point x="334" y="540" type="line"/>
      <point x="334" y="484" type="line"/>
      <point x="394" y="465" type="line"/>
      <point x="303" y="341" type="line"/>
    </contour>
  </outline>
</glyph>
<glyph name="y" format="2">
  <advance width="600"/>
  <unicode hex="0079"/>
  <anchor x="318" y="639" name="top"/>
  <outline>
    <contour>
      <point x="529" y="465" type="line"/>
      <point x="590" y="484" type="line"/>
      <point x="590" y="540" type="line"/>
      <point x="370" y="540" type="line"/>
      <point x="370" y="484" type="line"/>
      <point x="428" y="465" type="line"/>
      <point x="317" y="118" type="line"/>
      <point x="313" y="118" type="line"/>
      <point x="190" y="465" type="line"/>
      <point x="261" y="484" type="line"/>
      <point x="253" y="540" type="line"/>
      <point x="-1" y="540" type="line"/>
      <point x="-1" y="484" type="line"/>
      <point x="59" y="465" type="line"/>
      <point x="260" y="-7" type="line"/>
      <point x="248" y="-44" type="line" smooth="yes"/>
      <point x="215" y="-127"/>
      <point x="194" y="-136"/>
      <point x="167" y="-136" type="curve" smooth="yes"/>
      <point x="157" y="-136"/>
      <point x="141" y="-132"/>
      <point x="138" y="-119" type="curve"/>
      <point x="171" y="-119"/>
      <point x="184" y="-87"/>
      <point x="184" y="-74" type="curve" smooth="yes"/>
      <point x="184" y="-40"/>
      <point x="162" y="-22"/>
      <point x="124" y="-22" type="curve" smooth="yes"/>
      <point x="80" y="-22"/>
      <point x="50" y="-56"/>
      <point x="50" y="-102" type="curve" smooth="yes"/>
      <point x="50" y="-153"/>
      <point x="101" y="-190"/>
      <point x="164" y="-190" type="curve" smooth="yes"/>
      <point x="267" y="-190"/>
      <point x="301" y="-131"/>
      <point x="368" y="24" type="curve" smooth="yes"/>
    </contour>
  </outline>
</glyph>
<glyph name="z" format="1">
  <advance width="558"/>
  <unicode hex="007A"/>
  <outline>
    <contour>
      <point x="405" y="71" type="line"/>
      <point x="196" y="71" type="line"/>
      <point x="508" y="469" type="line"/>
      <point x="508" y="540" type="line"/>
      <point x="52" y="540" type="line"/>
      <point x="52" y="338" type="line"/>
      <point x="139" y="338" type="line"/>
      <point x="163" y="469" type="line"/>
      <point x="352" y="469" type="line"/>
      <point x="39" y="71" type="line"/>
      <point x="39" y="0" type="line"/>
      <point x="512" y="0" type="line"/>
      <point x="512" y="207" type="line"/>
      <point x="425" y="207" type="line"/>
    </contour>
    <contour>
      <point x="280" y="639" type="move" name="top"/>
    </contour>
    <contour>
      <point x="275" y="0" type="move" name="bottom"/>
    </contour>
  </outline>
</glyph>
<glyph name="braceleft" format="2">
  <advance width="424"/>
  <unicode hex="007B"/>
  <outline>
    <contour>
      <point x="2" y="312" type="line"/>
      <point x="36" y="312" type="line" smooth="yes"/>
      <point x="110" y="312"/>
      <point x="141" y="279"/>
      <point x="141" y="199" type="curve" smooth="yes"/>
      <point x="141" y="165"/>
      <point x="134" y="73"/>
      <point x="134" y="39" type="curve" smooth="yes"/>
      <point x="134" y="-84"/>
      <point x="218" y="-142"/>
      <point x="406" y="-150" type="curve"/>
      <point x="406" y="-75" type="line"/>
      <point x="299" y="-70"/>
      <point x="258" y="-38"/>
      <point x="258" y="41" type="curve" smooth="yes"/>
      <point x="258" y="64"/>
      <point x="262" y="151"/>
      <point x="262" y="185" type="curve" smooth="yes"/>
      <point x="262" y="291"/>
      <point x="231" y="340"/>
      <point x="153" y="358" type="curve"/>
      <point x="153" y="362" type="line"/>
      <point x="230" y="389"/>
      <point x="262" y="437"/>
      <point x="262" y="529" type="curve" smooth="yes"/>
      <point x="262" y="559"/>
      <point x="258" y="642"/>
      <point x="258" y="664" type="curve" smooth="yes"/>
      <point x="258" y="742"/>
      <point x="298" y="773"/>
      <point x="406" y="780" type="curve"/>
      <point x="406" y="855" type="line"/>
      <point x="218" y="847"/>
      <point x="134" y="788"/>
      <point x="134" y="667" type="curve" smooth="yes"/>
      <point x="134" y="633"/>
      <point x="141" y="547"/>
      <point x="141" y="513" type="curve" smooth="yes"/>
      <point x="141" y="435"/>
      <point x="109" y="401"/>
      <point x="36" y="401" type="curve" smooth="yes"/>
      <point x="2" y="401" type="line"/>
    </contour>
  </outline>
</glyph>
<glyph name="bar" format="1">
  <advance width="255"/>
  <unicode hex="007C"/>
  <outline>
    <contour>
      <point x="84" y="-170" type="line"/>
      <point x="171" y="-170" type="line"/>
      <point x="171" y="770" type="line"/>
      <point x="84" y="770" type="line"/>
    </contour>
  </outline>
</glyph>
<glyph name="braceright" format="1">
  <advance width="424"/>
  <unicode hex="007D"/>
  <outline>
    <contour>
      <point x="422" y="401" type="line"/>
      <point x="388" y="401" type="line" smooth="yes"/>
      <point x="315" y="401"/>
      <point x="283" y="435"/>
      <point x="283" y="513" type="curve" smooth="yes"/>
      <point x="283" y="547"/>
      <point x="290" y="633"/>
      <point x="290" y="667" type="curve" smooth="yes"/>
      <point x="290" y="788"/>
      <point x="206" y="847"/>
      <point x="18" y="855" type="curve"/>
      <point x="18" y="780" type="line"/>
      <point x="126" y="773"/>
      <point x="166" y="742"/>
      <point x="166" y="664" type="curve" smooth="yes"/>
      <point x="166" y="642"/>
      <point x="162" y="559"/>
      <point x="162" y="529" type="curve" smooth="yes"/>
      <point x="162" y="437"/>
      <point x="194" y="389"/>
      <point x="271" y="362" type="curve"/>
      <point x="271" y="358" type="line"/>
      <point x="193" y="340"/>
      <point x="162" y="291"/>
      <point x="162" y="185" type="curve" smooth="yes"/>
      <point x="162" y="151"/>
      <point x="166" y="64"/>
      <point x="166" y="41" type="curve" smooth="yes"/>
      <point x="166" y="-38"/>
      <point x="125" y="-70"/>
      <point x="18" y="-75" type="curve"/>
      <point x="18" y="-150" type="line"/>
      <point x="206" y="-142"/>
      <point x="290" y="-84"/>
      <point x="290" y="39" type="curve" smooth="yes"/>
      <point x="290" y="73"/>
      <point x="283" y="165"/>
      <point x="283" y="199" type="curve" smooth="yes"/>
      <point x="283" y="279"/>
      <point x="314" y="312"/>
      <point x="388" y="312" type="curve" smooth="yes"/>
      <point x="422" y="312" type="line"/>
    </contour>
  </outline>
</glyph>
<glyph name="asciitilde" format="2">
  <advance width="483"/>
  <unicode hex="007E"/>
  <outline>
    <contour>
      <point x="60" y="289" type="curve"/>
      <point x="120" y="289" type="line"/>
      <point x="126" y="317"/>
      <point x="146" y="334"/>
      <point x="174" y="334" type="curve" smooth="yes"/>
      <point x="222" y="334"/>
      <point x="249" y="278"/>
      <point x="316" y="278" type="curve" smooth="yes"/>
      <point x="378" y="278"/>
      <point x="415" y="327"/>
      <point x="428" y="429" type="curve"/>
      <point x="368" y="429" type="line"/>
      <point x="362" y="397"/>
      <point x="342" y="379"/>
      <point x="314" y="379" type="curve" smooth="yes"/>
      <point x="266" y="379"/>
      <point x="240" y="434"/>
      <point x="172" y="434" type="curve" smooth="yes"/>
      <point x="108" y="434"/>
      <point x="72" y="386"/>
    </contour>
  </outline>
</glyph>
<glyph name="exclamdown" format="2">
  <advance width="271"/>
  <unicode hex="00A1"/>
  <outline>
    <contour>
      <point x="93" y="335" type="line"/>
      <point x="93" y="232"/>
      <point x="81" y="88"/>
      <point x="77" y="40" type="curve" smooth="yes"/>
      <point x="73" y="-9"/>
      <point x="64" y="-55"/>
      <point x="64" y="-110" type="curve" smooth="yes"/>
      <point x="64" y="-157"/>
      <point x="88" y="-190"/>
      <point x="138" y="-190" type="curve" smooth="yes"/>
      <point x="190" y="-190"/>
      <point x="208" y="-154"/>
      <point x="208" y="-111" type="curve" smooth="yes"/>
      <point x="208" y="-55"/>
      <point x="201" y="-9"/>
      <point x="195" y="40" type="curve"/>
      <point x="195" y="88"/>
      <point x="179" y="232"/>
      <point x="179" y="335" type="curve"/>
    </contour>
    <contour>
      <point x="214" y="486" type="curve" smooth="yes"/>
      <point x="214" y="534"/>
      <point x="183" y="566"/>
      <point x="135" y="566" type="curve" smooth="yes"/>
      <point x="87" y="566"/>
      <point x="57" y="535"/>
      <point x="57" y="485" type="curve" smooth="yes"/>
      <point x="57" y="436"/>
      <point x="86" y="408"/>
      <point x="134" y="408" type="curve" smooth="yes"/>
      <point x="184" y="408"/>
      <point x="214" y="438"/>
    </contour>
  </outline>
</glyph>
<glyph name="cent" format="2">
  <advance width="555"/>
  <unicode hex="00A2"/>
  <outline>
    <contour>
      <point x="256" y="-108" type="line"/>
      <point x="333" y="-108" type="line"/>
      <point x="333" y="-6" type="line"/>
      <point x="406" y="4"/>
      <point x="472" y="40"/>
      <point x="523" y="110" type="curve"/>
      <point x="469" y="152" type="line"/>
      <point x="435" y="106"/>
      <point x="381" y="80"/>
      <point x="333" y="74" type="curve"/>
      <point x="333" y="483" type="line"/>
      <point x="369" y="478"/>
      <point x="399" y="464"/>
      <point x="414" y="444" type="curve"/>
      <point x="381" y="434"/>
      <point x="364" y="408"/>
      <point x="364" y="375" type="curve" smooth="yes"/>
      <point x="364" y="341"/>
      <point x="382" y="302"/>
      <point x="434" y="302" type="curve" smooth="yes"/>
      <point x="481" y="302"/>
      <point x="517" y="334"/>
      <point x="517" y="394" type="curve" smooth="yes"/>
      <point x="517" y="480"/>
      <point x="441" y="540"/>
      <point x="333" y="549" type="curve"/>
      <point x="333" y="652" type="line"/>
      <point x="256" y="652" type="line"/>
      <point x="256" y="547" type="line"/>
      <point x="120" y="527"/>
      <point x="41" y="420"/>
      <point x="41" y="265" type="curve" smooth="yes"/>
      <point x="41" y="202"/>
      <point x="54" y="145"/>
      <point x="77" y="102" type="curve" smooth="yes"/>
      <point x="112" y="36"/>
      <point x="172" y="-2"/>
      <point x="256" y="-9" type="curve"/>
    </contour>
    <contour>
      <point x="202" y="134" type="curve" smooth="yes"/>
      <point x="186" y="164"/>
      <point x="176" y="201"/>
      <point x="176" y="273" type="curve" smooth="yes"/>
      <point x="176" y="394"/>
      <point x="205" y="453"/>
      <point x="256" y="475" type="curve"/>
      <point x="256" y="82" type="line"/>
      <point x="232" y="92"/>
      <point x="215" y="110"/>
    </contour>
  </outline>
</glyph>
<glyph name="sterling" format="1">
  <advance width="628"/>
  <unicode hex="00A3"/>
  <outline>
    <contour>
      <point x="72" y="311" type="line"/>
      <point x="226" y="311" type="line"/>
      <point x="240" y="282"/>
      <point x="243" y="258"/>
      <point x="243" y="225" type="curve" smooth="yes"/>
      <point x="243" y="205"/>
      <point x="241" y="185"/>
      <point x="237" y="173" type="curve"/>
      <point x="208" y="185"/>
      <point x="170" y="190"/>
      <point x="142" y="190" type="curve" smooth="yes"/>
      <point x="88" y="190"/>
      <point x="32" y="156"/>
      <point x="32" y="95" type="curve" smooth="yes"/>
      <point x="32" y="28"/>
      <point x="83" y="-10"/>
      <point x="160" y="-10" type="curve" smooth="yes"/>
      <point x="211" y="-10"/>
      <point x="253" y="17"/>
      <point x="294" y="76" type="curve"/>
      <point x="396" y="6"/>
      <point x="428" y="-10"/>
      <point x="469" y="-10" type="curve" smooth="yes"/>
      <point x="538" y="-10"/>
      <point x="574" y="40"/>
      <point x="589" y="160" type="curve"/>
      <point x="514" y="160" type="line"/>
      <point x="503" y="110"/>
      <point x="481" y="93"/>
      <point x="434" y="93" type="curve" smooth="yes"/>
      <point x="406" y="93"/>
      <point x="381" y="103"/>
      <point x="324" y="141" type="curve"/>
      <point x="338" y="177"/>
      <point x="343" y="213"/>
      <point x="343" y="245" type="curve" smooth="yes"/>
      <point x="343" y="261"/>
      <point x="343" y="278"/>
      <point x="336" y="311" type="curve"/>
      <point x="488" y="311" type="line"/>
      <point x="488" y="389" type="line"/>
      <point x="315" y="389" type="line"/>
      <point x="286" y="460"/>
      <point x="273" y="513"/>
      <point x="273" y="555" type="curve" smooth="yes"/>
      <point x="273" y="614"/>
      <point x="313" y="640"/>
      <point x="378" y="640" type="curve" smooth="yes"/>
      <point x="415" y="640"/>
      <point x="447" y="627"/>
      <point x="462" y="600" type="curve"/>
      <point x="438" y="589"/>
      <point x="426" y="569"/>
      <point x="426" y="543" type="curve" smooth="yes"/>
      <point x="426" y="511"/>
      <point x="456" y="490"/>
      <point x="497" y="490" type="curve" smooth="yes"/>
      <point x="541" y="490"/>
      <point x="563" y="519"/>
      <point x="563" y="561" type="curve" smooth="yes"/>
      <point x="563" y="647"/>
      <point x="497" y="701"/>
      <point x="383" y="701" type="curve" smooth="yes"/>
      <point x="239" y="701"/>
      <point x="156" y="637"/>
      <point x="156" y="532" type="curve" smooth="yes"/>
      <point x="156" y="490"/>
      <point x="168" y="447"/>
      <point x="196" y="389" type="curve"/>
      <point x="72" y="389" type="line"/>
    </contour>
    <contour>
      <point x="165" y="56" type="curve" smooth="yes"/>
      <point x="136" y="56"/>
      <point x="120" y="66"/>
      <point x="120" y="90" type="curve" smooth="yes"/>
      <point x="120" y="112"/>
      <point x="138" y="125"/>
      <point x="168" y="125" type="curve" smooth="yes"/>
      <point x="180" y="125"/>
      <point x="199" y="117"/>
      <point x="212" y="107" type="curve"/>
      <point x="201" y="72"/>
      <point x="186" y="56"/>
    </contour>
  </outline>
</glyph>
<glyph name="currency" format="2">
  <advance width="588"/>
  <unicode hex="00A4"/>
  <outline>
    <contour>
      <point x="305" y="175" type="curve" smooth="yes"/>
      <point x="412" y="175"/>
      <point x="494" y="253"/>
      <point x="494" y="353" type="curve" smooth="yes"/>
      <point x="494" y="457"/>
      <point x="415" y="529"/>
      <point x="305" y="529" type="curve" smooth="yes"/>
      <point x="197" y="529"/>
      <point x="116" y="451"/>
      <point x="116" y="350" type="curve" smooth="yes"/>
      <point x="116" y="247"/>
      <point x="192" y="175"/>
    </contour>
    <contour>
      <point x="307" y="246" type="curve" smooth="yes"/>
      <point x="254" y="246"/>
      <point x="214" y="291"/>
      <point x="214" y="352" type="curve" smooth="yes"/>
      <point x="214" y="412"/>
      <point x="251" y="456"/>
      <point x="303" y="456" type="curve" smooth="yes"/>
      <point x="358" y="456"/>
      <point x="396" y="411"/>
      <point x="396" y="350" type="curve" smooth="yes"/>
      <point x="396" y="290"/>
      <point x="360" y="246"/>
    </contour>
    <contour>
      <point x="191" y="401" type="line"/>
      <point x="250" y="460" type="line"/>
      <point x="112" y="588" type="line"/>
      <point x="63" y="540" type="line"/>
    </contour>
    <contour>
      <point x="419" y="400" type="line"/>
      <point x="547" y="539" type="line"/>
      <point x="498" y="587" type="line"/>
      <point x="360" y="459" type="line"/>
    </contour>
    <contour>
      <point x="191" y="299" type="line"/>
      <point x="63" y="160" type="line"/>
      <point x="112" y="112" type="line"/>
      <point x="250" y="240" type="line"/>
    </contour>
    <contour>
      <point x="419" y="300" type="line"/>
      <point x="360" y="241" type="line"/>
      <point x="498" y="113" type="line"/>
      <point x="547" y="161" type="line"/>
    </contour>
  </outline>
</glyph>
<glyph name="yen" format="1">
  <advance width="754"/>
  <unicode hex="00A5"/>
  <outline>
    <contour>
      <point x="146" y="268" type="line"/>
      <point x="605" y="268" type="line"/>
      <point x="605" y="356" type="line"/>
      <point x="146" y="356" type="line"/>
    </contour>
    <contour>
      <point x="146" y="130" type="line"/>
      <point x="605" y="130" type="line"/>
      <point x="605" y="218" type="line"/>
      <point x="146" y="218" type="line"/>
    </contour>
    <component base="Y" xOffset="38"/>
  </outline>
</glyph>
<glyph name="brokenbar" format="2">
  <advance width="259"/>
  <unicode hex="00A6"/>
  <outline>
    <contour>
      <point x="86" y="-170" type="line"/>
      <point x="173" y="-170" type="line"/>
      <point x="173" y="248" type="line"/>
      <point x="86" y="248" type="line"/>
    </contour>
    <contour>
      <point x="86" y="368" type="line"/>
      <point x="173" y="368" type="line"/>
      <point x="173" y="770" type="line"/>
      <point x="86" y="770" type="line"/>
    </contour>
  </outline>
</glyph>
<glyph name="section" format="2">
  <advance width="540"/>
  <unicode hex="00A7"/>
  <outline>
    <contour>
      <point x="502" y="251" type="curve" smooth="yes"/>
      <point x="502" y="365"/>
      <point x="404" y="417"/>
      <point x="304" y="467" type="curve" smooth="yes"/>
      <point x="237" y="500"/>
      <point x="190" y="523"/>
      <point x="190" y="591" type="curve" smooth="yes"/>
      <point x="190" y="643"/>
      <point x="218" y="669"/>
      <point x="281" y="669" type="curve" smooth="yes"/>
      <point x="324" y="669"/>
      <point x="358" y="657"/>
      <point x="379" y="629" type="curve"/>
      <point x="358" y="619"/>
      <point x="343" y="596"/>
      <point x="343" y="572" type="curve" smooth="yes"/>
      <point x="343" y="544"/>
      <point x="364" y="521"/>
      <point x="408" y="521" type="curve" smooth="yes"/>
      <point x="456" y="521"/>
      <point x="480" y="548"/>
      <point x="480" y="593" type="curve" smooth="yes"/>
      <point x="480" y="674"/>
      <point x="401" y="730"/>
      <point x="278" y="730" type="curve" smooth="yes"/>
      <point x="149" y="730"/>
      <point x="78" y="669"/>
      <point x="78" y="564" type="curve" smooth="yes"/>
      <point x="78" y="515"/>
      <point x="94" y="477"/>
      <point x="132" y="444" type="curve"/>
      <point x="74" y="413"/>
      <point x="38" y="359"/>
      <point x="38" y="290" type="curve" smooth="yes"/>
      <point x="38" y="181"/>
      <point x="130" y="128"/>
      <point x="224" y="82" type="curve" smooth="yes"/>
      <point x="283" y="53"/>
      <point x="350" y="22"/>
      <point x="350" y="-46" type="curve" smooth="yes"/>
      <point x="350" y="-98"/>
      <point x="310" y="-129"/>
      <point x="234" y="-129" type="curve" smooth="yes"/>
      <point x="188" y="-129"/>
      <point x="163" y="-118"/>
      <point x="146" y="-89" type="curve"/>
      <point x="187" y="-83"/>
      <point x="197" y="-55"/>
      <point x="197" y="-35" type="curve" smooth="yes"/>
      <point x="197" y="-3"/>
      <point x="170" y="19"/>
      <point x="131" y="19" type="curve" smooth="yes"/>
      <point x="84" y="19"/>
      <point x="60" y="-14"/>
      <point x="60" y="-63" type="curve" smooth="yes"/>
      <point x="60" y="-142"/>
      <point x="123" y="-190"/>
      <point x="241" y="-190" type="curve" smooth="yes"/>
      <point x="375" y="-190"/>
      <point x="462" y="-129"/>
      <point x="462" y="-24" type="curve" smooth="yes"/>
      <point x="462" y="23"/>
      <point x="445" y="62"/>
      <point x="407" y="96" type="curve"/>
      <point x="465" y="126"/>
      <point x="502" y="181"/>
    </contour>
    <contour>
      <point x="243" y="377" type="curve" smooth="yes"/>
      <point x="367" y="318"/>
      <point x="385" y="269"/>
      <point x="385" y="217" type="curve" smooth="yes"/>
      <point x="385" y="179"/>
      <point x="375" y="152"/>
      <point x="359" y="135" type="curve"/>
      <point x="339" y="147"/>
      <point x="312" y="161"/>
      <point x="302" y="166" type="curve" smooth="yes"/>
      <point x="205" y="220"/>
      <point x="155" y="251"/>
      <point x="155" y="322" type="curve" smooth="yes"/>
      <point x="155" y="358"/>
      <point x="168" y="389"/>
      <point x="186" y="407" type="curve"/>
      <point x="219" y="387"/>
      <point x="239" y="379"/>
    </contour>
  </outline>
</glyph>
<glyph name="dieresis" format="1">
  <advance width="407"/>
  <unicode hex="00A8"/>
  <outline>
    <contour>
      <point x="15" y="690" type="curve" smooth="yes"/>
      <point x="15" y="645"/>
      <point x="43" y="617"/>
      <point x="88" y="617" type="curve" smooth="yes"/>
      <point x="134" y="617"/>
      <point x="162" y="645"/>
      <point x="162" y="690" type="curve" smooth="yes"/>
      <point x="162" y="735"/>
      <point x="133" y="764"/>
      <point x="88" y="764" type="curve" smooth="yes"/>
      <point x="43" y="764"/>
      <point x="15" y="736"/>
    </contour>
    <contour>
      <point x="245" y="690" type="curve" smooth="yes"/>
      <point x="245" y="645"/>
      <point x="273" y="617"/>
      <point x="318" y="617" type="curve" smooth="yes"/>
      <point x="364" y="617"/>
      <point x="392" y="645"/>
      <point x="392" y="690" type="curve" smooth="yes"/>
      <point x="392" y="735"/>
      <point x="363" y="764"/>
      <point x="318" y="764" type="curve" smooth="yes"/>
      <point x="273" y="764"/>
      <point x="245" y="736"/>
    </contour>
    <contour>
      <point x="203" y="639" type="move" name="_top"/>
    </contour>
  </outline>
</glyph>
<glyph name="copyright" format="2">
  <advance width="852"/>
  <unicode hex="00A9"/>
  <outline>
    <contour>
      <point x="418" y="-10" type="curve" smooth="yes"/>
      <point x="649" y="-10"/>
      <point x="810" y="152"/>
      <point x="810" y="361" type="curve" smooth="yes"/>
      <point x="810" y="569"/>
      <point x="657" y="730"/>
      <point x="419" y="730" type="curve" smooth="yes"/>
      <point x="203" y="730"/>
      <point x="42" y="569"/>
      <point x="42" y="361" type="curve" smooth="yes"/>
      <point x="42" y="152"/>
      <point x="203" y="-10"/>
    </contour>
    <contour>
      <point x="418" y="45" type="curve" smooth="yes"/>
      <point x="251" y="45"/>
      <point x="119" y="181"/>
      <point x="119" y="361" type="curve" smooth="yes"/>
      <point x="119" y="540"/>
      <point x="252" y="675"/>
      <point x="419" y="675" type="curve" smooth="yes"/>
      <point x="609" y="675"/>
      <point x="735" y="539"/>
      <point x="735" y="361" type="curve" smooth="yes"/>
      <point x="735" y="182"/>
      <point x="604" y="45"/>
    </contour>
    <contour>
      <point x="425" y="510" type="curve" smooth="yes"/>
      <point x="470" y="510"/>
      <point x="505" y="479"/>
      <point x="515" y="417" type="curve"/>
      <point x="577" y="417" type="line"/>
      <point x="577" y="553" type="line"/>
      <point x="518" y="553" type="line"/>
      <point x="508" y="520" type="line"/>
      <point x="480" y="549"/>
      <point x="453" y="559"/>
      <point x="418" y="559" type="curve" smooth="yes"/>
      <point x="381" y="559"/>
      <point x="338" y="551"/>
      <point x="308" y="526" type="curve" smooth="yes"/>
      <point x="264" y="490"/>
      <point x="236" y="426"/>
      <point x="236" y="360" type="curve" smooth="yes"/>
      <point x="236" y="301"/>
      <point x="257" y="247"/>
      <point x="295" y="211" type="curve" smooth="yes"/>
      <point x="324" y="183"/>
      <point x="364" y="169"/>
      <point x="421" y="169" type="curve" smooth="yes"/>
      <point x="509" y="169"/>
      <point x="566" y="215"/>
      <point x="585" y="312" type="curve"/>
      <point x="526" y="312" type="line"/>
      <point x="513" y="255"/>
      <point x="477" y="222"/>
      <point x="432" y="222" type="curve" smooth="yes"/>
      <point x="403" y="222"/>
      <point x="370" y="236"/>
      <point x="354" y="265" type="curve" smooth="yes"/>
      <point x="339" y="292"/>
      <point x="330" y="328"/>
      <point x="330" y="369" type="curve" smooth="yes"/>
      <point x="330" y="414"/>
      <point x="340" y="449"/>
      <point x="360" y="478" type="curve" smooth="yes"/>
      <point x="374" y="498"/>
      <point x="397" y="510"/>
    </contour>
  </outline>
</glyph>
<glyph name="ordfeminine" format="1">
  <advance width="386"/>
  <unicode hex="00AA"/>
  <outline>
    <contour>
      <point x="46" y="493" type="curve" smooth="yes"/>
      <point x="46" y="448"/>
      <point x="74" y="422"/>
      <point x="120" y="422" type="curve" smooth="yes"/>
      <point x="165" y="422"/>
      <point x="201" y="447"/>
      <point x="221" y="482" type="curve"/>
      <point x="225" y="482" type="line"/>
      <point x="225" y="434"/>
      <point x="230" y="422"/>
      <point x="259" y="422" type="curve" smooth="yes"/>
      <point x="278" y="422"/>
      <point x="310" y="427"/>
      <point x="349" y="438" type="curve"/>
      <point x="349" y="469" type="line"/>
      <point x="324" y="469" type="line" smooth="yes"/>
      <point x="308" y="469"/>
      <point x="305" y="481"/>
      <point x="305" y="517" type="curve" smooth="yes"/>
      <point x="305" y="582" type="line" smooth="yes"/>
      <point x="305" y="638"/>
      <point x="298" y="680"/>
      <point x="270" y="703" type="curve" smooth="yes"/>
      <point x="244" y="725"/>
      <point x="204" y="730"/>
      <point x="175" y="730" type="curve" smooth="yes"/>
      <point x="110" y="730"/>
      <point x="56" y="704"/>
      <point x="56" y="657" type="curve" smooth="yes"/>
      <point x="56" y="628"/>
      <point x="76" y="610"/>
      <point x="105" y="610" type="curve" smooth="yes"/>
      <point x="126" y="610"/>
      <point x="150" y="619"/>
      <point x="150" y="642" type="curve" smooth="yes"/>
      <point x="150" y="648"/>
      <point x="148" y="659"/>
      <point x="138" y="665" type="curve"/>
      <point x="140" y="676"/>
      <point x="149" y="686"/>
      <point x="168" y="686" type="curve" smooth="yes"/>
      <point x="179" y="686"/>
      <point x="191" y="683"/>
      <point x="199" y="673" type="curve" smooth="yes"/>
      <point x="207" y="662"/>
      <point x="211" y="642"/>
      <point x="215" y="606" type="curve"/>
      <point x="93" y="586"/>
      <point x="46" y="551"/>
    </contour>
    <contour>
      <point x="161" y="476" type="curve" smooth="yes"/>
      <point x="145" y="476"/>
      <point x="138" y="487"/>
      <point x="138" y="504" type="curve" smooth="yes"/>
      <point x="138" y="534"/>
      <point x="159" y="555"/>
      <point x="214" y="569" type="curve"/>
      <point x="215" y="560"/>
      <point x="216" y="550"/>
      <point x="216" y="542" type="curve" smooth="yes"/>
      <point x="216" y="520"/>
      <point x="209" y="506"/>
      <point x="199" y="495" type="curve" smooth="yes"/>
      <point x="183" y="477"/>
      <point x="166" y="476"/>
    </contour>
  </outline>
</glyph>
<glyph name="logicalnot" format="2">
  <advance width="568"/>
  <unicode hex="00AC"/>
  <outline>
    <contour>
      <point x="60" y="313" type="line"/>
      <point x="409" y="313" type="line"/>
      <point x="409" y="174" type="line"/>
      <point x="499" y="174" type="line"/>
      <point x="499" y="413" type="line"/>
      <point x="60" y="413" type="line"/>
    </contour>
  </outline>
</glyph>
<glyph name="registered" format="1">
  <advance width="638"/>
  <unicode hex="00AE"/>
  <outline>
    <contour>
      <point x="314" y="230" type="curve" smooth="yes"/>
      <point x="473" y="230"/>
      <point x="584" y="338"/>
      <point x="584" y="481" type="curve" smooth="yes"/>
      <point x="584" y="625"/>
      <point x="473" y="730"/>
      <point x="314" y="730" type="curve" smooth="yes"/>
      <point x="163" y="730"/>
      <point x="54" y="625"/>
      <point x="54" y="481" type="curve" smooth="yes"/>
      <point x="54" y="338"/>
      <point x="163" y="230"/>
    </contour>
    <contour>
      <point x="314" y="282" type="curve" smooth="yes"/>
      <point x="196" y="282"/>
      <point x="126" y="360"/>
      <point x="126" y="481" type="curve" smooth="yes"/>
      <point x="126" y="601"/>
      <point x="199" y="678"/>
      <point x="314" y="678" type="curve" smooth="yes"/>
      <point x="444" y="678"/>
      <point x="512" y="601"/>
      <point x="512" y="481" type="curve" smooth="yes"/>
      <point x="512" y="360"/>
      <point x="444" y="282"/>
    </contour>
    <contour>
      <point x="407" y="489" type="curve" smooth="yes"/>
      <point x="425" y="502"/>
      <point x="433" y="522"/>
      <point x="433" y="542" type="curve" smooth="yes"/>
      <point x="433" y="571"/>
      <point x="422" y="587"/>
      <point x="405" y="599" type="curve" smooth="yes"/>
      <point x="391" y="609"/>
      <point x="375" y="613"/>
      <point x="352" y="613" type="curve" smooth="yes"/>
      <point x="194" y="613" type="line"/>
      <point x="194" y="583" type="line"/>
      <point x="224" y="575" type="line"/>
      <point x="224" y="394" type="line"/>
      <point x="194" y="386" type="line"/>
      <point x="194" y="356" type="line"/>
      <point x="323" y="356" type="line"/>
      <point x="323" y="386" type="line"/>
      <point x="295" y="394" type="line"/>
      <point x="295" y="463" type="line"/>
      <point x="307" y="463" type="line"/>
      <point x="346" y="386" type="line"/>
      <point x="346" y="356" type="line"/>
      <point x="455" y="356" type="line"/>
      <point x="455" y="386" type="line"/>
      <point x="423" y="393" type="line"/>
      <point x="384" y="458" type="line" smooth="yes"/>
      <point x="380" y="464"/>
      <point x="377" y="467"/>
      <point x="373" y="471" type="curve"/>
      <point x="391" y="478"/>
      <point x="397" y="482"/>
    </contour>
    <contour>
      <point x="295" y="504" type="line"/>
      <point x="295" y="572" type="line"/>
      <point x="309" y="572" type="line" smooth="yes"/>
      <point x="332" y="572"/>
      <point x="340" y="570"/>
      <point x="344" y="568" type="curve" smooth="yes"/>
      <point x="351" y="565"/>
      <point x="358" y="556"/>
      <point x="358" y="544" type="curve" smooth="yes"/>
      <point x="358" y="530"/>
      <point x="356" y="523"/>
      <point x="346" y="515" type="curve" smooth="yes"/>
      <point x="338" y="508"/>
      <point x="323" y="504"/>
      <point x="311" y="504" type="curve" smooth="yes"/>
    </contour>
  </outline>
</glyph>
<glyph name="degree" format="2">
  <advance width="371"/>
  <unicode hex="00B0"/>
  <outline>
    <contour>
      <point x="186" y="458" type="curve" smooth="yes"/>
      <point x="271" y="458"/>
      <point x="335" y="517"/>
      <point x="335" y="595" type="curve" smooth="yes"/>
      <point x="335" y="675"/>
      <point x="274" y="730"/>
      <point x="186" y="730" type="curve" smooth="yes"/>
      <point x="100" y="730"/>
      <point x="37" y="671"/>
      <point x="37" y="593" type="curve" smooth="yes"/>
      <point x="37" y="513"/>
      <point x="97" y="458"/>
    </contour>
    <contour>
      <point x="188" y="509" type="curve" smooth="yes"/>
      <point x="147" y="509"/>
      <point x="117" y="545"/>
      <point x="117" y="594" type="curve" smooth="yes"/>
      <point x="117" y="643"/>
      <point x="145" y="678"/>
      <point x="184" y="678" type="curve" smooth="yes"/>
      <point x="226" y="678"/>
      <point x="255" y="643"/>
      <point x="255" y="593" type="curve" smooth="yes"/>
      <point x="255" y="543"/>
      <point x="228" y="509"/>
    </contour>
  </outline>
</glyph>
<glyph name="plusminus" format="2">
  <advance width="530"/>
  <unicode hex="00B1"/>
  <outline>
    <contour>
      <point x="61" y="360" type="line"/>
      <point x="221" y="360" type="line"/>
      <point x="221" y="212" type="line"/>
      <point x="309" y="212" type="line"/>
      <point x="309" y="360" type="line"/>
      <point x="469" y="360" type="line"/>
      <point x="469" y="432" type="line"/>
      <point x="309" y="432" type="line"/>
      <point x="309" y="580" type="line"/>
      <point x="221" y="580" type="line"/>
      <point x="221" y="432" type="line"/>
      <point x="61" y="432" type="line"/>
    </contour>
    <contour>
      <point x="61" y="60" type="line"/>
      <point x="469" y="60" type="line"/>
      <point x="469" y="132" type="line"/>
      <point x="61" y="132" type="line"/>
    </contour>
  </outline>
</glyph>
<glyph name="twosuperior" format="2">
  <advance width="350"/>
  <unicode hex="00B2"/>
  <outline>
    <contour>
      <point x="130" y="464" type="line"/>
      <point x="130" y="508"/>
      <point x="291" y="543"/>
      <point x="291" y="643" type="curve" smooth="yes"/>
      <point x="291" y="696"/>
      <point x="250" y="730"/>
      <point x="169" y="730" type="curve" smooth="yes"/>
      <point x="93" y="730"/>
      <point x="53" y="696"/>
      <point x="53" y="644" type="curve" smooth="yes"/>
      <point x="53" y="619"/>
      <point x="65" y="597"/>
      <point x="100" y="597" type="curve" smooth="yes"/>
      <point x="129" y="597"/>
      <point x="141" y="611"/>
      <point x="141" y="630" type="curve" smooth="yes"/>
      <point x="141" y="649"/>
      <point x="132" y="662"/>
      <point x="113" y="662" type="curve"/>
      <point x="116" y="686"/>
      <point x="151" y="688"/>
      <point x="161" y="688" type="curve" smooth="yes"/>
      <point x="176" y="688"/>
      <point x="208" y="682"/>
      <point x="208" y="654" type="curve" smooth="yes"/>
      <point x="208" y="564"/>
      <point x="48" y="525"/>
      <point x="48" y="431" type="curve" smooth="yes"/>
      <point x="48" y="401" type="line"/>
      <point x="295" y="401" type="line"/>
      <point x="295" y="511" type="line"/>
      <point x="239" y="511" type="line"/>
      <point x="229" y="464" type="line"/>
    </contour>
  </outline>
</glyph>
<glyph name="threesuperior" format="2">
  <advance width="344"/>
  <unicode hex="00B3"/>
  <outline>
    <contour>
      <point x="288" y="646" type="curve" smooth="yes"/>
      <point x="288" y="696"/>
      <point x="242" y="730"/>
      <point x="164" y="730" type="curve" smooth="yes"/>
      <point x="93" y="730"/>
      <point x="52" y="698"/>
      <point x="52" y="652" type="curve" smooth="yes"/>
      <point x="52" y="627"/>
      <point x="67" y="602"/>
      <point x="95" y="602" type="curve" smooth="yes"/>
      <point x="130" y="602"/>
      <point x="142" y="623"/>
      <point x="142" y="640" type="curve" smooth="yes"/>
      <point x="142" y="657"/>
      <point x="127" y="667"/>
      <point x="114" y="667" type="curve"/>
      <point x="116" y="684"/>
      <point x="136" y="690"/>
      <point x="154" y="690" type="curve" smooth="yes"/>
      <point x="184" y="690"/>
      <point x="205" y="675"/>
      <point x="205" y="649" type="curve" smooth="yes"/>
      <point x="205" y="609"/>
      <point x="174" y="588"/>
      <point x="129" y="588" type="curve"/>
      <point x="129" y="548" type="line"/>
      <point x="177" y="548"/>
      <point x="206" y="525"/>
      <point x="206" y="487" type="curve" smooth="yes"/>
      <point x="206" y="455"/>
      <point x="182" y="440"/>
      <point x="153" y="440" type="curve" smooth="yes"/>
      <point x="135" y="440"/>
      <point x="115" y="442"/>
      <point x="112" y="465" type="curve"/>
      <point x="127" y="465"/>
      <point x="134" y="477"/>
      <point x="134" y="492" type="curve" smooth="yes"/>
      <point x="134" y="511"/>
      <point x="124" y="527"/>
      <point x="89" y="527" type="curve" smooth="yes"/>
      <point x="64" y="527"/>
      <point x="48" y="509"/>
      <point x="48" y="481" type="curve" smooth="yes"/>
      <point x="48" y="430"/>
      <point x="89" y="397"/>
      <point x="151" y="397" type="curve" smooth="yes"/>
      <point x="236" y="397"/>
      <point x="293" y="435"/>
      <point x="293" y="491" type="curve" smooth="yes"/>
      <point x="293" y="533"/>
      <point x="268" y="559"/>
      <point x="220" y="568" type="curve"/>
      <point x="220" y="572" type="line"/>
      <point x="261" y="579"/>
      <point x="288" y="606"/>
    </contour>
  </outline>
</glyph>
<glyph name="acute" format="1">
  <advance width="259"/>
  <unicode hex="00B4"/>
  <outline>
    <contour>
      <point x="25" y="639" type="line"/>
      <point x="108" y="639" type="line"/>
      <point x="146" y="667" type="line" smooth="yes"/>
      <point x="210" y="713"/>
      <point x="230" y="734"/>
      <point x="230" y="754" type="curve" smooth="yes"/>
      <point x="230" y="776"/>
      <point x="217" y="796"/>
      <point x="174" y="796" type="curve" smooth="yes"/>
      <point x="136" y="796"/>
      <point x="115" y="778"/>
      <point x="74" y="715" type="curve" smooth="yes"/>
    </contour>
    <contour>
      <point x="67" y="639" type="move" name="_top"/>
    </contour>
  </outline>
</glyph>
<glyph name="mu" format="1">
  <advance width="682"/>
  <unicode hex="00B5"/>
  <outline>
    <contour>
      <point x="104" y="-179" type="line"/>
      <point x="231" y="-179" type="line"/>
      <point x="221" y="59" type="line"/>
      <point x="225" y="59" type="line"/>
      <point x="232" y="13"/>
      <point x="276" y="-10"/>
      <point x="307" y="-10" type="curve" smooth="yes"/>
      <point x="368" y="-10"/>
      <point x="415" y="30"/>
      <point x="446" y="100" type="curve"/>
      <point x="450" y="100" type="line"/>
      <point x="461" y="-10" type="line"/>
      <point x="646" y="0" type="line"/>
      <point x="646" y="56" type="line"/>
      <point x="569" y="75" type="line"/>
      <point x="569" y="540" type="line"/>
      <point x="355" y="540" type="line"/>
      <point x="355" y="484" type="line"/>
      <point x="442" y="465" type="line"/>
      <point x="442" y="228" type="line"/>
      <point x="438" y="172"/>
      <point x="429" y="139"/>
      <point x="401" y="110" type="curve" smooth="yes"/>
      <point x="377" y="86"/>
      <point x="349" y="76"/>
      <point x="314" y="76" type="curve" smooth="yes"/>
      <point x="288" y="76"/>
      <point x="258" y="92"/>
      <point x="245" y="123" type="curve" smooth="yes"/>
      <point x="235" y="147"/>
      <point x="231" y="186"/>
      <point x="231" y="272" type="curve" smooth="yes"/>
      <point x="231" y="540" type="line"/>
      <point x="37" y="540" type="line"/>
      <point x="37" y="484" type="line"/>
      <point x="104" y="465" type="line"/>
    </contour>
  </outline>
</glyph>
<glyph name="paragraph" format="1">
  <advance width="702"/>
  <unicode hex="00B6"/>
  <outline>
    <contour>
      <point x="482" y="-96" type="line"/>
      <point x="582" y="-96" type="line"/>
      <point x="582" y="591" type="line"/>
      <point x="666" y="612" type="line"/>
      <point x="666" y="670" type="line"/>
      <point x="275" y="670" type="line" smooth="yes"/>
      <point x="117" y="670"/>
      <point x="29" y="585"/>
      <point x="29" y="432" type="curve" smooth="yes"/>
      <point x="29" y="272"/>
      <point x="114" y="188"/>
      <point x="276" y="188" type="curve" smooth="yes"/>
      <point x="342" y="188" type="line"/>
      <point x="342" y="-96" type="line"/>
      <point x="442" y="-96" type="line"/>
      <point x="442" y="591" type="line"/>
      <point x="482" y="591" type="line"/>
    </contour>
  </outline>
</glyph>
<glyph name="periodcentered" format="2">
  <advance width="264"/>
  <unicode hex="00B7"/>
  <outline>
    <contour>
      <point x="54" y="298" type="curve" smooth="yes"/>
      <point x="54" y="248"/>
      <point x="82" y="220"/>
      <point x="132" y="220" type="curve" smooth="yes"/>
      <point x="180" y="220"/>
      <point x="211" y="250"/>
      <point x="211" y="298" type="curve" smooth="yes"/>
      <point x="211" y="346"/>
      <point x="180" y="378"/>
      <point x="132" y="378" type="curve" smooth="yes"/>
      <point x="84" y="378"/>
      <point x="54" y="347"/>
    </contour>
  </outline>
</glyph>
<glyph name="cedilla" format="1">
  <advance width="254"/>
  <unicode hex="00B8"/>
  <outline>
    <contour>
      <point x="101" y="-210" type="curve" smooth="yes"/>
      <point x="179" y="-210"/>
      <point x="244" y="-180"/>
      <point x="244" y="-126" type="curve" smooth="yes"/>
      <point x="244" y="-84"/>
      <point x="218" y="-56"/>
      <point x="144" y="-56" type="curve"/>
      <point x="143" y="-53" type="line"/>
      <point x="185" y="17" type="line"/>
      <point x="111" y="17" type="line"/>
      <point x="34" y="-83" type="line"/>
      <point x="51" y="-112" type="line"/>
      <point x="63" y="-108"/>
      <point x="82" y="-106"/>
      <point x="97" y="-106" type="curve" smooth="yes"/>
      <point x="124" y="-106"/>
      <point x="142" y="-117"/>
      <point x="142" y="-134" type="curve" smooth="yes"/>
      <point x="142" y="-150"/>
      <point x="127" y="-160"/>
      <point x="100" y="-160" type="curve" smooth="yes"/>
      <point x="80" y="-160"/>
      <point x="60" y="-153"/>
      <point x="41" y="-140" type="curve"/>
      <point x="10" y="-182" type="line"/>
      <point x="36" y="-201"/>
      <point x="67" y="-210"/>
    </contour>
    <contour>
      <point x="139" y="0" type="move" name="_bottom"/>
    </contour>
  </outline>
</glyph>
<glyph name="onesuperior" format="2">
  <advance width="332"/>
  <unicode hex="00B9"/>
  <outline>
    <contour>
      <point x="131" y="442" type="line"/>
      <point x="71" y="433" type="line"/>
      <point x="71" y="392" type="line"/>
      <point x="261" y="392" type="line"/>
      <point x="261" y="433" type="line"/>
      <point x="213" y="442" type="line"/>
      <point x="213" y="720" type="line"/>
      <point x="144" y="720" type="line"/>
      <point x="134" y="707"/>
      <point x="92" y="700"/>
      <point x="71" y="700" type="curve"/>
      <point x="71" y="654" type="line"/>
      <point x="131" y="654" type="line"/>
    </contour>
  </outline>
</glyph>
<glyph name="ordmasculine" format="2">
  <advance width="381"/>
  <unicode hex="00BA"/>
  <outline>
    <contour>
      <point x="341" y="579" type="curve" smooth="yes"/>
      <point x="341" y="625"/>
      <point x="328" y="669"/>
      <point x="302" y="695" type="curve" smooth="yes"/>
      <point x="278" y="719"/>
      <point x="238" y="730"/>
      <point x="192" y="730" type="curve" smooth="yes"/>
      <point x="143" y="730"/>
      <point x="106" y="719"/>
      <point x="82" y="694" type="curve" smooth="yes"/>
      <point x="56" y="667"/>
      <point x="41" y="620"/>
      <point x="41" y="572" type="curve" smooth="yes"/>
      <point x="41" y="526"/>
      <point x="54" y="483"/>
      <point x="80" y="457" type="curve" smooth="yes"/>
      <point x="103" y="433"/>
      <point x="141" y="422"/>
      <point x="189" y="422" type="curve" smooth="yes"/>
      <point x="238" y="422"/>
      <point x="276" y="433"/>
      <point x="300" y="458" type="curve" smooth="yes"/>
      <point x="326" y="485"/>
      <point x="341" y="532"/>
    </contour>
    <contour>
      <point x="135" y="578" type="curve" smooth="yes"/>
      <point x="135" y="618"/>
      <point x="140" y="645"/>
      <point x="155" y="664" type="curve" smooth="yes"/>
      <point x="162" y="672"/>
      <point x="174" y="681"/>
      <point x="190" y="681" type="curve" smooth="yes"/>
      <point x="207" y="681"/>
      <point x="220" y="673"/>
      <point x="228" y="662" type="curve" smooth="yes"/>
      <point x="243" y="641"/>
      <point x="247" y="612"/>
      <point x="247" y="574" type="curve" smooth="yes"/>
      <point x="247" y="530"/>
      <point x="242" y="503"/>
      <point x="228" y="486" type="curve" smooth="yes"/>
      <point x="220" y="477"/>
      <point x="209" y="471"/>
      <point x="193" y="471" type="curve" smooth="yes"/>
      <point x="175" y="471"/>
      <point x="161" y="481"/>
      <point x="154" y="492" type="curve" smooth="yes"/>
      <point x="140" y="514"/>
      <point x="135" y="539"/>
    </contour>
  </outline>
</glyph>
<glyph name="AE" format="1">
  <advance width="1072"/>
  <unicode hex="00C6"/>
  <outline>
    <contour>
      <point x="869" y="238" type="line"/>
      <point x="869" y="502" type="line"/>
      <point x="788" y="502" type="line"/>
      <point x="772" y="407" type="line"/>
      <point x="634" y="407" type="line"/>
      <point x="634" y="647" type="line"/>
      <point x="892" y="647" type="line"/>
      <point x="921" y="508" type="line"/>
      <point x="1003" y="508" type="line"/>
      <point x="1003" y="720" type="line"/>
      <point x="333" y="720" type="line"/>
      <point x="333" y="662" type="line"/>
      <point x="408" y="651" type="line"/>
      <point x="88" y="79" type="line"/>
      <point x="-14" y="58" type="line"/>
      <point x="-14" y="0" type="line"/>
      <point x="263" y="0" type="line"/>
      <point x="263" y="58" type="line"/>
      <point x="192" y="79" type="line"/>
      <point x="277" y="234" type="line"/>
      <point x="504" y="234" type="line"/>
      <point x="504" y="79" type="line"/>
      <point x="410" y="58" type="line"/>
      <point x="410" y="0" type="line"/>
      <point x="1025" y="0" type="line"/>
      <point x="1025" y="223" type="line"/>
      <point x="937" y="223" type="line"/>
      <point x="909" y="75" type="line"/>
      <point x="634" y="75" type="line"/>
      <point x="634" y="332" type="line"/>
      <point x="772" y="332" type="line"/>
      <point x="788" y="238" type="line"/>
    </contour>
    <contour>
      <point x="504" y="641" type="line"/>
      <point x="504" y="307" type="line"/>
      <point x="318" y="307" type="line"/>
      <point x="497" y="642" type="line"/>
    </contour>
  </outline>
</glyph>
<glyph name="Eth" format="1">
  <advance width="785"/>
  <unicode hex="00D0"/>
  <outline>
    <contour>
      <point x="47" y="322" type="line"/>
      <point x="131" y="322" type="line"/>
      <point x="131" y="79" type="line"/>
      <point x="47" y="58" type="line"/>
      <point x="47" y="0" type="line"/>
      <point x="404" y="0" type="line" smooth="yes"/>
      <point x="510" y="0"/>
      <point x="586" y="28"/>
      <point x="642" y="87" type="curve" smooth="yes"/>
      <point x="705" y="153"/>
      <point x="742" y="256"/>
      <point x="742" y="368" type="curve" smooth="yes"/>
      <point x="742" y="474"/>
      <point x="707" y="572"/>
      <point x="645" y="636" type="curve" smooth="yes"/>
      <point x="589" y="693"/>
      <point x="514" y="720"/>
      <point x="413" y="720" type="curve" smooth="yes"/>
      <point x="47" y="720" type="line"/>
      <point x="47" y="662" type="line"/>
      <point x="131" y="641" type="line"/>
      <point x="131" y="404" type="line"/>
      <point x="47" y="404" type="line"/>
    </contour>
    <contour>
      <point x="261" y="75" type="line"/>
      <point x="261" y="322" type="line"/>
      <point x="388" y="322" type="line"/>
      <point x="388" y="404" type="line"/>
      <point x="261" y="404" type="line"/>
      <point x="261" y="645" type="line"/>
      <point x="376" y="645" type="line" smooth="yes"/>
      <point x="453" y="645"/>
      <point x="507" y="626"/>
      <point x="542" y="586" type="curve" smooth="yes"/>
      <point x="579" y="535"/>
      <point x="597" y="457"/>
      <point x="597" y="354" type="curve" smooth="yes"/>
      <point x="597" y="249"/>
      <point x="578" y="174"/>
      <point x="542" y="126" type="curve" smooth="yes"/>
      <point x="508" y="92"/>
      <point x="458" y="75"/>
      <point x="386" y="75" type="curve" smooth="yes"/>
    </contour>
  </outline>
</glyph>
<glyph name="multiply" format="1">
  <advance width="506"/>
  <unicode hex="00D7"/>
  <outline>
    <contour>
      <point x="119" y="148" type="line"/>
      <point x="253" y="283" type="line"/>
      <point x="387" y="148" type="line"/>
      <point x="457" y="218" type="line"/>
      <point x="322" y="352" type="line"/>
      <point x="457" y="486" type="line"/>
      <point x="387" y="556" type="line"/>
      <point x="253" y="421" type="line"/>
      <point x="119" y="556" type="line"/>
      <point x="49" y="486" type="line"/>
      <point x="184" y="352" type="line"/>
      <point x="49" y="218" type="line"/>
    </contour>
  </outline>
</glyph>
<glyph name="Thorn" format="2">
  <advance width="656"/>
  <unicode hex="00DE"/>
  <outline>
    <contour>
      <point x="409" y="148" type="line" smooth="yes"/>
      <point x="469" y="148"/>
      <point x="523" y="166"/>
      <point x="558" y="197" type="curve" smooth="yes"/>
      <point x="604" y="238"/>
      <point x="631" y="302"/>
      <point x="631" y="366" type="curve" smooth="yes"/>
      <point x="631" y="428"/>
      <point x="605" y="486"/>
      <point x="560" y="527" type="curve" smooth="yes"/>
      <point x="525" y="558"/>
      <point x="472" y="575"/>
      <point x="410" y="575" type="curve" smooth="yes"/>
      <point x="258" y="575" type="line"/>
      <point x="258" y="641" type="line"/>
      <point x="342" y="662" type="line"/>
      <point x="342" y="720" type="line"/>
      <point x="33" y="720" type="line"/>
      <point x="33" y="662" type="line"/>
      <point x="128" y="641" type="line"/>
      <point x="128" y="79" type="line"/>
      <point x="44" y="58" type="line"/>
      <point x="44" y="0" type="line"/>
      <point x="353" y="0" type="line"/>
      <point x="353" y="58" type="line"/>
      <point x="258" y="79" type="line"/>
      <point x="258" y="148" type="line"/>
    </contour>
    <contour>
      <point x="258" y="221" type="line"/>
      <point x="258" y="502" type="line"/>
      <point x="353" y="502" type="line" smooth="yes"/>
      <point x="391" y="502"/>
      <point x="426" y="488"/>
      <point x="448" y="466" type="curve" smooth="yes"/>
      <point x="476" y="439"/>
      <point x="491" y="402"/>
      <point x="491" y="360" type="curve" smooth="yes"/>
      <point x="491" y="316"/>
      <point x="475" y="276"/>
      <point x="448" y="252" type="curve" smooth="yes"/>
      <point x="429" y="233"/>
      <point x="394" y="221"/>
      <point x="357" y="221" type="curve" smooth="yes"/>
    </contour>
  </outline>
</glyph>
<glyph name="germandbls" format="1">
  <advance width="647"/>
  <unicode hex="00DF"/>
  <outline>
    <contour>
      <point x="377" y="424" type="curve" smooth="yes"/>
      <point x="377" y="393"/>
      <point x="394" y="382"/>
      <point x="473" y="341" type="curve" smooth="yes"/>
      <point x="599" y="276"/>
      <point x="629" y="233"/>
      <point x="629" y="153" type="curve" smooth="yes"/>
      <point x="629" y="49"/>
      <point x="542" y="-10"/>
      <point x="425" y="-10" type="curve" smooth="yes"/>
      <point x="323" y="-10"/>
      <point x="255" y="43"/>
      <point x="255" y="116" type="curve" smooth="yes"/>
      <point x="255" y="157"/>
      <point x="278" y="201"/>
      <point x="330" y="201" type="curve" smooth="yes"/>
      <point x="377" y="201"/>
      <point x="398" y="171"/>
      <point x="398" y="146" type="curve" smooth="yes"/>
      <point x="398" y="116"/>
      <point x="384" y="95"/>
      <point x="362" y="85" type="curve"/>
      <point x="370" y="65"/>
      <point x="404" y="51"/>
      <point x="428" y="51" type="curve" smooth="yes"/>
      <point x="471" y="51"/>
      <point x="512" y="81"/>
      <point x="512" y="129" type="curve" smooth="yes"/>
      <point x="512" y="175"/>
      <point x="496" y="192"/>
      <point x="400" y="250" type="curve" smooth="yes"/>
      <point x="290" y="315"/>
      <point x="265" y="343"/>
      <point x="265" y="401" type="curve" smooth="yes"/>
      <point x="265" y="449"/>
      <point x="281" y="471"/>
      <point x="357" y="527" type="curve" smooth="yes"/>
      <point x="401" y="560"/>
      <point x="418" y="591"/>
      <point x="418" y="639" type="curve" smooth="yes"/>
      <point x="418" y="700"/>
      <point x="383" y="735"/>
      <point x="325" y="735" type="curve" smooth="yes"/>
      <point x="264" y="735"/>
      <point x="223" y="682"/>
      <point x="223" y="575" type="curve" smooth="yes"/>
      <point x="223" y="0" type="line"/>
      <point x="19" y="0" type="line"/>
      <point x="19" y="56" type="line"/>
      <point x="96" y="75" type="line"/>
      <point x="96" y="550" type="line" smooth="yes"/>
      <point x="96" y="699"/>
      <point x="181" y="790"/>
      <point x="321" y="790" type="curve" smooth="yes"/>
      <point x="451" y="790"/>
      <point x="533" y="731"/>
      <point x="533" y="638" type="curve" smooth="yes"/>
      <point x="533" y="585"/>
      <point x="512" y="543"/>
      <point x="456" y="508" type="curve" smooth="yes"/>
      <point x="397" y="470"/>
      <point x="377" y="455"/>
    </contour>
  </outline>
</glyph>
<glyph name="ae" format="1">
  <advance width="850"/>
  <unicode hex="00E6"/>
  <outline>
    <contour>
      <point x="31" y="117" type="curve" smooth="yes"/>
      <point x="31" y="38"/>
      <point x="82" y="-10"/>
      <point x="166" y="-10" type="curve" smooth="yes"/>
      <point x="270" y="-10"/>
      <point x="332" y="31"/>
      <point x="373" y="99" type="curve"/>
      <point x="380" y="99" type="line"/>
      <point x="418" y="27"/>
      <point x="481" y="-10"/>
      <point x="570" y="-10" type="curve" smooth="yes"/>
      <point x="690" y="-10"/>
      <point x="752" y="38"/>
      <point x="806" y="102" type="curve"/>
      <point x="746" y="145" type="line"/>
      <point x="705" y="100"/>
      <point x="653" y="72"/>
      <point x="590" y="72" type="curve" smooth="yes"/>
      <point x="545" y="72"/>
      <point x="503" y="92"/>
      <point x="483" y="143" type="curve" smooth="yes"/>
      <point x="470" y="174"/>
      <point x="463" y="206"/>
      <point x="463" y="256" type="curve"/>
      <point x="812" y="256" type="line"/>
      <point x="815" y="282"/>
      <point x="815" y="298"/>
      <point x="815" y="311" type="curve" smooth="yes"/>
      <point x="815" y="460"/>
      <point x="737" y="550"/>
      <point x="582" y="550" type="curve" smooth="yes"/>
      <point x="506" y="550"/>
      <point x="445" y="515"/>
      <point x="418" y="447" type="curve"/>
      <point x="413" y="447" type="line"/>
      <point x="394" y="516"/>
      <point x="330" y="550"/>
      <point x="251" y="550" type="curve" smooth="yes"/>
      <point x="160" y="550"/>
      <point x="58" y="503"/>
      <point x="58" y="420" type="curve" smooth="yes"/>
      <point x="58" y="371"/>
      <point x="86" y="344"/>
      <point x="130" y="344" type="curve" smooth="yes"/>
      <point x="174" y="344"/>
      <point x="200" y="369"/>
      <point x="200" y="401" type="curve" smooth="yes"/>
      <point x="200" y="419"/>
      <point x="190" y="441"/>
      <point x="173" y="454" type="curve"/>
      <point x="179" y="476"/>
      <point x="207" y="491"/>
      <point x="230" y="491" type="curve" smooth="yes"/>
      <point x="269" y="491"/>
      <point x="297" y="474"/>
      <point x="317" y="440" type="curve" smooth="yes"/>
      <point x="331" y="416"/>
      <point x="340" y="387"/>
      <point x="346" y="317" type="curve"/>
      <point x="121" y="283"/>
      <point x="31" y="221"/>
    </contour>
    <contour>
      <point x="566" y="481" type="curve" smooth="yes"/>
      <point x="642" y="481"/>
      <point x="684" y="432"/>
      <point x="684" y="346" type="curve" smooth="yes"/>
      <point x="684" y="320" type="line"/>
      <point x="464" y="320" type="line"/>
      <point x="470" y="431"/>
      <point x="504" y="481"/>
    </contour>
    <contour>
      <point x="238" y="63" type="curve" smooth="yes"/>
      <point x="191" y="63"/>
      <point x="164" y="90"/>
      <point x="164" y="138" type="curve" smooth="yes"/>
      <point x="164" y="214"/>
      <point x="206" y="239"/>
      <point x="345" y="272" type="curve"/>
      <point x="347" y="252"/>
      <point x="349" y="237"/>
      <point x="349" y="215" type="curve" smooth="yes"/>
      <point x="349" y="172"/>
      <point x="337" y="142"/>
      <point x="320" y="118" type="curve" smooth="yes"/>
      <point x="296" y="85"/>
      <point x="265" y="63"/>
    </contour>
    <contour>
      <point x="416" y="639" type="move" name="top"/>
    </contour>
  </outline>
</glyph>
<glyph name="eth" format="1">
  <advance width="582"/>
  <unicode hex="00F0"/>
  <outline>
    <contour>
      <point x="161" y="210" type="curve" smooth="yes"/>
      <point x="161" y="111"/>
      <point x="207" y="60"/>
      <point x="275" y="60" type="curve" smooth="yes"/>
      <point x="360" y="60"/>
      <point x="397" y="111"/>
      <point x="397" y="210" type="curve" smooth="yes"/>
      <point x="397" y="308"/>
      <point x="359" y="358"/>
      <point x="275" y="358" type="curve" smooth="yes"/>
      <point x="207" y="358"/>
      <point x="161" y="308"/>
    </contour>
    <contour>
      <point x="418" y="351" type="line"/>
      <point x="413" y="442"/>
      <point x="377" y="530"/>
      <point x="324" y="593" type="curve"/>
      <point x="191" y="535" type="line"/>
      <point x="162" y="599" type="line"/>
      <point x="279" y="651" type="line"/>
      <point x="261" y="673"/>
      <point x="246" y="689"/>
      <point x="222" y="711" type="curve"/>
      <point x="300" y="739" type="line"/>
      <point x="317" y="726"/>
      <point x="322" y="722"/>
      <point x="358" y="687" type="curve"/>
      <point x="447" y="726" type="line"/>
      <point x="479" y="663" type="line"/>
      <point x="407" y="631" type="line"/>
      <point x="500" y="516"/>
      <point x="543" y="414"/>
      <point x="543" y="294" type="curve" smooth="yes"/>
      <point x="543" y="99"/>
      <point x="442" y="-10"/>
      <point x="260" y="-10" type="curve" smooth="yes"/>
      <point x="115" y="-10"/>
      <point x="24" y="76"/>
      <point x="24" y="211" type="curve" smooth="yes"/>
      <point x="24" y="342"/>
      <point x="110" y="430"/>
      <point x="237" y="430" type="curve" smooth="yes"/>
      <point x="310" y="430"/>
      <point x="377" y="400"/>
      <point x="414" y="351" type="curve"/>
    </contour>
  </outline>
</glyph>
<glyph name="divide" format="2">
  <advance width="515"/>
  <unicode hex="00F7"/>
  <outline>
    <contour>
      <point x="39" y="318" type="line"/>
      <point x="477" y="318" type="line"/>
      <point x="477" y="387" type="line"/>
      <point x="39" y="387" type="line"/>
    </contour>
    <contour>
      <point x="187" y="174" type="curve" smooth="yes"/>
      <point x="187" y="126"/>
      <point x="213" y="100"/>
      <point x="261" y="100" type="curve" smooth="yes"/>
      <point x="307" y="100"/>
      <point x="336" y="128"/>
      <point x="336" y="174" type="curve" smooth="yes"/>
      <point x="336" y="220"/>
      <point x="307" y="250"/>
      <point x="261" y="250" type="curve" smooth="yes"/>
      <point x="215" y="250"/>
      <point x="187" y="221"/>
    </contour>
    <contour>
      <point x="187" y="528" type="curve" smooth="yes"/>
      <point x="187" y="480"/>
      <point x="213" y="454"/>
      <point x="261" y="454" type="curve" smooth="yes"/>
      <point x="307" y="454"/>
      <point x="336" y="482"/>
      <point x="336" y="528" type="curve" smooth="yes"/>
      <point x="336" y="574"/>
      <point x="307" y="604"/>
      <point x="261" y="604" type="curve" smooth="yes"/>
      <point x="215" y="604"/>
      <point x="187" y="575"/>
    </contour>
  </outline>
</glyph>
<glyph name="thorn" format="1">
  <advance width="614"/>
  <unicode hex="00FE"/>
  <outline>
    <contour>
      <point x="576" y="275" type="curve" smooth="yes"/>
      <point x="576" y="368"/>
      <point x="553" y="436"/>
      <point x="512" y="487" type="curve" smooth="yes"/>
      <point x="478" y="529"/>
      <point x="424" y="550"/>
      <point x="352" y="550" type="curve" smooth="yes"/>
      <point x="285" y="550"/>
      <point x="239" y="529"/>
      <point x="202" y="482" type="curve"/>
      <point x="202" y="780" type="line"/>
      <point x="-2" y="780" type="line"/>
      <point x="-2" y="724" type="line"/>
      <point x="75" y="705" type="line"/>
      <point x="75" y="-105" type="line"/>
      <point x="-2" y="-124" type="line"/>
      <point x="-2" y="-180" type="line"/>
      <point x="299" y="-180" type="line"/>
      <point x="299" y="-124" type="line"/>
      <point x="202" y="-105" type="line"/>
      <point x="202" y="75" type="line"/>
      <point x="236" y="23"/>
      <point x="281" y="0"/>
      <point x="344" y="0" type="curve" smooth="yes"/>
      <point x="414" y="0"/>
      <point x="468" y="22"/>
      <point x="505" y="65" type="curve" smooth="yes"/>
      <point x="549" y="115"/>
      <point x="576" y="184"/>
    </contour>
    <contour>
      <point x="202" y="274" type="curve" smooth="yes"/>
      <point x="202" y="345"/>
      <point x="214" y="401"/>
      <point x="237" y="437" type="curve" smooth="yes"/>
      <point x="254" y="467"/>
      <point x="284" y="483"/>
      <point x="321" y="483" type="curve" smooth="yes"/>
      <point x="356" y="483"/>
      <point x="387" y="466"/>
      <point x="407" y="430" type="curve" smooth="yes"/>
      <point x="427" y="393"/>
      <point x="441" y="340"/>
      <point x="441" y="267" type="curve" smooth="yes"/>
      <point x="441" y="197"/>
      <point x="427" y="143"/>
      <point x="408" y="114" type="curve" smooth="yes"/>
      <point x="389" y="85"/>
      <point x="360" y="67"/>
      <point x="322" y="67" type="curve" smooth="yes"/>
      <point x="292" y="67"/>
      <point x="259" y="82"/>
      <point x="237" y="120" type="curve" smooth="yes"/>
      <point x="213" y="156"/>
      <point x="202" y="203"/>
    </contour>
  </outline>
</glyph>
<glyph name="Dcroat" format="1">
  <advance width="784"/>
  <unicode hex="0110"/>
  <outline>
    <contour>
      <point x="61" y="324" type="line"/>
      <point x="390" y="324" type="line"/>
      <point x="390" y="404" type="line"/>
      <point x="61" y="404" type="line"/>
    </contour>
    <component base="D" xOffset="5"/>
  </outline>
</glyph>
<glyph name="dcroat" format="1">
  <advance width="636"/>
  <unicode hex="0111"/>
  <outline>
    <contour>
      <point x="321" y="601" type="line"/>
      <point x="602" y="601" type="line"/>
      <point x="602" y="677" type="line"/>
      <point x="321" y="677" type="line"/>
    </contour>
    <component base="d"/>
  </outline>
</glyph>
<glyph name="Hbar" format="1">
  <advance width="829"/>
  <unicode hex="0126"/>
  <outline>
    <contour>
      <point x="62" y="488" type="line"/>
      <point x="768" y="488" type="line"/>
      <point x="768" y="568" type="line"/>
      <point x="62" y="568" type="line"/>
    </contour>
    <component base="H" xOffset="5"/>
  </outline>
</glyph>
<glyph name="hbar" format="2">
  <advance width="658"/>
  <unicode hex="0127"/>
  <outline>
    <contour>
      <point x="33" y="600" type="line"/>
      <point x="314" y="600" type="line"/>
      <point x="314" y="677" type="line"/>
      <point x="33" y="677" type="line"/>
    </contour>
    <component base="h"/>
  </outline>
</glyph>
<glyph name="dotlessi" format="2">
  <advance width="331"/>
  <unicode hex="0131"/>
  <guideline x="111.0" y="0.0" angle="90.0" identifier="514LegxedI"/>
  <guideline x="208.0" y="0.0" angle="90.0" identifier="gu9jlQldOf"/>
  <anchor x="173" y="0" name="bottom"/>
  <anchor x="171" y="639" name="top"/>
  <outline>
    <contour>
      <point x="108" y="465" type="line"/>
      <point x="108" y="75" type="line"/>
      <point x="31" y="56" type="line"/>
      <point x="31" y="0" type="line"/>
      <point x="312" y="0" type="line"/>
      <point x="312" y="56" type="line"/>
      <point x="235" y="75" type="line"/>
      <point x="235" y="540" type="line"/>
      <point x="31" y="540" type="line"/>
      <point x="31" y="484" type="line"/>
    </contour>
  </outline>
</glyph>
<glyph name="kgreenlandic" format="2">
  <advance width="616"/>
  <unicode hex="0138"/>
  <outline>
    <contour>
      <point x="365" y="56" type="line"/>
      <point x="365" y="0" type="line"/>
      <point x="614" y="0" type="line"/>
      <point x="614" y="56" type="line"/>
      <point x="561" y="73" type="line"/>
      <point x="373" y="325" type="line"/>
      <point x="509" y="465" type="line"/>
      <point x="582" y="484" type="line"/>
      <point x="582" y="540" type="line"/>
      <point x="337" y="540" type="line"/>
      <point x="337" y="484" type="line"/>
      <point x="403" y="465" type="line"/>
      <point x="235" y="286" type="line"/>
      <point x="235" y="540" type="line"/>
      <point x="31" y="540" type="line"/>
      <point x="31" y="484" type="line"/>
      <point x="108" y="465" type="line"/>
      <point x="108" y="75" type="line"/>
      <point x="31" y="56" type="line"/>
      <point x="31" y="0" type="line"/>
      <point x="312" y="0" type="line"/>
      <point x="312" y="56" type="line"/>
      <point x="235" y="75" type="line"/>
      <point x="235" y="204" type="line"/>
      <point x="294" y="254" type="line"/>
      <point x="424" y="75" type="line"/>
    </contour>
  </outline>
</glyph>
<glyph name="lacute" format="2">
  <advance width="290"/>
  <unicode hex="013A"/>
  <outline>
    <contour>
      <point x="108" y="770" type="line"/>
      <point x="161" y="770" type="line"/>
      <point x="208" y="799" type="line" smooth="yes"/>
      <point x="259" y="830"/>
      <point x="281" y="844"/>
      <point x="281" y="865" type="curve" smooth="yes"/>
      <point x="281" y="884"/>
      <point x="267" y="895"/>
      <point x="244" y="895" type="curve" smooth="yes"/>
      <point x="219" y="895"/>
      <point x="197" y="883"/>
      <point x="169" y="847" type="curve" smooth="yes"/>
    </contour>
    <contour>
      <point x="96" y="60" type="line"/>
      <point x="19" y="41" type="line"/>
      <point x="19" y="0" type="line"/>
      <point x="270" y="0" type="line"/>
      <point x="270" y="41" type="line"/>
      <point x="193" y="60" type="line"/>
      <point x="193" y="720" type="line"/>
      <point x="19" y="720" type="line"/>
      <point x="19" y="679" type="line"/>
      <point x="96" y="660" type="line"/>
    </contour>
  </outline>
</glyph>
<glyph name="Lslash" format="2">
  <advance width="646"/>
  <unicode hex="0141"/>
  <outline>
    <contour>
      <point x="66" y="251" type="line"/>
      <point x="354" y="420" type="line"/>
      <point x="354" y="504" type="line"/>
      <point x="66" y="334" type="line"/>
    </contour>
    <component base="L" xOffset="1"/>
  </outline>
</glyph>
<glyph name="lslash" format="2">
  <advance width="328"/>
  <unicode hex="0142"/>
  <outline>
    <contour>
      <point x="31" y="281" type="line"/>
      <point x="299" y="450" type="line"/>
      <point x="299" y="534" type="line"/>
      <point x="31" y="364" type="line"/>
    </contour>
    <component base="l" xOffset="1"/>
  </outline>
</glyph>
<glyph name="Eng" format="1">
  <advance width="817"/>
  <unicode hex="014A"/>
  <outline>
    <contour>
      <point x="125" y="79" type="line"/>
      <point x="41" y="58" type="line"/>
      <point x="41" y="0" type="line"/>
      <point x="304" y="0" type="line"/>
      <point x="304" y="58" type="line"/>
      <point x="220" y="79" type="line"/>
      <point x="220" y="574" type="line"/>
      <point x="595" y="-7" type="line"/>
      <point x="595" y="-24" type="line" smooth="yes"/>
      <point x="595" y="-91"/>
      <point x="581" y="-138"/>
      <point x="536" y="-138" type="curve" smooth="yes"/>
      <point x="507" y="-138"/>
      <point x="490" y="-129"/>
      <point x="488" y="-117" type="curve"/>
      <point x="501" y="-112"/>
      <point x="513" y="-99"/>
      <point x="513" y="-78" type="curve" smooth="yes"/>
      <point x="513" y="-41"/>
      <point x="486" y="-23"/>
      <point x="455" y="-23" type="curve" smooth="yes"/>
      <point x="420" y="-23"/>
      <point x="402" y="-51"/>
      <point x="402" y="-88" type="curve" smooth="yes"/>
      <point x="402" y="-151"/>
      <point x="467" y="-190"/>
      <point x="538" y="-190" type="curve" smooth="yes"/>
      <point x="601" y="-190"/>
      <point x="654" y="-158"/>
      <point x="679" y="-101" type="curve" smooth="yes"/>
      <point x="695" y="-65"/>
      <point x="701" y="-14"/>
      <point x="701" y="85" type="curve" smooth="yes"/>
      <point x="701" y="641" type="line"/>
      <point x="785" y="662" type="line"/>
      <point x="785" y="720" type="line"/>
      <point x="522" y="720" type="line"/>
      <point x="522" y="662" type="line"/>
      <point x="606" y="641" type="line"/>
      <point x="606" y="192" type="line"/>
      <point x="272" y="720" type="line"/>
      <point x="41" y="720" type="line"/>
      <point x="41" y="662" type="line"/>
      <point x="125" y="641" type="line"/>
    </contour>
  </outline>
</glyph>
<glyph name="eng" format="2">
  <advance width="645"/>
  <unicode hex="014B"/>
  <outline>
    <contour>
      <point x="454" y="-24" type="line" smooth="yes"/>
      <point x="454" y="-121"/>
      <point x="441" y="-138"/>
      <point x="416" y="-138" type="curve" smooth="yes"/>
      <point x="400" y="-138"/>
      <point x="385" y="-130"/>
      <point x="383" y="-121" type="curve"/>
      <point x="394" y="-110"/>
      <point x="399" y="-98"/>
      <point x="399" y="-79" type="curve" smooth="yes"/>
      <point x="399" y="-55"/>
      <point x="375" y="-31"/>
      <point x="335" y="-31" type="curve" smooth="yes"/>
      <point x="285" y="-31"/>
      <point x="267" y="-60"/>
      <point x="267" y="-95" type="curve" smooth="yes"/>
      <point x="267" y="-150"/>
      <point x="319" y="-190"/>
      <point x="407" y="-190" type="curve" smooth="yes"/>
      <point x="474" y="-190"/>
      <point x="534" y="-158"/>
      <point x="559" y="-101" type="curve" smooth="yes"/>
      <point x="575" y="-65"/>
      <point x="581" y="-14"/>
      <point x="581" y="85" type="curve" smooth="yes"/>
      <point x="581" y="281" type="line" smooth="yes"/>
      <point x="581" y="395"/>
      <point x="570" y="459"/>
      <point x="544" y="496" type="curve" smooth="yes"/>
      <point x="519" y="530"/>
      <point x="474" y="550"/>
      <point x="421" y="550" type="curve" smooth="yes"/>
      <point x="343" y="550"/>
      <point x="271" y="508"/>
      <point x="231" y="440" type="curve"/>
      <point x="227" y="440" type="line"/>
      <point x="205" y="540" type="line"/>
      <point x="31" y="540" type="line"/>
      <point x="31" y="484" type="line"/>
      <point x="108" y="465" type="line"/>
      <point x="108" y="75" type="line"/>
      <point x="31" y="56" type="line"/>
      <point x="31" y="0" type="line"/>
      <point x="302" y="0" type="line"/>
      <point x="302" y="56" type="line"/>
      <point x="235" y="75" type="line"/>
      <point x="235" y="312" type="line" smooth="yes"/>
      <point x="235" y="367"/>
      <point x="251" y="401"/>
      <point x="280" y="427" type="curve" smooth="yes"/>
      <point x="306" y="450"/>
      <point x="330" y="462"/>
      <point x="367" y="462" type="curve" smooth="yes"/>
      <point x="394" y="462"/>
      <point x="427" y="447"/>
      <point x="438" y="415" type="curve" smooth="yes"/>
      <point x="450" y="390"/>
      <point x="454" y="354"/>
      <point x="454" y="268" type="curve" smooth="yes"/>
    </contour>
  </outline>
</glyph>
<glyph name="OE" format="2">
  <advance width="1082"/>
  <unicode hex="0152"/>
  <outline>
    <contour>
      <point x="879" y="238" type="line"/>
      <point x="879" y="502" type="line"/>
      <point x="798" y="502" type="line"/>
      <point x="781" y="407" type="line"/>
      <point x="644" y="407" type="line"/>
      <point x="644" y="647" type="line"/>
      <point x="902" y="647" type="line"/>
      <point x="931" y="508" type="line"/>
      <point x="1013" y="508" type="line"/>
      <point x="1013" y="720" type="line"/>
      <point x="372" y="720" type="line" smooth="yes"/>
      <point x="271" y="720"/>
      <point x="196" y="693"/>
      <point x="140" y="636" type="curve" smooth="yes"/>
      <point x="78" y="572"/>
      <point x="43" y="474"/>
      <point x="43" y="368" type="curve" smooth="yes"/>
      <point x="43" y="256"/>
      <point x="80" y="153"/>
      <point x="143" y="87" type="curve" smooth="yes"/>
      <point x="199" y="28"/>
      <point x="275" y="0"/>
      <point x="381" y="0" type="curve" smooth="yes"/>
      <point x="1035" y="0" type="line"/>
      <point x="1035" y="223" type="line"/>
      <point x="947" y="223" type="line"/>
      <point x="918" y="75" type="line"/>
      <point x="644" y="75" type="line"/>
      <point x="644" y="332" type="line"/>
      <point x="781" y="332" type="line"/>
      <point x="798" y="238" type="line"/>
    </contour>
    <contour>
      <point x="514" y="75" type="line"/>
      <point x="399" y="75" type="line" smooth="yes"/>
      <point x="327" y="75"/>
      <point x="278" y="97"/>
      <point x="243" y="141" type="curve" smooth="yes"/>
      <point x="207" y="186"/>
      <point x="188" y="256"/>
      <point x="188" y="354" type="curve" smooth="yes"/>
      <point x="188" y="450"/>
      <point x="207" y="522"/>
      <point x="243" y="571" type="curve" smooth="yes"/>
      <point x="279" y="620"/>
      <point x="332" y="645"/>
      <point x="409" y="645" type="curve" smooth="yes"/>
      <point x="514" y="645" type="line"/>
    </contour>
  </outline>
</glyph>
